{"glyphs":{"0":{"ha":1048,"x_min":-41,"x_max":1037,"o":"m 793 1020 q 831 1018 798 1020 q 902 997 863 1015 q 977 941 941 980 q 1028 830 1013 902 q 1036 744 1035 793 q 1024 637 1037 696 q 924 352 993 487 q 855 234 894 294 q 763 119 815 174 q 646 18 711 65 q 502 -61 581 -30 q 380 -104 443 -87 q 246 -120 317 -120 q 52 -59 117 -120 q -30 94 -13 2 q -37 152 -33 111 q -39 250 -41 193 q -25 379 -37 307 q 17 531 -13 450 q 96 699 46 613 q 226 872 146 785 q 352 985 283 935 q 486 1063 411 1028 q 648 1100 561 1098 q 668 1098 650 1100 q 708 1089 685 1096 q 755 1066 731 1081 q 793 1020 778 1050 m 672 170 q 814 378 761 269 q 893 584 867 487 q 924 756 919 681 q 924 859 930 831 q 896 894 919 885 q 854 904 874 904 q 820 900 837 904 q 791 893 804 896 q 763 881 776 887 q 681 824 715 857 q 632 746 652 793 q 628 631 613 700 q 634 609 630 619 q 644 590 639 600 q 653 565 648 580 q 663 526 657 550 q 635 494 669 494 q 573 513 600 494 q 528 557 546 531 q 498 611 509 583 q 485 656 487 639 q 479 701 480 680 q 478 739 478 722 q 481 774 478 759 q 537 890 498 844 q 617 961 576 935 q 717 1006 665 991 q 704 1014 707 1011 q 687 1017 700 1017 q 631 1005 665 1017 q 557 969 598 993 q 472 908 517 944 q 385 826 428 872 q 346 778 385 826 q 258 647 307 730 q 166 454 209 565 q 111 217 122 343 q 115 98 104 154 q 164 6 128 37 q 270 -26 200 -26 q 427 5 354 -26 q 554 72 500 35 q 672 170 617 115 z "},"1":{"ha":620,"x_min":13,"x_max":696,"o":"m 694 1043 q 696 1020 696 1035 q 688 981 696 1002 q 657 941 680 961 q 400 654 513 802 q 306 519 352 591 q 225 373 261 448 q 167 222 189 298 q 144 72 144 146 q 144 44 144 59 q 147 17 144 30 q 156 -6 150 4 q 174 -15 161 -15 q 217 -1 198 -15 q 259 13 235 13 q 290 2 270 13 q 309 -39 309 -9 q 284 -92 309 -74 q 222 -115 259 -109 q 120 -98 161 -115 q 56 -53 80 -81 q 22 16 31 -24 q 13 102 13 56 q 21 199 13 150 q 41 287 30 248 q 61 351 52 326 q 70 378 70 376 q 119 486 87 422 q 194 622 152 550 q 288 770 237 694 q 394 913 339 846 q 463 936 431 922 q 515 963 494 950 q 557 994 539 978 q 511 978 533 985 q 472 967 489 970 q 433 957 452 959 q 322 930 372 941 q 235 919 272 919 q 160 942 187 919 q 133 1017 133 965 q 142 1062 133 1039 q 162 1103 150 1085 q 189 1131 174 1120 q 219 1143 204 1143 q 238 1125 233 1143 q 244 1106 243 1107 q 346 1031 265 1031 q 450 1049 389 1031 q 593 1094 511 1067 q 611 1101 598 1098 q 633 1104 624 1104 q 669 1094 650 1104 q 694 1043 687 1083 z "},"2":{"ha":656,"x_min":-246,"x_max":619,"o":"m 409 194 q 428 198 420 198 q 480 166 456 198 q 498 87 504 133 q 469 18 494 56 q 390 -54 443 -20 q 253 -109 337 -87 q 48 -131 169 -131 q -40 -131 11 -131 q -136 -122 -91 -130 q -214 -100 -181 -115 q -243 -59 -246 -85 q -229 -21 -239 -37 q -209 0 -219 -6 q 113 321 -15 172 q 319 590 241 470 q 431 794 396 709 q 470 922 465 878 q 468 969 474 952 q 452 994 461 985 q 433 1003 443 1002 q 424 1004 424 1004 q 399 996 411 1004 q 376 981 387 989 q 352 965 365 972 q 322 957 339 957 q 293 970 309 957 q 280 1011 276 983 q 288 1041 281 1024 q 311 1072 294 1057 q 358 1096 328 1087 q 439 1106 389 1106 q 500 1094 467 1106 q 560 1055 533 1081 q 603 984 587 1028 q 611 878 619 941 q 599 819 607 852 q 576 744 591 785 q 506 613 554 683 q 396 470 457 543 q 267 328 335 398 q 135 197 198 257 q 20 89 72 137 q -61 13 -31 41 q -100 -24 -61 9 q 51 -17 -22 -24 q 186 10 124 -9 q 296 62 248 30 q 372 144 344 94 q 383 167 376 157 q 394 183 389 176 q 409 194 400 191 z "},"3":{"ha":820,"x_min":-87,"x_max":763,"o":"m 754 404 q 742 342 750 376 q 717 269 733 307 q 674 187 700 230 q 607 102 648 144 q 574 70 607 104 q 479 -5 541 37 q 328 -81 417 -46 q 130 -117 239 -117 l 131 -117 q 22 -95 65 -117 q -45 -44 -20 -74 q -79 22 -70 -13 q -83 83 -87 57 q -69 135 -80 111 q -46 178 -57 159 q -26 206 -35 196 q -17 217 -17 217 q 46 243 9 243 q 86 225 72 243 q 96 187 100 207 q 82 156 94 169 q 56 135 70 144 q 31 116 43 126 q 17 91 19 106 q 18 67 15 80 q 34 42 20 54 q 76 21 48 30 q 152 13 104 13 q 251 31 193 13 q 374 85 309 50 q 411 109 376 87 q 490 174 446 131 q 573 281 533 217 q 624 430 613 344 q 619 498 628 465 q 587 557 609 531 q 520 515 565 533 q 426 496 476 496 q 352 525 369 496 q 339 583 335 554 q 350 606 343 598 q 363 613 357 613 q 381 604 369 613 q 409 594 394 594 q 477 621 444 594 q 537 691 509 648 q 583 786 565 733 q 609 893 602 839 q 609 950 613 928 q 598 984 606 972 q 582 1001 591 996 q 569 1006 574 1006 q 540 998 552 1006 q 516 982 528 991 q 492 967 504 974 q 463 959 480 959 q 433 972 450 959 q 420 1013 417 985 q 437 1054 424 1033 q 470 1083 450 1074 q 502 1094 483 1089 q 536 1103 517 1098 q 578 1107 556 1107 q 640 1095 606 1107 q 701 1056 674 1083 q 743 985 728 1030 q 750 878 757 941 q 728 778 744 835 q 709 725 724 765 q 665 643 694 685 q 737 537 711 594 q 754 404 763 480 z "},"4":{"ha":893,"x_min":-41,"x_max":950,"o":"m 946 1013 q 949 1000 948 1006 q 950 985 950 994 q 918 906 950 952 q 835 800 885 859 q 725 668 785 741 q 611 509 665 594 q 625 510 619 509 q 639 511 631 511 q 661 506 648 511 q 674 480 674 502 q 643 428 674 443 q 570 407 611 413 q 511 396 539 400 q 463 389 483 393 q 420 383 439 385 q 443 378 431 380 q 466 375 452 376 q 498 374 480 374 q 518 374 507 374 q 537 376 528 374 q 478 222 500 298 q 456 70 456 146 q 456 43 456 57 q 458 15 456 28 q 467 -6 461 2 q 485 -15 472 -15 q 529 -1 511 -15 q 572 13 546 13 q 602 2 583 13 q 620 -39 620 -9 q 595 -92 620 -74 q 533 -115 570 -109 q 431 -98 472 -115 q 367 -53 391 -81 q 333 16 343 -24 q 324 100 324 56 q 333 202 324 152 q 354 293 343 252 q 374 357 365 333 q 383 380 383 381 q 349 370 370 372 q 306 369 328 369 q 45 409 131 369 q -41 543 -41 450 q -26 603 -41 574 q 11 646 -11 631 q 181 785 104 730 q 322 889 257 841 q 613 1056 489 1009 q 824 1104 737 1104 q 855 1101 837 1104 q 890 1089 872 1098 q 923 1062 907 1080 q 946 1013 939 1044 m 437 496 q 491 601 457 543 q 569 721 524 659 q 668 847 613 783 q 787 970 722 911 q 626 925 713 961 q 448 837 539 889 q 268 722 357 785 q 100 596 178 659 q 190 517 115 539 q 376 494 265 494 q 406 494 391 494 q 437 496 422 494 z "},"5":{"ha":865,"x_min":-130,"x_max":946,"o":"m 859 1270 q 919 1221 891 1252 q 946 1139 946 1191 q 916 1066 946 1096 q 832 1016 885 1035 q 707 987 780 996 q 552 978 635 978 q 493 980 522 978 q 456 989 463 981 q 422 994 441 989 q 352 1020 389 1000 q 372 998 359 1007 q 397 980 381 989 q 433 965 413 970 q 368 899 413 944 q 267 789 322 854 q 396 739 326 770 q 527 660 467 707 q 628 550 587 613 q 669 404 669 487 q 633 226 669 304 q 561 102 598 148 q 531 70 561 104 q 445 -5 502 37 q 305 -81 389 -46 q 111 -117 220 -117 l 113 -117 q -4 -94 43 -117 q -78 -42 -50 -72 q -118 23 -106 -11 q -130 81 -130 57 q -122 134 -130 109 q -105 178 -115 159 q -86 206 -94 196 q -78 217 -78 217 q -51 236 -69 230 q -17 243 -33 243 q 25 225 9 243 q 41 187 41 207 q 30 156 41 169 q 6 135 19 144 q -17 116 -6 126 q -28 91 -28 106 q -23 68 -28 81 q -4 42 -19 54 q 40 21 11 30 q 119 13 69 13 q 216 31 161 13 q 330 85 270 50 q 361 106 330 85 q 431 170 393 128 q 503 278 470 213 q 535 430 535 343 q 505 528 535 483 q 427 608 474 572 q 322 671 380 644 q 211 719 265 698 q 124 756 146 741 q 102 806 102 772 q 119 866 102 833 q 163 931 137 898 q 217 992 189 963 q 267 1043 244 1020 q 282 1056 270 1046 q 315 1077 294 1067 q 362 1095 335 1087 q 422 1104 389 1104 q 444 1102 433 1102 q 465 1102 454 1102 q 601 1106 539 1102 q 709 1125 663 1111 q 781 1163 756 1139 q 807 1228 807 1187 l 807 1243 q 812 1265 807 1254 q 835 1276 817 1276 q 859 1270 848 1276 z "},"6":{"ha":756,"x_min":-204,"x_max":756,"o":"m 674 1020 q 728 955 711 987 q 750 894 744 922 q 753 841 756 865 q 744 800 750 817 q 726 763 737 780 q 672 735 706 735 q 628 751 648 735 q 604 789 607 767 q 607 821 600 809 q 626 844 615 833 q 645 864 637 854 q 650 891 654 874 q 644 908 650 896 q 623 932 639 920 q 578 955 607 944 q 498 965 548 965 q 293 894 398 965 q 93 657 187 824 q 23 630 50 650 q -20 589 -4 609 q -50 535 -41 565 q 19 596 -19 576 q 70 620 56 617 q 193 639 131 639 q 294 626 246 639 q 385 593 341 613 q 440 560 409 580 q 499 510 470 541 q 551 437 528 480 q 587 337 574 394 q 589 190 604 256 q 538 74 574 124 q 450 -12 502 24 q 341 -71 398 -48 q 225 -106 283 -94 q 119 -117 167 -117 q -21 -93 35 -117 q -114 -31 -78 -69 q -169 50 -150 6 q -194 137 -187 94 q -200 195 -196 148 q -199 313 -204 243 q -175 471 -194 383 q -111 652 -156 559 q 7 836 -67 744 q 198 1006 81 928 q 318 1066 246 1037 q 469 1094 389 1094 q 562 1084 515 1094 q 670 1024 609 1074 q 674 1020 670 1024 m 4 417 q -19 366 -6 400 q -44 289 -33 331 q -57 196 -54 246 q -52 100 -61 146 q -3 7 -39 41 q 104 -26 33 -26 q 252 6 187 -26 q 357 76 317 37 q 437 164 407 122 q 481 242 467 206 q 496 308 494 278 q 493 365 498 339 q 462 439 483 407 q 417 491 441 470 q 357 533 389 515 q 222 565 283 565 q 86 519 139 565 q 4 417 33 472 z "},"7":{"ha":989,"x_min":26,"x_max":1057,"o":"m 1056 985 q 1056 980 1056 981 q 1057 974 1057 978 q 1044 920 1057 954 q 983 861 1031 887 q 596 594 772 733 q 446 467 520 535 q 310 326 372 398 q 203 177 248 254 q 141 24 157 100 q 144 0 141 7 q 163 -7 148 -7 q 202 -1 183 -7 q 233 6 220 6 q 263 -2 246 6 q 280 -37 280 -9 q 246 -94 280 -74 q 180 -115 213 -115 q 107 -102 137 -115 q 60 -68 78 -89 q 34 -21 43 -46 q 26 28 26 4 q 55 153 26 85 q 118 278 83 220 q 181 374 152 335 q 213 415 211 413 q 311 526 248 461 q 452 661 374 591 q 615 801 530 731 q 783 926 700 870 q 843 944 813 937 q 894 954 872 950 q 944 957 920 957 q 835 970 883 965 q 744 979 787 976 q 658 983 700 981 q 572 985 617 985 q 352 957 441 985 q 252 856 263 930 q 250 846 250 854 q 247 831 250 839 q 237 816 244 822 q 215 809 230 809 q 185 819 200 809 q 157 844 170 828 q 136 880 144 859 q 128 920 128 900 q 156 999 128 965 q 233 1057 183 1033 q 354 1094 283 1081 q 507 1107 424 1107 q 721 1084 602 1107 q 1011 1026 841 1061 q 1056 991 1044 1026 l 1056 985 z "},"8":{"ha":872,"x_min":-204,"x_max":765,"o":"m 681 1019 q 723 965 702 998 q 752 883 744 931 q 742 755 765 811 q 677 657 719 698 q 581 593 635 617 q 476 559 526 569 q 507 533 487 550 q 549 489 528 517 q 589 424 570 461 q 615 337 607 387 q 589 128 635 215 q 465 -13 543 41 q 294 -92 387 -67 q 130 -117 202 -117 q -14 -93 44 -117 q -110 -32 -72 -69 q -168 48 -148 4 q -194 135 -187 93 q -201 226 -204 181 q -193 306 -198 270 q -174 383 -185 346 q -97 519 -144 469 q 1 597 -50 570 q 100 632 52 624 q 180 641 148 641 q 197 640 189 641 q 211 639 206 639 q 186 689 194 663 q 174 739 178 715 q 169 801 167 780 q 174 852 170 822 q 182 884 174 846 q 221 971 191 922 q 312 1061 252 1020 q 476 1102 372 1102 q 591 1079 537 1102 q 681 1019 644 1056 m 583 1030 q 555 1041 569 1037 q 520 1044 541 1044 q 436 1019 483 1044 q 337 917 389 994 q 306 848 319 883 q 287 781 294 817 q 287 709 280 744 q 315 648 293 678 q 387 619 337 619 q 462 637 411 619 q 561 693 513 656 q 643 787 609 730 q 663 920 676 844 q 645 970 657 950 q 619 1004 633 991 q 585 1028 602 1019 q 583 1030 585 1028 m 498 228 q 520 365 533 302 q 493 439 513 407 q 450 491 472 470 q 394 533 424 515 q 323 557 357 550 q 259 565 289 565 q 122 519 178 565 q 33 417 67 472 q 10 367 24 400 q -17 290 -4 333 q -35 196 -30 246 q -33 100 -41 146 q 11 7 -24 41 q 117 -26 46 -26 q 270 6 204 -26 q 385 82 337 39 q 461 168 433 126 q 498 228 489 209 z "},"9":{"ha":824,"x_min":-230,"x_max":731,"o":"m 622 1022 q 688 933 665 983 q 720 837 711 883 q 728 764 724 815 q 723 643 731 713 q 693 488 715 572 q 625 315 670 404 q 506 138 580 226 q 324 -28 433 50 q 205 -88 276 -59 q 52 -117 133 -117 q 6 -116 30 -117 q -41 -107 -17 -115 q -90 -85 -65 -100 q -141 -44 -115 -70 q -143 -44 -143 -44 q -144 -43 -143 -43 q -199 23 -181 -9 q -224 85 -217 56 q -226 136 -230 113 q -217 178 -222 159 q -200 217 -209 198 q -176 236 -191 230 q -144 243 -161 243 q -100 225 -117 243 q -78 187 -83 207 q -83 156 -76 169 q -101 135 -91 144 q -119 116 -111 126 q -122 91 -126 106 q -116 69 -122 81 q -92 44 -109 56 q -44 22 -74 31 q 33 13 -15 13 q 237 86 135 13 q 430 320 339 159 q 506 344 478 326 q 550 381 535 361 q 574 431 569 404 q 538 400 559 413 q 496 378 517 387 q 450 359 474 367 q 388 344 419 348 q 326 339 357 339 q 137 385 220 339 q 81 419 111 398 q 21 469 50 439 q -31 541 -7 498 q -69 641 -56 583 q -74 727 -76 680 q -56 828 -72 774 q 9 933 -30 889 q 83 1004 48 978 q 86 1005 85 1004 q 89 1006 87 1006 q 143 1042 111 1024 q 211 1074 174 1059 q 261 1089 233 1081 q 316 1100 285 1094 q 383 1106 346 1106 q 501 1088 439 1106 q 622 1022 563 1070 m 580 765 q 580 824 581 796 q 572 878 578 852 q 524 971 561 939 q 415 1004 487 1004 q 269 972 333 1004 q 161 904 204 941 q 82 815 111 856 q 40 738 54 774 q 24 671 26 702 q 28 615 22 641 q 59 540 37 572 q 106 487 81 507 q 167 444 133 461 q 294 413 235 413 q 432 459 378 413 q 519 563 487 506 q 551 640 530 585 q 578 765 572 694 l 580 765 z "},"\u0000":{"ha":0,"x_min":0,"x_max":0,"o":""},"\r":{"ha":463,"x_min":0,"x_max":0,"o":""}," ":{"ha":463,"x_min":0,"x_max":0,"o":""},"e":{"ha":544,"x_min":-39,"x_max":609,"o":"m 594 365 q 605 337 609 357 q 593 302 600 317 q 474 144 541 213 q 409 88 444 115 q 332 40 374 61 q 243 8 291 19 q 141 2 194 -2 q 8 51 46 9 q -33 152 -30 93 q -24 269 -39 213 q 11 367 -9 324 q 51 435 31 409 q 74 467 70 461 q 220 599 143 561 q 357 626 298 637 q 388 616 369 624 q 425 587 407 607 q 452 530 443 567 q 448 433 461 493 q 441 403 444 419 q 430 370 437 387 q 386 301 415 335 q 304 244 357 267 q 217 230 259 224 q 150 248 174 235 q 156 196 148 220 q 175 156 161 176 q 220 126 189 135 q 297 119 263 113 q 357 141 331 126 q 413 180 387 156 q 485 258 448 211 q 544 343 522 306 q 557 359 550 352 q 574 368 565 365 q 594 365 583 370 m 170 320 q 266 354 230 331 q 315 385 302 376 q 349 419 337 404 q 369 448 361 435 q 378 474 376 463 q 378 491 380 483 q 370 511 378 506 q 357 519 363 517 q 354 520 356 520 q 321 519 341 524 q 280 498 302 515 q 302 504 291 502 q 320 506 311 506 q 337 504 330 507 q 307 488 322 498 q 281 469 293 478 q 256 443 267 457 q 224 407 239 428 q 196 369 211 391 q 170 320 181 346 z "},"f":{"ha":396,"x_min":-185,"x_max":676,"o":"m 659 969 q 667 954 663 961 q 673 937 670 946 q 676 917 676 928 q 668 881 676 900 q 635 844 659 863 q 500 733 572 800 q 362 589 439 676 q 206 383 285 502 q 267 353 228 357 q 333 348 306 348 q 407 360 370 348 q 483 372 444 372 q 505 366 493 372 q 517 341 517 359 q 494 307 517 320 q 440 287 472 294 q 369 276 407 280 q 300 272 331 272 q 269 273 285 272 q 237 276 252 274 q 252 139 252 202 q 228 -40 252 44 q 165 -188 204 -124 q 78 -290 126 -252 q -17 -328 30 -328 q -98 -310 -67 -328 q -147 -271 -130 -293 q -171 -231 -165 -250 q -178 -211 -178 -213 q -183 -179 -181 -196 q -185 -144 -185 -161 q -162 1 -185 -76 q -105 153 -139 78 q -30 295 -70 228 q 46 415 11 363 q 181 613 107 515 q 330 789 244 696 q 515 956 415 881 q 544 972 528 965 q 575 985 559 980 q 609 991 591 991 q 637 986 624 991 q 659 969 650 981 m 156 56 q 161 126 161 89 q 156 210 161 169 q 144 283 150 252 q 43 67 74 167 q 11 -87 11 -33 q 20 -130 11 -120 q 8 -133 15 -133 q -2 -133 2 -133 q -25 -130 -15 -133 q -43 -122 -35 -126 q -57 -109 -50 -117 q -51 -134 -57 -124 q -35 -148 -44 -144 q -13 -156 -26 -156 q -6 -156 -9 -156 q 0 -157 -4 -157 q 100 -106 65 -157 q 156 56 135 -56 z "},"g":{"ha":611,"x_min":-146,"x_max":683,"o":"m 670 302 q 646 262 667 296 q 592 182 626 228 q 513 92 557 137 q 419 22 469 46 q 420 -12 420 6 q 420 -48 420 -30 q 415 -157 420 -102 q 437 -159 426 -159 q 459 -159 448 -159 q 530 -152 496 -159 q 587 -126 563 -144 q 593 -122 589 -124 q 598 -119 596 -120 q 604 -117 600 -117 q 613 -130 613 -119 q 606 -180 613 -152 q 581 -232 598 -207 q 536 -274 565 -257 q 467 -291 507 -291 q 402 -285 433 -291 q 346 -272 370 -280 q 307 -258 322 -265 q 291 -250 293 -252 q 331 -282 306 -270 q 378 -302 356 -294 q 349 -351 369 -320 q 295 -410 330 -381 q 210 -460 261 -439 q 89 -481 159 -481 q -36 -458 11 -481 q -107 -403 -83 -435 q -139 -336 -131 -370 q -146 -280 -146 -302 q -126 -192 -146 -228 q -73 -133 -106 -156 q -1 -101 -41 -111 q 78 -91 39 -91 q 115 -93 102 -91 q 143 -98 128 -94 q 183 -110 157 -102 q 263 -131 209 -119 q 270 -56 269 -94 q 272 22 272 -17 q 270 86 272 54 q 267 148 269 119 q 225 90 250 117 q 170 43 200 63 q 109 11 141 22 q 48 0 78 0 q -30 37 -6 0 q -54 133 -54 74 q -30 271 -54 194 q 43 426 -6 348 q 182 579 106 530 q 324 628 259 628 q 409 597 381 628 q 443 543 437 567 q 463 568 450 554 q 492 594 476 581 q 525 617 507 607 q 559 626 543 626 q 605 609 591 626 q 619 570 619 593 q 578 469 619 524 q 537 411 567 452 q 478 323 507 370 q 425 231 448 276 q 402 163 402 187 q 420 139 402 139 q 466 160 439 139 q 521 212 493 181 q 577 278 550 243 q 622 343 604 313 q 631 354 626 348 q 642 362 635 357 q 657 367 648 367 q 683 343 683 367 q 679 322 683 333 q 670 302 674 311 m 46 -326 q 63 -330 56 -330 q 80 -330 70 -330 q 146 -315 117 -330 q 196 -280 176 -300 q 237 -228 219 -257 q 156 -188 194 -207 q 65 -169 117 -169 q 34 -171 50 -169 q 4 -182 19 -174 q -20 -206 -11 -191 q -30 -246 -30 -222 q -17 -290 -30 -265 q 46 -326 -4 -315 m 309 344 q 327 374 317 356 q 347 412 337 393 q 364 450 357 431 q 370 481 370 469 q 348 506 370 506 q 317 495 333 506 q 285 474 300 485 q 250 443 267 459 q 185 368 215 407 q 135 290 156 328 q 103 220 115 252 q 91 170 91 189 q 102 152 91 152 q 144 168 119 152 q 199 210 170 183 q 256 271 228 237 q 309 344 285 306 z "},"h":{"ha":665,"x_min":-31,"x_max":726,"o":"m 715 365 q 726 343 726 357 q 721 322 726 333 q 713 302 717 311 q 678 244 707 293 q 603 142 648 196 q 498 44 557 87 q 374 0 439 0 q 328 17 348 4 q 295 50 309 28 q 281 113 281 72 q 306 214 281 152 q 358 333 330 276 q 412 432 387 391 q 439 474 437 474 q 446 486 443 478 q 454 504 450 494 q 459 491 457 498 q 461 478 461 483 q 460 472 461 474 q 459 467 459 470 l 459 461 q 470 502 470 485 q 459 526 470 519 q 448 530 454 530 q 387 495 430 530 q 294 403 344 461 q 192 268 243 344 q 106 104 141 191 q 130 59 113 72 q 146 37 146 46 q 119 8 146 17 q 72 0 93 0 q -10 45 11 0 q -31 152 -31 91 q -25 233 -31 194 q -13 296 -19 272 q 96 583 26 461 q 237 789 167 706 q 409 956 319 885 q 439 972 422 965 q 469 985 454 980 q 504 991 485 991 q 522 989 511 991 q 544 980 533 987 q 561 957 554 972 q 569 917 569 943 q 561 881 569 900 q 530 844 554 863 q 350 670 433 763 q 279 584 315 631 q 212 486 243 537 q 156 380 181 435 q 119 269 131 324 q 156 331 135 298 q 200 400 176 363 q 293 513 244 463 q 386 591 335 556 q 491 626 437 626 q 570 595 543 626 q 598 524 598 565 q 589 467 598 496 q 568 409 580 437 q 543 359 556 381 q 522 324 530 337 q 483 257 500 289 q 456 204 469 231 q 444 159 444 176 q 465 139 444 139 q 510 160 483 139 q 566 212 537 181 q 621 278 594 243 q 667 343 648 313 q 676 356 670 348 q 685 364 680 359 q 700 369 691 369 q 715 365 704 369 z "},"i":{"ha":339,"x_min":-80,"x_max":478,"o":"m -74 156 q -80 111 -80 130 q -66 49 -80 70 q -33 17 -52 28 q 13 0 -13 4 q 99 20 56 0 q 183 72 143 41 q 259 141 224 104 q 322 212 294 178 q 368 271 350 246 q 389 302 385 296 q 397 321 393 311 q 402 341 402 331 q 395 359 402 350 q 376 369 389 369 q 360 364 367 369 q 350 356 354 359 q 341 343 344 348 q 292 278 324 313 q 223 212 259 243 q 155 160 187 181 q 106 139 122 139 q 85 159 85 139 q 108 229 85 183 q 161 321 131 274 q 219 410 191 369 q 261 469 248 452 q 293 522 281 496 q 304 570 304 548 q 290 609 304 593 q 244 626 276 626 q 196 610 219 626 q 156 576 174 594 q 115 526 135 554 q 33 400 70 463 q -30 281 2 346 q -74 156 -61 215 m 319 661 q 311 665 319 661 q 295 677 304 669 q 280 701 287 685 q 272 739 272 717 q 285 788 272 759 q 318 844 298 817 q 360 890 337 870 q 406 909 383 909 q 437 900 424 909 q 459 877 450 891 q 473 846 469 863 q 478 817 478 830 q 458 769 478 796 q 414 719 439 743 q 365 677 389 694 q 330 659 341 659 q 319 661 322 659 z "},"j":{"ha":330,"x_min":-489,"x_max":480,"o":"m 422 907 q 465 870 450 896 q 480 817 480 844 q 460 769 480 796 q 416 719 441 743 q 367 677 391 694 q 331 659 343 659 q 320 661 324 659 q 296 676 306 667 q 281 699 287 685 q 274 735 274 713 q 286 785 274 756 q 318 843 298 815 q 361 890 337 870 q 407 909 385 909 q 422 907 417 909 m 376 365 q 389 341 389 357 q 384 321 389 331 q 376 302 380 311 q 345 256 372 296 q 277 167 319 217 q 183 70 235 117 q 78 7 131 24 l 78 -6 q 79 -22 78 -13 q 80 -43 80 -31 q 78 -94 80 -65 q 72 -157 76 -124 q 94 -159 83 -159 q 115 -159 106 -159 q 187 -152 154 -159 q 244 -126 220 -144 q 250 -122 246 -124 q 256 -119 254 -120 q 261 -117 257 -117 q 269 -130 269 -119 q 261 -180 269 -152 q 237 -232 254 -207 q 193 -274 220 -257 q 122 -291 165 -291 q 60 -285 91 -291 q 5 -273 30 -280 q -36 -260 -20 -267 q -54 -250 -52 -254 q -13 -282 -39 -270 q 35 -302 13 -294 q 6 -351 26 -320 q -49 -410 -15 -381 q -134 -460 -83 -439 q -256 -481 -185 -481 q -377 -459 -331 -481 q -447 -406 -422 -437 q -481 -342 -472 -376 q -489 -285 -489 -307 q -469 -196 -489 -233 q -418 -135 -450 -159 q -345 -101 -385 -111 q -267 -91 -306 -91 q -230 -92 -243 -91 q -201 -97 -217 -93 q -159 -110 -185 -102 q -81 -131 -133 -119 q -77 -71 -78 -104 q -74 -13 -76 -39 q -72 48 -72 19 q -66 143 -72 98 q -50 219 -59 187 q -26 287 -41 256 q 20 377 -6 333 q 67 454 46 420 q 117 526 91 493 q 157 576 137 554 q 198 610 176 594 q 246 626 220 626 q 292 609 278 626 q 306 570 306 593 q 294 522 306 548 q 263 469 283 496 q 221 410 250 452 q 163 321 193 369 q 110 229 133 274 q 87 159 87 183 q 107 139 87 139 q 155 160 124 139 q 218 212 185 181 q 281 278 250 243 q 328 343 311 313 q 337 356 331 348 q 346 364 341 359 q 361 369 352 369 q 376 365 365 369 m -296 -326 q -280 -330 -287 -330 q -263 -330 -272 -330 q -197 -315 -226 -330 q -148 -280 -169 -300 q -107 -228 -126 -257 q -189 -188 -150 -207 q -280 -169 -228 -169 q -309 -171 -293 -169 q -340 -182 -326 -174 q -364 -206 -354 -191 q -374 -246 -374 -222 q -361 -289 -374 -263 q -296 -326 -348 -315 z "},"k":{"ha":656,"x_min":-24,"x_max":733,"o":"m 720 365 q 733 343 733 357 q 729 321 733 331 q 720 302 724 311 q 622 150 676 217 q 515 46 576 93 q 383 0 454 0 q 293 17 328 0 q 236 60 257 33 q 207 119 215 87 q 200 183 200 152 q 205 241 200 213 q 215 289 209 269 q 156 179 180 235 q 124 69 131 122 q 143 53 131 57 q 154 37 154 48 q 145 20 154 28 q 125 8 137 13 q 100 2 113 4 q 78 0 87 0 q -4 44 17 0 q -24 148 -24 89 q -18 231 -24 191 q -6 296 -11 272 q 41 450 13 378 q 102 583 69 522 q 171 695 135 644 q 243 789 207 746 q 415 956 324 885 q 444 972 428 965 q 475 985 459 980 q 509 991 491 991 q 528 989 517 991 q 550 980 539 987 q 569 957 561 972 q 576 917 576 943 q 568 881 576 900 q 535 844 559 863 q 354 667 437 761 q 282 579 319 626 q 215 480 246 531 q 159 372 183 428 q 122 259 135 317 q 158 324 137 289 q 206 400 180 359 q 298 515 250 465 q 390 594 339 557 q 493 631 441 631 q 559 609 526 631 q 581 587 572 600 q 598 559 591 576 q 606 517 606 543 q 589 443 606 487 q 531 361 569 398 q 446 299 500 330 q 313 257 393 269 q 306 256 309 257 q 298 256 302 256 q 274 258 287 256 q 250 269 261 261 q 263 254 256 261 q 281 244 270 248 q 306 239 291 239 q 319 223 313 239 q 337 189 326 207 q 368 155 348 170 q 420 139 387 139 q 512 169 467 139 q 594 238 557 200 q 651 307 630 276 q 672 343 672 339 q 681 356 676 348 q 692 364 685 359 q 707 369 698 369 q 720 365 709 369 m 461 526 q 454 528 459 528 q 419 513 441 528 q 368 472 396 498 q 307 411 339 446 q 246 335 276 376 q 351 387 309 359 q 416 439 393 415 q 449 481 439 463 q 461 504 459 500 q 462 510 461 507 q 463 517 463 513 q 461 526 463 524 z "},"l":{"ha":326,"x_min":-30,"x_max":574,"o":"m -11 296 q 98 583 28 461 q 239 789 169 706 q 411 956 320 885 q 467 983 441 974 q 513 992 489 993 q 556 969 537 991 q 570 928 567 948 q 566 887 574 909 q 531 844 557 865 q 324 637 415 748 q 247 535 285 589 q 180 422 209 481 q 131 300 150 363 q 111 174 113 237 q 115 152 111 159 q 133 141 119 144 q 167 146 146 137 q 208 180 187 157 q 250 230 230 202 q 290 287 270 257 q 324 343 309 317 q 339 359 331 352 q 355 368 346 365 q 372 365 363 370 q 385 335 391 356 q 372 302 380 315 q 267 135 322 206 q 216 78 243 106 q 159 31 189 50 q 99 4 130 11 q 39 6 69 -4 q -13 54 2 17 q -29 137 -28 91 q -23 227 -30 183 q -11 296 -17 270 z "},"m":{"ha":939,"x_min":-57,"x_max":1009,"o":"m 993 370 q 1005 342 1009 361 q 993 307 1000 322 q 973 277 989 304 q 932 213 957 250 q 873 134 907 176 q 801 57 839 93 q 720 1 763 22 q 637 -17 678 -20 q 581 6 604 -13 q 550 52 561 20 q 550 139 539 83 q 583 239 559 183 q 633 343 607 294 q 702 457 665 400 q 709 469 706 461 q 717 485 713 476 q 722 461 722 474 q 720 446 722 454 q 731 496 737 483 q 715 513 724 509 q 667 490 700 519 q 590 408 633 461 q 501 283 546 356 q 420 131 456 211 q 406 94 413 113 q 397 65 400 80 q 398 41 394 50 q 406 8 404 26 q 378 -15 407 -9 q 362 -17 369 -17 q 346 -17 356 -17 q 291 6 313 -13 q 258 52 270 20 q 257 139 246 83 q 292 239 267 183 q 343 343 317 294 q 411 457 374 400 q 419 469 415 461 q 426 487 422 478 q 431 461 431 480 q 430 446 431 454 q 441 483 441 470 q 437 503 441 496 q 428 511 433 509 q 420 513 422 513 q 360 476 402 515 q 269 371 319 437 q 172 219 220 306 q 94 43 124 133 q 106 33 102 35 q 111 31 107 33 q 115 20 115 28 q 106 6 113 11 q 89 -4 98 0 q 0 -11 43 -22 q -46 38 -35 0 q -55 122 -57 76 q -42 213 -52 169 q -22 283 -31 257 q 17 374 -4 331 q 54 448 37 417 q 93 515 74 483 q 154 584 119 552 q 237 611 189 617 q 283 562 285 604 q 244 472 281 520 q 213 424 230 450 q 181 371 198 402 q 144 304 163 341 q 167 340 156 322 q 191 378 178 357 q 300 519 243 461 q 352 564 324 543 q 408 597 380 585 q 467 609 437 609 q 526 593 496 609 q 564 552 554 578 q 570 494 574 526 q 625 549 594 522 q 687 592 656 576 q 752 609 719 607 q 819 593 785 611 q 861 530 857 570 q 853 446 865 489 q 819 366 841 404 q 787 309 798 328 q 739 228 759 265 q 713 168 722 196 q 715 130 704 139 q 759 137 730 117 q 824 194 789 157 q 892 272 859 230 q 944 348 924 315 q 957 365 950 357 q 973 373 965 370 q 993 370 981 376 z "},"n":{"ha":672,"x_min":-50,"x_max":739,"o":"m 722 365 q 734 336 739 356 q 720 302 730 317 q 704 273 719 298 q 665 214 689 248 q 609 140 641 180 q 541 68 578 100 q 463 16 504 35 q 381 0 422 -4 q 326 22 348 4 q 294 69 306 37 q 293 156 281 100 q 326 256 302 200 q 376 359 350 311 q 444 474 407 417 q 461 504 456 485 q 469 478 469 494 q 467 461 469 470 q 477 500 478 487 q 472 520 476 513 q 456 530 465 528 q 391 494 437 531 q 290 391 344 456 q 182 242 235 326 q 98 67 130 157 q 115 50 104 56 q 120 45 117 48 q 122 37 124 43 q 96 11 120 20 q 7 6 44 -7 q -39 55 -28 17 q -47 139 -50 93 q -33 230 -44 185 q -13 300 -22 274 q 24 391 4 348 q 61 465 44 433 q 100 531 81 500 q 128 569 113 550 q 161 601 143 587 q 200 622 180 615 q 246 626 220 630 q 291 579 293 620 q 252 489 289 537 q 215 431 235 463 q 179 369 198 406 q 139 291 159 331 q 170 344 154 317 q 207 400 187 370 q 326 539 265 483 q 381 583 352 563 q 440 615 409 604 q 501 626 470 626 q 561 609 531 626 q 604 546 600 587 q 595 462 607 506 q 562 381 583 419 q 530 324 541 343 q 483 243 504 280 q 456 182 467 211 q 457 144 446 154 q 500 149 472 131 q 560 198 528 167 q 622 269 593 230 q 672 343 652 309 q 685 359 678 352 q 702 368 693 365 q 722 365 711 370 z "},"o":{"ha":570,"x_min":-37,"x_max":519,"o":"m 419 461 q 498 425 478 461 q 519 348 519 389 q 518 335 519 341 q 517 324 517 330 q 511 287 515 307 q 485 200 506 252 q 417 100 459 144 q 321 32 380 63 q 178 2 263 2 q 75 17 117 2 q 8 55 33 31 q -27 108 -17 78 q -37 172 -37 139 q -37 187 -37 180 q -35 202 -37 194 q 22 390 -22 309 q 121 524 67 470 q 232 604 176 578 q 330 630 289 630 q 392 617 369 630 q 429 585 415 604 q 447 547 443 567 q 452 517 452 528 q 443 482 450 504 q 409 461 435 461 q 388 469 394 461 q 377 484 381 476 q 369 500 372 493 q 356 507 365 507 q 324 497 341 507 q 293 476 307 487 q 257 444 274 461 q 198 369 224 407 q 158 294 176 335 q 141 211 141 254 q 151 159 141 180 q 177 128 161 139 q 211 113 193 117 q 244 109 230 109 q 311 128 281 109 q 362 169 341 146 q 394 211 383 191 q 406 235 406 231 q 420 285 419 267 q 422 309 422 296 q 421 316 422 313 q 420 322 420 319 q 443 285 435 315 q 442 297 443 287 q 438 319 441 307 q 429 339 435 330 q 409 348 422 348 q 391 344 398 348 q 383 311 383 339 q 381 292 383 304 q 373 269 380 280 q 355 249 367 257 q 322 241 343 241 q 280 263 291 241 q 269 311 269 285 q 276 356 269 330 q 302 405 283 381 q 348 444 320 428 q 419 461 376 461 z "},"p":{"ha":702,"x_min":-344,"x_max":663,"o":"m 524 626 q 631 568 598 622 q 663 439 663 513 q 624 258 663 341 q 526 118 585 176 q 396 27 467 59 q 263 -6 326 -6 q 158 29 200 -6 q 117 124 117 63 q 140 202 117 161 q 219 280 163 243 q 231 285 224 281 q 261 293 246 293 q 292 281 274 293 q 309 243 309 269 q 298 208 309 226 q 275 176 287 191 q 252 148 263 161 q 241 126 241 135 q 259 115 241 115 q 297 124 274 115 q 348 152 320 133 q 405 200 376 170 q 459 269 433 230 q 493 330 478 298 q 516 386 506 356 q 526 444 526 417 q 513 490 526 470 q 469 509 500 509 q 350 463 424 509 q 202 334 276 417 q 70 140 128 252 q 2 -106 13 28 q 79 -99 57 -102 q 108 -95 100 -96 q 120 -94 117 -94 q 144 -93 124 -93 q 230 -105 191 -93 q 300 -137 269 -117 q 341 -178 322 -156 q 369 -228 356 -198 q 383 -294 383 -257 q 376 -351 383 -319 q 345 -413 369 -383 q 280 -463 322 -443 q 169 -483 237 -483 q 19 -454 78 -483 q -73 -385 -39 -424 q -122 -309 -107 -346 q -141 -256 -137 -272 q -90 -246 -117 -254 q -44 -219 -63 -239 q -81 -230 -44 -222 q -163 -237 -117 -237 q -262 -219 -226 -237 q -317 -175 -298 -202 q -340 -117 -335 -148 q -344 -57 -344 -85 q -333 -39 -344 -39 q -328 -41 -330 -39 q -322 -44 -326 -43 l -317 -50 q -247 -91 -291 -78 q -152 -107 -204 -104 q -127 22 -144 -41 q -93 135 -109 85 q -50 244 -72 193 q 29 394 -13 322 q 119 535 70 467 q 141 566 128 548 q 169 599 154 583 q 204 625 185 615 q 243 635 222 635 q 291 615 276 635 q 306 574 306 594 q 300 539 306 557 q 285 502 294 520 q 405 591 344 556 q 524 626 465 626 m 28 -200 q 20 -203 24 -202 q 13 -206 17 -204 q 50 -270 28 -243 q 101 -314 70 -294 q 176 -333 131 -333 q 231 -323 211 -333 q 259 -299 250 -313 q 271 -272 269 -285 q 274 -254 274 -259 q 262 -210 274 -226 q 232 -186 250 -194 q 196 -175 215 -178 q 165 -172 178 -172 q 94 -181 128 -172 q 28 -200 61 -189 z "},"q":{"ha":622,"x_min":-52,"x_max":700,"o":"m 620 -141 q 659 -181 641 -159 q 687 -231 674 -202 q 700 -294 700 -259 q 693 -349 700 -317 q 662 -411 685 -381 q 597 -462 639 -441 q 487 -483 556 -483 q 342 -455 400 -483 q 249 -388 283 -426 q 198 -312 215 -350 q 178 -256 181 -274 q 228 -246 202 -254 q 274 -219 254 -239 q 237 -229 274 -220 q 156 -237 200 -237 q 56 -219 93 -237 q 0 -175 19 -202 q -23 -117 -19 -148 q -28 -57 -28 -85 q -17 -39 -26 -39 q -11 -41 -13 -39 q -6 -44 -9 -43 l 0 -50 q 69 -91 26 -78 q 165 -107 113 -104 q 174 -39 169 -70 q 185 19 180 -7 q 200 72 193 48 q 125 20 165 41 q 48 0 85 0 q -28 37 -4 0 q -52 133 -52 74 q -28 271 -52 194 q 44 426 -4 348 q 184 579 107 530 q 324 628 261 628 q 409 597 381 628 q 443 543 437 567 q 463 568 450 554 q 492 594 476 581 q 525 617 507 607 q 561 626 543 626 q 606 610 593 626 q 620 570 620 594 q 609 522 620 548 q 578 469 598 496 q 536 410 565 452 q 478 321 507 369 q 425 229 448 274 q 402 159 402 183 q 422 139 402 139 q 466 160 439 139 q 522 212 493 181 q 579 278 552 243 q 622 343 606 313 q 631 356 626 348 q 642 364 635 359 q 657 369 648 369 q 685 344 685 369 q 680 321 685 333 q 670 302 674 309 q 656 278 670 300 q 621 221 643 256 q 569 148 600 187 q 505 77 539 109 q 432 22 470 44 q 357 0 394 0 q 339 4 346 0 l 331 7 q 324 -24 328 -7 q 319 -56 320 -39 q 319 -91 319 -74 q 318 -101 319 -94 q 320 -107 317 -107 q 371 -100 331 -107 q 459 -93 411 -93 q 548 -106 507 -93 q 620 -141 589 -119 m 111 152 q 173 188 130 152 q 261 275 217 224 q 339 382 306 326 q 372 481 372 439 q 350 506 372 506 q 319 495 335 506 q 287 474 302 485 q 252 443 269 459 q 193 372 220 411 q 144 296 165 333 q 110 226 122 259 q 98 174 98 193 q 111 152 98 154 m 502 -333 q 551 -320 533 -331 q 578 -296 569 -309 q 589 -271 587 -283 q 591 -254 591 -259 q 576 -209 591 -226 q 542 -184 561 -193 q 504 -174 522 -176 q 476 -172 485 -172 q 424 -177 450 -172 q 377 -188 398 -181 q 343 -200 356 -194 q 330 -206 330 -206 q 339 -228 330 -207 q 369 -271 348 -248 q 423 -314 391 -294 q 502 -333 456 -333 z "},"r":{"ha":430,"x_min":-226,"x_max":491,"o":"m 478 365 q 491 341 491 357 q 486 321 491 331 q 478 302 481 311 q 459 271 474 296 q 420 212 444 246 q 366 141 396 178 q 298 72 335 104 q 220 20 261 41 q 137 0 180 0 q 91 17 111 4 q 58 49 72 28 q 44 111 44 70 q 63 206 44 154 q 104 306 81 259 q 145 383 126 352 q 165 415 165 415 q 187 462 181 443 q 193 494 193 481 q 191 509 193 504 q 187 519 189 515 q 183 526 185 524 q 47 293 106 381 q -56 154 -11 204 q -131 86 -100 104 q -180 69 -161 69 q -206 75 -196 69 q -219 88 -215 81 q -225 100 -224 94 q -226 106 -226 106 q -209 130 -226 120 q -191 139 -202 135 q -137 175 -165 150 q -81 234 -109 200 q -27 307 -54 269 q 24 385 0 346 q 135 585 80 476 q 120 600 128 591 q 110 619 115 607 q 106 650 106 631 q 116 709 106 683 q 141 753 126 735 q 172 780 156 770 q 200 789 189 789 q 256 767 239 789 q 274 719 274 744 q 269 686 274 704 q 248 654 263 669 q 218 679 228 667 q 202 700 207 691 q 194 720 194 711 q 189 700 189 709 q 195 677 189 687 q 210 658 202 667 q 225 644 219 650 q 233 639 231 639 q 252 624 235 637 q 286 589 269 611 q 319 537 304 567 q 333 470 333 507 q 304 374 333 426 q 256 291 276 331 q 222 219 237 256 q 207 163 207 183 q 230 139 207 139 q 275 160 248 139 q 331 212 302 181 q 386 278 359 243 q 430 343 413 313 q 439 356 433 348 q 448 364 443 359 q 463 369 454 369 q 478 365 467 369 z "},"s":{"ha":387,"x_min":-200,"x_max":344,"o":"m 187 631 q 211 683 196 661 q 242 719 224 704 q 285 735 259 735 q 302 733 296 735 q 322 722 313 730 q 338 704 331 715 q 344 678 344 693 q 335 641 344 665 q 320 598 328 622 q 311 549 315 578 q 307 485 307 520 q 312 420 307 454 q 317 343 317 387 q 307 226 317 287 q 273 113 298 165 q 204 28 248 61 q 91 -6 159 -6 q 7 7 52 -6 q -33 24 -13 13 q -69 49 -50 33 q -102 89 -87 65 q -154 69 -133 69 q -180 75 -170 69 q -194 88 -189 81 q -199 100 -198 94 q -200 106 -200 106 q -191 125 -200 117 q -169 141 -181 133 q -142 155 -156 148 q -120 167 -128 161 q -116 212 -120 187 q -98 265 -111 237 q -67 315 -87 293 q -25 351 -50 335 q 37 369 0 367 q 127 520 87 446 q 187 631 167 594 m 98 150 q 135 166 120 150 q 157 206 150 181 q 168 261 165 231 q 170 319 170 291 q 169 387 170 369 q 167 412 169 406 q 164 420 165 419 q 163 439 163 422 q 136 394 148 415 q 111 354 124 374 q 136 333 124 346 q 148 298 148 320 q 137 283 148 283 q 119 290 124 283 q 102 296 115 296 q 59 269 81 296 q 37 204 37 243 q 51 167 37 183 q 98 150 65 150 z "},"t":{"ha":367,"x_min":-30,"x_max":1554,"o":"m 1550 846 q 1527 760 1554 793 q 1469 709 1500 728 q 1440 702 1454 700 q 1422 707 1426 704 q 1415 731 1415 715 l 1415 746 q 1369 825 1415 800 q 1247 856 1324 850 q 1069 851 1170 861 q 859 823 969 841 q 639 787 750 806 q 430 757 528 769 q 376 752 415 756 q 278 750 337 748 q 307 737 289 743 q 346 730 322 733 q 404 730 370 726 q 305 613 356 678 q 211 476 254 548 q 140 327 169 404 q 109 174 111 250 q 115 152 111 159 q 133 141 119 144 q 167 146 146 137 q 214 180 185 157 q 271 230 243 202 q 326 287 300 257 q 367 343 352 317 q 383 359 376 352 q 399 368 391 365 q 417 365 407 370 q 430 335 435 356 q 415 302 424 315 q 289 135 354 206 q 230 78 261 106 q 166 31 198 50 q 101 4 133 11 q 37 6 69 -4 q -14 54 0 17 q -29 137 -28 91 q -23 227 -30 183 q -11 296 -17 270 q 81 548 20 435 q 206 748 141 661 q 113 776 143 754 q 91 805 96 789 q 88 834 85 820 q 98 861 91 848 q 115 883 106 874 q 124 889 119 887 q 139 880 135 893 q 185 846 148 856 q 280 841 222 837 q 342 905 313 878 q 393 952 370 931 q 439 991 417 974 q 494 1020 469 1011 q 541 1029 517 1030 q 583 1006 565 1028 q 598 969 594 989 q 593 928 600 952 q 556 878 585 904 q 697 906 626 891 q 835 937 769 922 q 960 964 902 952 q 1063 981 1019 976 q 1249 994 1161 996 q 1403 973 1337 991 q 1507 923 1469 956 q 1550 846 1546 891 z "},"u":{"ha":676,"x_min":-46,"x_max":743,"o":"m 724 365 q 737 336 743 356 q 724 302 731 317 q 707 273 722 298 q 669 213 693 248 q 612 139 644 178 q 543 68 580 100 q 465 16 506 35 q 383 0 424 -4 q 335 17 356 4 q 303 51 317 28 q 291 117 289 74 q 191 31 244 65 q 76 0 137 -4 q 4 24 28 4 q -31 69 -20 44 q -44 131 -44 96 q -22 277 -46 206 q 30 406 2 348 q 104 531 63 472 q 132 569 117 550 q 166 601 148 587 q 205 622 183 615 q 250 626 226 630 q 294 579 296 620 q 256 489 293 537 q 180 369 213 426 q 129 269 152 320 q 109 183 106 217 q 83 202 93 191 q 69 224 74 213 q 59 250 61 237 q 68 201 57 220 q 92 170 78 181 q 119 154 106 159 q 137 148 133 148 q 213 168 172 139 q 290 240 254 196 q 356 329 326 283 q 404 402 387 374 q 428 443 415 422 q 485 526 452 480 q 530 580 507 557 q 574 615 550 600 q 624 626 598 630 q 661 607 650 622 q 672 570 672 593 q 661 522 672 548 q 631 469 650 496 q 584 401 617 448 q 519 302 552 354 q 468 205 487 250 q 461 144 448 159 q 502 147 474 130 q 561 197 530 165 q 624 269 593 230 q 676 343 656 309 q 689 359 681 352 q 705 368 696 365 q 724 365 713 370 z "},"v":{"ha":515,"x_min":-61,"x_max":535,"o":"m 480 628 q 522 585 509 620 q 525 494 535 550 q 478 368 515 439 q 369 219 441 296 q 272 130 324 172 q 168 56 228 93 q 43 0 107 20 q 9 1 22 -4 q -9 11 -4 6 q -41 45 -30 26 q -56 85 -52 65 q -61 124 -61 106 q -59 157 -61 143 q -21 291 -48 224 q 35 411 6 357 q 109 531 69 472 q 138 569 122 550 q 171 601 154 587 q 210 622 189 615 q 256 626 231 630 q 300 579 302 620 q 261 489 298 537 q 172 354 209 417 q 142 297 156 326 q 118 243 128 269 q 104 194 107 217 q 106 157 100 172 q 71 150 85 148 q 48 161 57 152 q 31 185 39 169 q 43 144 31 156 q 69 131 54 133 q 97 133 83 130 q 117 141 111 137 q 204 194 159 163 q 285 269 248 224 q 356 367 330 319 q 385 452 378 407 q 361 528 393 496 q 352 554 348 541 q 357 567 354 561 q 376 592 365 578 q 402 616 387 606 q 436 630 417 626 q 480 628 456 633 z "},"w":{"ha":835,"x_min":-44,"x_max":857,"o":"m 800 628 q 844 585 830 620 q 847 494 857 550 q 799 368 837 439 q 689 219 761 296 q 593 130 644 172 q 488 56 548 93 q 363 0 428 20 q 330 2 343 -4 q 311 11 317 7 q 275 55 285 30 q 261 106 265 80 q 175 26 222 57 q 76 0 128 -6 q 5 25 28 4 q -30 70 -19 46 q -43 131 -43 98 q -21 277 -44 206 q 30 406 2 348 q 104 531 63 472 q 132 569 117 550 q 166 601 148 587 q 205 622 183 615 q 250 626 226 630 q 294 579 296 620 q 256 489 293 537 q 156 324 193 398 q 127 262 139 293 q 110 207 115 231 q 111 167 106 183 q 137 148 117 150 q 205 175 170 143 q 269 254 239 207 q 322 348 298 300 q 363 424 346 396 q 390 468 378 448 q 411 502 402 487 q 431 531 422 519 q 459 569 444 550 q 492 601 474 587 q 531 622 509 615 q 576 626 552 630 q 620 579 622 620 q 581 489 619 537 q 493 352 530 417 q 462 295 476 324 q 438 241 448 267 q 424 193 428 215 q 426 156 420 170 q 370 161 391 141 q 354 185 361 169 q 368 141 354 152 q 398 130 381 130 q 441 143 419 130 l 443 144 q 528 195 485 165 q 607 269 570 226 q 676 367 650 319 q 706 452 698 407 q 681 528 713 496 q 672 554 669 541 q 678 567 674 561 q 696 592 685 578 q 722 616 707 606 q 756 630 737 626 q 800 628 776 633 z "},"x":{"ha":517,"x_min":-169,"x_max":561,"o":"m 548 593 q 561 546 561 569 q 555 510 561 528 q 538 479 548 493 q 517 456 528 465 q 496 448 506 448 q 469 456 485 448 q 439 463 454 463 q 386 448 413 463 q 336 413 359 433 q 294 370 313 393 q 263 333 274 348 q 228 295 256 324 q 159 243 200 267 q 196 256 178 248 q 230 274 211 263 q 265 300 248 285 q 266 273 265 285 q 269 246 267 261 q 274 209 269 237 q 291 152 280 181 q 318 99 302 122 q 354 76 333 76 q 362 74 356 76 q 369 61 369 72 q 357 33 369 46 q 331 9 346 20 q 299 -8 317 -2 q 270 -15 281 -15 q 224 3 244 -15 q 187 48 204 20 q 158 108 170 76 q 139 172 146 141 q 88 114 117 144 q 24 56 59 83 q -49 12 -11 30 q -126 -6 -87 -6 q -163 9 -152 -6 q -169 24 -169 17 q -160 58 -169 44 q -142 81 -152 72 q -123 93 -131 89 q -113 96 -115 96 q -35 148 -76 117 q 40 216 -2 174 q 119 317 81 257 q 116 358 117 339 q 115 396 115 378 q 117 476 115 431 q 130 559 119 520 q 163 625 141 598 q 228 652 185 652 q 266 630 254 652 q 278 570 278 607 q 278 556 278 561 q 277 544 278 550 q 274 529 276 539 q 270 500 272 519 q 387 595 331 567 q 483 624 443 624 q 548 593 531 624 z "},"y":{"ha":674,"x_min":-126,"x_max":735,"o":"m 722 302 q 694 256 719 296 q 631 165 670 215 q 543 69 593 115 q 439 6 493 22 l 439 -13 q 440 -33 439 -22 q 441 -59 441 -44 q 435 -157 441 -107 q 457 -159 446 -159 q 478 -159 469 -159 q 550 -152 517 -159 q 607 -126 583 -144 q 613 -122 609 -124 q 619 -119 617 -120 q 624 -117 620 -117 q 631 -130 631 -119 q 624 -180 631 -152 q 600 -232 617 -207 q 556 -274 583 -257 q 485 -291 528 -291 q 425 -285 456 -291 q 369 -273 394 -280 q 328 -260 344 -267 q 309 -250 311 -254 q 350 -282 324 -270 q 398 -302 376 -294 q 369 -351 389 -320 q 314 -410 348 -381 q 229 -460 280 -439 q 107 -481 178 -481 q -14 -459 31 -481 q -84 -406 -59 -437 q -118 -342 -109 -376 q -126 -285 -126 -307 q -106 -196 -126 -233 q -55 -135 -87 -159 q 18 -101 -22 -111 q 96 -91 57 -91 q 133 -92 120 -91 q 162 -97 146 -93 q 204 -110 178 -102 q 281 -131 230 -119 q 293 -60 291 -94 q 294 4 294 -26 q 294 48 294 28 q 291 83 293 69 q 287 115 289 102 q 194 33 244 67 q 85 0 143 0 q 10 19 37 0 q -29 60 -17 37 q -44 105 -41 83 q -46 130 -46 126 q -23 276 -46 204 q 28 406 0 348 q 79 497 56 463 q 102 531 102 531 q 157 595 126 565 q 231 626 189 626 q 291 578 291 626 q 254 489 291 537 q 180 374 213 430 q 129 276 152 326 q 106 191 106 226 q 116 158 106 170 q 150 146 126 146 q 222 177 185 146 q 294 249 259 207 q 357 333 330 291 q 402 402 385 376 q 429 445 415 424 q 456 485 443 467 q 483 526 470 506 q 524 576 504 554 q 565 610 543 594 q 611 626 587 626 q 656 609 643 626 q 670 570 670 593 q 630 469 670 524 q 588 409 617 450 q 529 321 559 369 q 475 229 498 274 q 452 159 452 183 q 472 139 452 139 q 518 160 491 139 q 573 212 544 181 q 629 278 602 243 q 674 343 656 313 q 683 356 678 348 q 693 364 687 359 q 707 369 698 369 q 728 360 720 369 q 735 343 735 352 q 731 321 735 331 q 722 302 726 311 m 67 -326 q 83 -330 76 -330 q 100 -330 91 -330 q 166 -315 137 -330 q 215 -280 194 -300 q 256 -228 237 -257 q 174 -188 213 -207 q 83 -169 135 -169 q 54 -171 70 -169 q 23 -182 37 -174 q -1 -206 9 -191 q -11 -246 -11 -222 q 2 -289 -11 -263 q 67 -326 15 -315 z "},"z":{"ha":380,"x_min":-226,"x_max":535,"o":"m 528 -117 q 535 -130 535 -119 q 528 -180 535 -152 q 504 -232 520 -207 q 458 -274 487 -257 q 389 -291 430 -291 q 324 -285 356 -291 q 269 -272 293 -280 q 230 -258 244 -265 q 213 -250 215 -252 q 253 -282 228 -270 q 302 -302 278 -294 q 269 -351 289 -320 q 217 -410 250 -381 q 132 -460 183 -439 q 9 -481 81 -481 q -112 -459 -67 -481 q -182 -406 -157 -437 q -216 -342 -207 -376 q -224 -285 -224 -307 q -219 -237 -224 -259 q -204 -200 -213 -215 q -181 -169 -194 -181 q -137 -130 -163 -148 q -81 -102 -115 -115 q -2 -89 -48 -89 q 34 -91 22 -89 q 62 -96 46 -93 q 105 -109 78 -100 q 185 -131 131 -119 q 196 -7 196 -65 q 182 118 196 65 q 152 207 169 170 q 109 280 131 250 q 104 287 106 281 q 98 307 98 294 q 119 348 98 326 q 182 432 167 398 q 198 487 198 467 q 191 517 198 506 q 183 526 187 522 q 46 293 106 381 q -57 154 -13 204 q -132 86 -102 104 q -181 69 -163 69 q -206 75 -196 69 q -219 88 -215 81 q -225 100 -224 94 q -226 106 -226 106 q -209 130 -226 120 q -193 139 -202 135 q -138 175 -167 150 q -81 234 -109 200 q -27 307 -54 269 q 24 385 0 346 q 135 585 81 476 q 120 600 128 591 q 110 619 115 607 q 106 650 106 631 q 116 709 106 683 q 141 753 126 735 q 172 780 156 770 q 200 789 189 789 q 256 767 239 789 q 274 719 274 744 q 265 678 274 698 q 231 639 256 657 q 280 594 259 619 q 313 542 298 572 q 328 469 328 511 q 327 449 328 459 q 324 430 326 439 q 300 380 317 402 q 263 340 285 359 q 204 311 241 320 q 272 219 241 274 q 319 98 298 170 q 341 -76 341 26 q 340 -117 341 -96 q 337 -157 339 -137 q 359 -159 348 -159 q 381 -159 370 -159 q 454 -152 420 -159 q 509 -126 487 -144 q 515 -122 511 -124 q 521 -119 519 -120 q 528 -117 524 -117 m 143 -250 q 149 -242 146 -246 q 156 -233 152 -237 q 159 -228 157 -230 q 156 -226 157 -226 q 75 -187 113 -206 q -13 -169 37 -169 q -44 -171 -28 -169 q -74 -182 -59 -174 q -98 -206 -89 -191 q -107 -246 -107 -222 q -104 -269 -107 -256 q -89 -297 -100 -283 q -56 -321 -78 -311 q 4 -331 -33 -331 q 90 -303 50 -331 q 143 -250 130 -274 z "},"A":{"ha":1957,"x_min":59,"x_max":2170,"o":"m 1796 0 q 1783 -4 1791 -2 q 1750 -6 1776 -6 q 1634 23 1676 -6 q 1574 96 1593 52 q 1555 195 1556 141 q 1563 304 1554 250 q 1309 287 1444 291 q 1210 290 1259 287 q 1115 300 1161 293 q 1167 282 1135 291 q 1243 269 1198 274 q 1028 116 1137 187 q 814 -6 919 44 q 611 -80 709 -56 q 430 -91 513 -104 q 281 -46 352 -80 q 220 -10 252 -31 q 161 42 189 11 q 110 113 133 72 q 72 207 87 154 q 63 293 59 252 q 82 360 67 326 q 143 413 98 394 q 228 424 187 430 q 297 394 263 420 q 350 304 331 369 q 354 263 356 283 q 343 229 352 246 q 311 202 333 211 q 276 200 289 193 q 255 221 263 207 q 243 250 246 235 q 237 274 239 265 q 220 309 233 291 q 187 328 207 328 q 178 309 180 328 q 182 262 176 291 q 206 200 189 233 q 254 136 222 167 q 331 82 285 106 q 444 54 378 59 q 564 69 496 50 q 710 122 631 87 q 876 206 789 157 q 1057 309 963 254 q 932 347 989 322 q 842 411 876 372 q 798 505 807 450 q 813 633 789 559 q 918 804 846 731 q 1081 927 989 876 q 1280 1011 1174 978 q 1487 1064 1385 1044 q 1680 1092 1589 1083 q 1831 1104 1770 1100 q 1898 1098 1869 1106 q 1943 1069 1924 1089 q 1956 1006 1961 1048 l 1956 1007 l 1956 1006 q 1983 1031 1970 1019 q 2011 1054 1996 1043 q 2065 1085 2039 1076 q 2111 1094 2087 1094 q 2152 1069 2135 1093 q 2167 1024 2163 1046 q 2162 980 2170 1004 q 2128 933 2154 956 q 1985 794 2056 869 q 1861 643 1926 730 q 1750 456 1796 556 q 1861 483 1815 472 q 1922 491 1907 494 q 1944 474 1941 487 q 1938 445 1946 461 q 1916 413 1930 430 q 1889 383 1902 396 q 1867 367 1880 374 q 1841 352 1856 359 q 1807 341 1826 344 q 1774 335 1793 337 q 1712 323 1746 330 q 1639 313 1678 317 q 1662 306 1648 309 q 1696 304 1676 304 q 1689 120 1676 207 q 1707 96 1693 100 q 1742 104 1724 93 q 1774 119 1759 115 q 1808 124 1789 124 q 1844 98 1828 124 q 1844 41 1861 72 q 1796 0 1828 9 m 1172 380 q 1378 524 1278 446 q 1567 683 1478 602 q 1727 850 1656 765 q 1844 1019 1798 935 q 1608 994 1728 1020 q 1380 924 1489 969 q 1181 821 1270 880 q 1034 701 1091 763 q 963 578 978 639 q 989 467 948 517 q 1068 408 1020 430 q 1172 380 1115 387 m 1613 487 q 1717 700 1648 581 q 1560 544 1646 626 q 1378 380 1474 463 q 1484 395 1431 385 q 1589 417 1537 406 q 1605 467 1598 448 q 1613 487 1611 485 z "},"B":{"ha":1102,"x_min":44,"x_max":1113,"o":"m 978 1054 q 1044 993 1015 1030 q 1092 909 1070 961 q 1113 780 1113 857 q 1089 647 1113 709 q 1024 538 1065 585 q 931 462 983 491 q 820 431 878 433 q 844 425 830 428 q 874 422 857 422 q 922 430 900 422 q 974 364 952 406 q 1000 254 996 322 q 973 119 1000 185 q 891 -1 946 52 q 750 -86 835 -54 q 548 -119 665 -119 q 305 -81 402 -119 q 150 19 207 -43 q 69 159 93 81 q 44 319 44 237 q 52 410 44 367 q 72 489 59 454 q 107 554 85 524 q 158 600 128 580 q 235 620 189 620 q 267 616 246 620 q 307 596 287 611 q 343 556 328 581 q 357 485 357 530 q 350 424 357 454 q 335 389 344 404 q 311 366 326 376 q 276 356 296 356 q 238 369 248 356 q 228 400 228 383 q 236 448 228 431 q 244 491 244 465 q 241 516 244 506 q 224 528 237 526 q 207 522 217 528 q 191 498 198 517 q 178 442 183 480 q 172 341 172 404 q 185 223 172 287 q 236 104 198 159 q 344 11 274 48 q 526 -26 413 -26 q 662 0 606 -26 q 756 68 719 26 q 810 161 793 109 q 828 265 828 213 q 814 357 828 313 q 772 433 800 402 q 739 440 757 435 q 703 454 720 444 q 669 475 685 463 q 646 502 654 487 q 616 398 628 454 q 600 278 604 343 q 599 266 600 278 q 591 238 598 254 q 569 209 583 222 q 528 196 556 196 q 471 216 491 196 q 452 289 452 235 q 472 430 452 356 q 532 579 493 504 q 631 724 572 654 q 767 852 689 794 q 791 867 778 859 q 815 877 802 872 q 841 881 828 881 q 875 865 865 881 q 885 833 885 848 q 877 806 885 819 q 857 787 869 794 q 796 735 828 767 q 738 668 770 709 q 678 572 706 626 q 717 566 693 569 q 772 563 741 563 q 856 575 811 563 q 937 617 900 587 q 999 694 974 646 q 1024 813 1024 743 q 975 937 1024 893 q 835 981 926 981 q 735 960 787 981 q 635 883 683 939 q 606 843 619 863 q 586 801 594 824 q 578 752 578 778 q 579 741 578 743 q 580 720 580 739 q 575 691 580 707 q 550 674 570 674 q 530 680 541 674 q 485 713 506 693 q 455 759 469 731 q 441 826 441 787 q 468 915 441 867 q 543 1005 494 963 q 657 1075 591 1046 q 804 1104 724 1104 q 891 1092 846 1104 q 978 1054 935 1080 z "},"C":{"ha":1072,"x_min":181,"x_max":1187,"o":"m 1117 369 q 1139 348 1139 369 q 1133 330 1139 337 q 1033 205 1102 280 q 869 59 965 130 q 656 -61 772 -11 q 417 -111 541 -111 q 306 -95 352 -111 q 233 -52 261 -80 q 194 15 206 -24 q 181 102 181 54 q 206 258 181 174 q 268 426 231 343 q 346 583 304 509 q 426 707 389 657 q 367 731 398 717 q 309 767 335 744 q 266 819 283 789 q 248 891 248 848 q 271 975 248 939 q 337 1011 294 1011 q 379 993 365 1011 q 393 959 393 974 q 384 931 393 943 q 366 908 376 919 q 347 887 356 898 q 339 861 339 876 q 344 852 339 854 q 352 844 346 848 q 375 831 357 839 q 423 817 393 824 q 506 804 454 809 q 629 913 559 859 q 771 1009 698 967 q 917 1079 844 1052 q 1050 1106 989 1106 q 1150 1076 1109 1106 q 1169 1059 1152 1074 q 1187 996 1187 1044 q 1154 904 1187 959 q 1019 776 1120 848 q 861 694 948 728 q 667 659 774 659 q 591 665 630 659 q 548 670 585 665 q 472 689 511 676 q 493 669 480 678 q 523 652 504 659 q 574 641 543 644 q 485 507 530 580 q 405 364 441 435 q 346 225 369 293 q 324 106 324 157 q 356 14 324 46 q 467 -19 389 -19 q 583 0 522 -19 q 705 48 644 19 q 821 115 765 78 q 925 190 878 152 q 1008 263 972 228 q 1063 324 1044 298 q 1080 346 1070 337 q 1097 362 1087 356 q 1117 369 1107 369 m 1061 1024 q 995 1005 1035 1020 q 908 962 956 989 q 810 895 861 935 q 709 806 759 856 q 859 834 787 815 q 987 879 931 854 q 1076 933 1043 904 q 1109 991 1109 963 q 1092 1020 1109 1017 q 1061 1024 1074 1024 z "},"D":{"ha":1256,"x_min":48,"x_max":1239,"o":"m 837 735 q 720 617 772 689 q 633 459 674 556 q 578 226 593 363 q 577 213 578 226 q 569 185 576 200 q 547 158 561 170 q 506 146 533 146 q 449 165 469 146 q 430 237 430 183 q 450 377 430 302 q 510 527 470 452 q 608 673 550 602 q 744 802 667 744 q 769 815 756 807 q 792 825 780 820 q 819 830 804 830 q 852 814 841 830 q 863 783 863 798 q 837 735 863 752 m 1009 1061 q 1124 969 1074 1028 q 1203 837 1167 919 q 1239 637 1239 756 q 1233 544 1239 594 q 1213 441 1228 494 q 1094 175 1174 281 q 915 4 1013 69 q 708 -88 817 -61 q 506 -115 600 -115 q 284 -74 372 -115 q 144 30 196 -33 q 69 169 91 93 q 48 319 48 246 q 56 409 48 367 q 74 487 63 452 q 111 552 89 522 q 162 598 131 578 q 239 619 193 619 q 270 614 250 619 q 310 595 291 609 q 344 555 330 581 q 359 485 359 528 q 352 422 359 454 q 337 387 346 402 q 313 364 328 374 q 278 354 298 354 q 240 368 250 354 q 230 398 230 381 q 239 446 230 430 q 248 491 248 463 q 244 514 248 504 q 228 526 239 524 q 211 521 220 526 q 194 497 202 517 q 180 441 185 478 q 174 341 174 404 q 187 223 174 287 q 238 104 200 159 q 345 10 276 48 q 528 -28 415 -28 q 640 -13 587 -28 q 737 27 693 2 q 819 83 781 52 q 887 148 857 115 q 1006 326 957 226 q 1081 531 1059 441 q 1104 689 1104 620 q 1085 814 1104 763 q 1044 896 1067 865 q 987 956 1019 933 q 937 976 969 967 q 865 985 906 985 q 750 963 811 985 q 637 881 689 941 q 609 841 620 861 q 590 799 598 822 q 581 750 581 776 q 582 739 581 743 q 583 724 583 735 q 579 691 583 711 q 554 670 574 670 q 533 678 548 670 q 489 711 509 691 q 458 756 472 730 q 444 822 444 783 q 472 913 444 863 q 552 1005 500 963 q 675 1075 604 1046 q 833 1104 746 1104 q 921 1094 876 1104 q 1009 1061 967 1083 z "},"E":{"ha":1120,"x_min":102,"x_max":1230,"o":"m 1159 369 q 1183 348 1183 369 q 1178 330 1183 337 q 1069 196 1143 272 q 896 51 996 120 q 673 -67 796 -19 q 417 -115 550 -115 q 291 -103 348 -115 q 192 -68 233 -91 q 126 -12 150 -44 q 102 61 102 20 q 129 157 102 113 q 200 239 156 202 q 299 306 244 276 q 411 356 354 335 q 521 393 469 378 q 613 415 574 407 q 476 475 513 435 q 439 565 439 515 q 451 632 439 598 q 483 700 463 667 q 414 731 448 715 q 353 769 380 746 q 309 819 326 791 q 293 891 293 848 q 317 978 293 944 q 380 1011 341 1011 q 422 993 407 1011 q 437 959 437 974 q 429 933 437 944 q 410 912 420 922 q 392 891 400 902 q 383 865 383 880 q 403 837 383 848 q 450 819 422 826 q 507 808 478 813 q 557 802 537 804 q 594 843 556 802 q 706 937 633 883 q 805 1003 754 972 q 906 1056 856 1033 q 1004 1093 956 1080 q 1093 1106 1052 1106 q 1193 1076 1152 1106 q 1212 1059 1194 1074 q 1230 996 1230 1044 q 1197 904 1230 959 q 1063 776 1165 848 q 904 693 993 726 q 709 659 815 659 q 631 665 670 659 q 587 671 622 667 q 517 689 552 676 q 537 669 524 678 q 568 652 548 659 q 619 641 587 644 q 598 576 598 604 q 617 535 598 552 q 692 498 650 504 q 770 492 733 493 q 833 484 807 491 q 859 446 859 478 q 850 428 857 437 q 829 409 843 419 q 789 393 815 400 q 539 304 648 352 q 446 259 491 283 q 367 207 402 235 q 310 150 331 180 q 289 89 289 120 q 292 68 289 85 q 312 31 294 50 q 369 -6 330 11 q 481 -22 407 -22 q 668 16 570 -22 q 851 107 765 54 q 1006 221 937 161 q 1106 324 1074 281 q 1122 346 1113 337 q 1140 362 1130 356 q 1159 369 1150 369 m 859 900 q 769 826 804 859 q 735 793 748 807 q 933 831 854 804 q 1062 889 1013 857 q 1131 949 1111 920 q 1152 991 1152 978 q 1141 1018 1152 1011 q 1115 1024 1130 1024 q 1009 992 1080 1024 q 859 900 939 959 z "},"F":{"ha":1370,"x_min":143,"x_max":2006,"o":"m 1996 1081 q 2000 1063 1998 1072 q 2004 1043 2002 1054 q 2006 1017 2006 1031 q 1994 949 2006 987 q 1944 878 1981 911 q 1835 821 1906 844 q 1650 798 1765 798 q 1544 806 1602 798 q 1415 829 1487 813 q 1253 869 1343 844 q 1050 928 1163 893 q 956 956 1006 943 q 858 974 913 965 q 750 983 804 983 q 654 972 702 983 q 568 935 606 961 q 506 865 530 909 q 483 752 483 820 q 491 697 483 726 q 519 643 498 669 q 576 600 539 617 q 674 583 613 583 q 853 618 765 583 q 1009 693 941 652 q 1120 769 1078 733 q 1163 804 1163 804 q 1180 812 1169 807 q 1204 817 1191 817 q 1214 817 1206 817 q 1231 812 1222 817 q 1245 796 1239 807 q 1252 765 1252 785 q 1243 727 1252 750 q 1219 677 1233 704 q 1187 620 1206 650 q 1150 561 1169 591 q 1206 589 1178 578 q 1263 600 1235 600 q 1338 572 1311 600 q 1365 507 1365 544 q 1340 408 1365 459 q 1294 324 1315 357 q 1244 258 1270 285 q 1189 231 1219 231 q 1145 249 1161 231 q 1130 287 1130 267 q 1148 346 1130 315 q 1169 385 1159 367 q 1189 419 1180 404 q 1207 446 1198 435 q 1219 468 1211 454 q 1228 491 1228 481 q 1209 506 1228 506 q 1167 491 1193 506 q 1111 451 1141 476 q 1050 393 1081 426 q 989 320 1019 359 q 853 156 924 233 q 706 19 781 78 q 554 -76 631 -41 q 396 -111 476 -111 q 342 -103 383 -111 q 256 -72 300 -94 q 177 -10 211 -50 q 143 94 143 30 q 149 144 143 120 q 165 183 156 167 q 187 219 174 204 q 214 241 196 233 q 248 248 231 248 q 290 232 274 248 q 306 196 306 217 q 296 167 306 178 q 275 145 287 156 q 254 125 263 135 q 244 98 244 115 q 247 81 244 93 q 262 56 250 69 q 298 36 274 44 q 365 28 322 28 q 523 83 435 28 q 703 225 611 139 q 885 415 794 311 q 1052 615 976 519 q 878 504 969 554 q 693 446 787 454 q 529 481 589 446 q 437 564 469 515 q 396 664 406 613 q 387 748 387 715 q 419 892 387 831 q 493 991 452 952 q 598 1065 539 1037 q 694 1092 643 1083 q 800 1100 746 1100 q 1020 1080 920 1100 q 1216 1034 1120 1059 q 1411 989 1311 1009 q 1630 969 1511 969 q 1743 977 1689 969 q 1839 1002 1796 985 q 1883 1027 1865 1011 q 1915 1057 1902 1043 q 1941 1093 1930 1074 q 1967 1106 1954 1106 q 1996 1081 1983 1106 z "},"G":{"ha":1306,"x_min":165,"x_max":1300,"o":"m 1235 369 q 1252 362 1246 369 q 1257 346 1257 356 q 1254 331 1257 343 q 1163 145 1215 248 q 1047 -63 1111 43 q 911 -269 983 -169 q 762 -446 839 -369 q 606 -571 685 -524 q 446 -619 526 -619 q 373 -610 420 -619 q 280 -578 326 -602 q 199 -510 233 -554 q 165 -396 165 -467 q 169 -345 165 -370 q 181 -302 174 -320 q 200 -263 189 -281 q 284 -172 237 -198 q 378 -146 331 -146 q 489 -181 443 -146 q 535 -281 535 -215 q 531 -309 535 -291 q 520 -346 528 -328 q 501 -378 513 -365 q 474 -391 489 -391 q 452 -369 452 -391 q 444 -323 452 -341 q 424 -294 435 -306 q 404 -280 413 -283 q 394 -276 394 -276 q 359 -270 374 -270 q 309 -285 328 -270 q 280 -317 291 -300 q 261 -361 267 -337 q 272 -416 261 -394 q 297 -451 283 -437 q 323 -470 311 -465 q 339 -476 335 -476 q 387 -483 359 -483 q 450 -474 419 -483 q 507 -452 481 -465 q 563 -420 537 -439 q 668 -329 613 -383 q 778 -209 722 -274 q 888 -75 833 -144 q 993 63 943 -6 q 779 -59 896 -7 q 535 -111 661 -111 q 425 -95 470 -111 q 352 -52 380 -80 q 312 15 324 -24 q 300 102 300 54 q 325 258 300 174 q 386 426 350 343 q 465 583 422 509 q 544 707 507 657 q 483 731 515 717 q 426 768 452 746 q 383 819 400 789 q 367 891 367 850 q 390 975 367 939 q 456 1011 413 1011 q 497 993 483 1011 q 511 959 511 974 q 503 931 511 943 q 485 910 494 920 q 468 890 476 900 q 457 865 459 880 q 463 852 457 857 q 470 844 465 848 q 494 831 476 839 q 542 817 511 824 q 624 804 572 809 q 747 913 678 859 q 890 1009 817 967 q 1035 1079 963 1052 q 1169 1106 1107 1106 q 1259 1082 1219 1106 q 1300 1009 1300 1059 q 1261 901 1300 961 q 1153 787 1222 841 q 989 697 1083 733 q 781 661 894 661 q 746 661 765 661 q 709 665 728 661 q 669 669 706 665 q 591 689 631 674 q 611 669 598 678 q 642 652 622 659 q 693 641 661 644 q 604 507 648 580 q 523 364 559 435 q 465 225 487 293 q 443 106 443 157 q 475 14 443 46 q 585 -19 507 -19 q 702 0 641 -19 q 823 48 763 19 q 940 115 883 78 q 1044 190 996 152 q 1127 263 1091 228 q 1181 324 1163 298 q 1198 346 1189 337 q 1216 362 1206 356 q 1235 369 1226 369 m 1220 1017 q 1196 1026 1215 1026 q 1132 1012 1172 1026 q 1043 970 1093 998 q 937 901 993 943 q 828 806 881 859 q 976 834 904 815 q 1104 879 1048 854 q 1193 933 1159 904 q 1226 993 1226 963 q 1220 1017 1226 1006 z "},"H":{"ha":1894,"x_min":24,"x_max":2128,"o":"m 2113 1069 q 2120 1052 2117 1059 q 2126 1033 2124 1043 q 2128 1011 2128 1024 q 2120 973 2128 993 q 2089 933 2113 954 q 1950 798 2019 872 q 1828 652 1891 735 q 1717 470 1765 569 q 1848 491 1813 491 q 1874 484 1867 491 q 1881 469 1881 478 q 1863 426 1881 450 q 1824 383 1844 402 q 1756 347 1824 363 q 1576 313 1687 331 q 1611 308 1591 311 q 1657 306 1631 306 q 1648 247 1652 276 q 1644 191 1644 219 q 1644 162 1644 178 q 1647 131 1644 146 q 1656 106 1650 117 q 1674 96 1663 96 q 1719 110 1700 96 q 1761 124 1737 124 q 1794 113 1774 124 q 1813 72 1813 102 q 1788 19 1813 37 q 1726 -6 1763 0 q 1622 11 1663 -6 q 1557 57 1581 28 q 1524 127 1533 87 q 1515 211 1515 167 q 1524 307 1515 256 q 1374 293 1454 298 q 1213 287 1294 287 q 1069 293 1139 287 q 937 313 1000 298 q 980 292 952 304 q 1050 270 1007 280 q 907 129 981 194 q 756 13 833 63 q 601 -66 680 -37 q 444 -94 522 -94 q 417 -94 430 -94 q 389 -91 404 -94 q 241 -46 311 -80 q 181 -10 211 -31 q 122 42 150 11 q 71 113 94 72 q 33 207 48 154 q 28 228 30 217 q 25 249 26 237 q 24 276 24 261 q 30 324 24 298 q 50 373 35 350 q 94 411 65 396 q 170 426 122 426 q 210 419 185 426 q 258 396 235 413 q 298 349 281 380 q 315 272 315 319 q 312 250 315 263 q 303 225 309 237 q 283 205 296 213 q 250 196 270 196 q 213 217 222 196 q 198 262 204 237 q 184 307 193 287 q 148 328 176 328 q 135 293 135 328 q 153 231 135 270 q 207 155 170 193 q 303 90 244 117 q 443 63 361 63 q 548 83 496 63 q 654 140 600 104 q 764 224 707 176 q 881 328 820 272 q 856 334 874 330 q 820 348 839 339 q 787 374 802 357 q 772 417 772 391 q 775 433 772 422 q 784 455 778 444 q 804 472 791 465 q 839 480 817 480 q 897 459 859 480 q 978 424 935 439 q 1227 733 1111 565 q 1417 1065 1343 902 q 1433 1089 1422 1074 q 1463 1104 1444 1104 q 1505 1085 1480 1104 q 1530 1026 1530 1067 q 1507 960 1530 1015 q 1439 819 1485 906 q 1322 624 1393 733 q 1157 396 1252 515 q 1359 408 1257 396 q 1556 437 1461 420 q 1611 574 1574 494 q 1702 738 1648 654 q 1823 905 1756 822 q 1972 1054 1891 987 q 2002 1074 1985 1065 q 2031 1088 2015 1081 q 2065 1094 2048 1094 q 2113 1069 2094 1094 z "},"I":{"ha":1076,"x_min":172,"x_max":1369,"o":"m 1344 1052 q 1369 998 1369 1033 q 1354 934 1369 967 q 1333 893 1339 902 q 1230 722 1291 819 q 1094 524 1169 626 q 938 324 1020 422 q 770 149 856 226 q 600 25 685 72 q 437 -22 515 -22 q 419 -20 439 -22 q 370 -12 400 -19 q 306 7 341 -6 q 243 44 272 20 q 193 101 213 67 q 172 185 172 135 q 179 233 172 211 q 194 272 185 256 q 217 307 204 293 q 280 337 241 337 q 319 320 304 337 q 335 285 335 304 q 326 254 335 265 q 305 233 317 243 q 283 214 293 224 q 274 187 274 204 q 277 169 274 181 q 292 145 280 157 q 328 125 304 133 q 394 117 352 117 q 528 155 456 117 q 677 257 600 193 q 832 406 754 322 q 985 582 911 491 q 1126 768 1059 674 q 1244 944 1193 861 q 1291 952 1272 944 q 1319 969 1309 959 q 1334 988 1330 980 q 1339 996 1339 996 q 1295 970 1324 974 q 1259 967 1267 967 q 1209 968 1235 967 q 1154 976 1183 969 q 1082 990 1133 980 q 972 1010 1031 1000 q 855 1029 913 1020 q 761 1037 796 1037 q 606 1016 665 1037 q 517 969 548 994 q 465 900 480 937 q 456 870 459 887 q 446 798 446 839 q 455 735 446 769 q 488 669 463 702 q 556 611 513 637 q 669 569 598 585 q 704 557 687 565 q 728 537 717 550 q 739 504 739 524 q 729 467 739 480 q 706 448 719 454 q 672 441 691 441 q 535 476 591 443 q 444 548 480 509 q 380 650 404 594 q 356 728 363 691 q 348 798 348 765 q 363 894 348 852 q 398 970 378 937 q 491 1069 430 1024 q 629 1136 543 1106 q 848 1167 715 1167 q 994 1156 915 1167 q 1169 1122 1074 1146 q 1256 1095 1222 1107 q 1311 1074 1291 1083 q 1344 1052 1333 1063 z "},"J":{"ha":1309,"x_min":83,"x_max":1554,"o":"m 1531 1052 q 1554 994 1554 1031 q 1523 894 1554 967 q 1440 719 1493 820 q 1314 498 1387 619 q 1155 254 1241 378 q 974 12 1069 130 q 782 -202 880 -106 q 589 -364 685 -298 q 406 -448 493 -430 q 394 -450 402 -450 l 367 -450 q 292 -442 339 -450 q 198 -409 244 -433 q 118 -342 152 -385 q 83 -228 83 -298 q 88 -176 83 -200 q 100 -133 93 -152 q 119 -94 107 -113 q 202 -5 156 -30 q 294 20 248 20 q 406 -14 359 20 q 454 -115 454 -48 q 450 -143 454 -124 q 439 -179 446 -161 q 420 -210 431 -196 q 394 -224 409 -224 q 370 -200 370 -224 q 362 -155 370 -172 q 344 -127 354 -137 q 324 -113 333 -117 q 315 -109 315 -109 q 278 -104 293 -104 q 227 -118 246 -104 q 198 -148 207 -131 q 181 -193 185 -169 q 181 -200 181 -196 q 180 -207 180 -204 q 192 -256 180 -237 q 219 -287 204 -274 q 257 -309 235 -302 q 304 -317 278 -317 q 369 -307 337 -317 q 426 -285 400 -298 q 483 -252 456 -270 q 624 -138 552 -207 q 770 17 696 -69 q 976 281 867 137 q 1189 574 1070 406 q 1433 944 1307 743 q 1479 952 1461 944 q 1507 969 1496 959 q 1522 988 1519 980 q 1526 996 1526 996 q 1482 970 1511 974 q 1446 967 1454 967 q 1398 968 1424 967 q 1341 976 1372 969 q 1270 990 1320 980 q 1161 1010 1220 1000 q 1044 1029 1102 1020 q 950 1037 985 1037 q 795 1016 854 1037 q 706 969 737 994 q 654 900 669 937 q 644 870 648 887 q 635 798 635 839 q 644 735 635 769 q 676 669 652 702 q 744 611 700 637 q 856 569 787 585 q 891 557 874 565 q 915 537 904 550 q 926 504 926 524 q 916 467 926 480 q 893 448 906 454 q 861 441 878 441 q 723 476 778 443 q 633 548 669 509 q 567 650 593 594 q 543 728 550 691 q 535 798 535 765 q 550 894 535 852 q 585 970 565 937 q 676 1069 615 1024 q 815 1136 728 1106 q 1035 1167 902 1167 q 1183 1156 1104 1167 q 1357 1122 1263 1146 q 1444 1095 1411 1107 q 1498 1074 1478 1083 q 1531 1052 1520 1063 z "},"K":{"ha":1467,"x_min":120,"x_max":1809,"o":"m 1769 1100 q 1801 1084 1793 1100 q 1809 1043 1809 1069 q 1794 956 1809 987 q 1754 896 1780 924 q 1609 764 1687 828 q 1447 644 1531 700 q 1274 546 1363 589 q 1094 476 1185 504 q 1152 324 1117 407 q 1231 169 1187 241 q 1331 47 1276 96 q 1450 -2 1385 -2 q 1471 -6 1459 -2 q 1483 -24 1483 -11 q 1476 -44 1483 -35 q 1443 -76 1461 -63 q 1405 -96 1428 -87 q 1354 -106 1381 -106 q 1275 -88 1319 -106 q 1183 -14 1231 -70 q 1083 150 1135 43 q 980 439 1031 257 q 831 260 907 344 q 676 114 754 176 q 521 15 598 52 q 372 -22 444 -22 q 319 -14 359 -22 q 233 17 278 -6 q 155 79 189 39 q 120 183 120 119 q 127 232 120 209 q 143 272 133 256 q 165 307 152 293 q 192 330 174 322 q 226 337 209 337 q 268 320 252 337 q 283 283 283 304 q 274 254 283 265 q 253 233 265 243 q 231 214 241 224 q 222 187 222 204 q 225 169 222 181 q 240 145 228 157 q 276 125 252 133 q 343 117 300 117 q 476 155 404 117 q 624 257 548 193 q 779 406 700 322 q 931 583 857 491 q 1072 769 1006 676 q 1193 944 1139 861 q 1238 952 1220 944 q 1267 969 1256 959 q 1281 988 1278 980 q 1285 996 1285 996 q 1242 970 1270 974 q 1206 967 1213 967 q 1157 968 1183 967 q 1100 976 1131 969 q 1030 990 1080 980 q 920 1010 980 1000 q 803 1029 861 1020 q 709 1037 744 1037 q 555 1016 613 1037 q 465 969 496 994 q 413 900 428 937 q 404 870 407 887 q 394 798 394 839 q 403 735 394 769 q 435 669 411 702 q 503 611 459 637 q 615 569 546 585 q 650 557 633 565 q 674 537 663 550 q 685 504 685 524 q 675 467 685 480 q 652 448 665 454 q 620 441 637 441 q 483 476 539 443 q 393 548 428 509 q 326 650 352 594 q 302 728 309 691 q 294 798 294 765 q 309 894 294 852 q 344 970 324 937 q 435 1069 374 1024 q 574 1136 487 1106 q 794 1167 661 1167 q 943 1156 863 1167 q 1117 1122 1022 1146 q 1205 1095 1170 1107 q 1259 1074 1239 1083 q 1293 1052 1281 1063 q 1317 998 1317 1033 q 1302 934 1317 967 q 1281 893 1287 902 q 1206 767 1250 835 q 1111 620 1163 698 q 1302 708 1211 648 q 1465 828 1393 769 q 1567 917 1519 870 q 1663 1011 1615 963 q 1687 1039 1676 1024 q 1710 1067 1698 1054 q 1736 1089 1722 1080 q 1769 1100 1750 1098 z "},"L":{"ha":913,"x_min":11,"x_max":1546,"o":"m 1544 -72 q 1527 -155 1546 -111 q 1463 -232 1507 -198 q 1347 -281 1419 -267 q 1174 -276 1276 -296 q 1010 -217 1091 -259 q 852 -119 930 -174 q 701 -4 774 -65 q 557 111 628 57 q 544 122 550 117 q 530 131 537 128 q 484 165 507 150 q 439 194 461 180 q 476 159 454 183 q 507 106 498 135 q 412 13 459 50 q 322 -33 365 -24 q 252 -44 287 -43 q 184 -40 220 -46 q 111 -11 148 -33 q 45 49 67 17 q 18 113 24 81 q 16 171 11 144 q 26 215 20 198 l 26 217 q 30 226 26 219 q 31 229 30 228 q 31 231 31 230 l 31 233 q 33 236 33 235 q 35 239 33 237 q 54 271 41 252 q 87 309 67 291 q 137 344 107 328 q 207 369 167 359 l 211 369 q 259 373 233 372 q 315 370 285 374 q 388 349 348 367 q 472 304 428 331 q 597 507 537 398 q 706 715 657 617 q 792 863 752 800 q 863 967 831 926 q 930 1046 898 1015 q 1035 1135 981 1100 q 1143 1180 1089 1170 q 1194 1181 1167 1183 q 1246 1172 1219 1180 q 1302 1146 1274 1165 q 1373 1065 1356 1109 q 1387 983 1391 1020 q 1361 894 1383 939 q 1313 852 1346 859 q 1257 865 1280 844 q 1239 904 1237 885 q 1248 937 1241 922 q 1269 966 1254 950 q 1281 998 1283 981 q 1274 1031 1281 1019 q 1249 1050 1267 1043 q 1200 1050 1231 1057 q 1081 977 1141 1039 q 957 826 1022 915 q 913 757 937 796 q 864 674 893 724 q 798 559 835 624 q 703 385 754 470 q 598 222 652 300 q 740 123 667 176 q 887 24 813 70 q 1035 -57 961 -22 q 1180 -106 1109 -93 q 1315 -107 1250 -120 q 1435 -44 1380 -94 q 1456 -24 1444 -31 q 1494 -4 1476 -7 q 1529 -20 1515 -2 q 1544 -72 1543 -39 m 257 94 q 329 135 291 104 q 406 215 367 167 q 323 250 363 237 q 244 265 283 263 q 213 263 228 267 q 156 233 181 257 q 133 206 141 222 l 133 202 q 131 200 131 202 q 131 198 131 198 q 130 196 130 198 q 128 194 130 196 l 128 193 q 121 173 124 185 q 120 146 119 161 q 124 130 120 137 q 131 114 128 122 q 144 98 135 106 q 163 89 156 91 q 201 85 178 85 q 257 94 224 85 z "},"M":{"ha":2307,"x_min":211,"x_max":2509,"o":"m 2424 1004 q 2467 985 2446 998 q 2495 953 2481 974 q 2509 900 2509 931 q 2482 802 2509 861 q 2380 656 2456 743 q 2248 472 2306 569 q 2159 283 2200 389 q 2119 67 2119 178 q 2120 21 2119 46 q 2144 -4 2122 -4 q 2188 10 2170 -4 q 2231 24 2206 24 q 2263 13 2244 24 q 2281 -28 2281 2 q 2253 -84 2281 -65 q 2185 -104 2224 -104 q 2088 -86 2126 -104 q 2028 -39 2050 -69 q 1996 31 2006 -9 q 1987 113 1987 70 q 2003 249 1987 183 q 2031 354 2019 315 q 2112 538 2056 431 q 2269 776 2169 644 q 2299 824 2291 806 q 2307 856 2307 843 q 2293 881 2307 878 q 2274 885 2278 885 q 2190 849 2237 883 q 2091 761 2143 815 q 1985 639 2039 707 q 1881 499 1931 570 q 1784 360 1830 428 q 1704 239 1739 293 q 1645 171 1680 196 q 1574 146 1611 146 q 1531 156 1548 146 q 1505 179 1515 165 q 1491 208 1494 193 q 1487 239 1487 224 q 1487 251 1487 244 q 1489 263 1487 257 q 1519 369 1489 294 q 1597 536 1550 444 q 1703 723 1644 628 q 1817 891 1761 819 q 1844 934 1837 917 q 1852 965 1852 952 q 1841 992 1852 985 q 1820 998 1830 998 q 1759 961 1802 998 q 1658 864 1717 924 q 1531 726 1600 804 q 1394 567 1463 648 q 1353 515 1383 554 q 1281 426 1322 476 q 1197 322 1241 376 q 1119 224 1154 269 q 1065 159 1096 196 q 1000 87 1033 122 q 937 28 967 52 q 889 4 907 4 q 847 15 867 4 q 812 41 828 26 q 787 71 796 56 q 778 98 778 87 q 794 137 778 120 q 811 152 802 144 q 978 309 896 219 q 1132 504 1059 400 q 1269 722 1206 607 q 1380 952 1331 837 q 1443 976 1420 959 q 1474 1009 1465 993 q 1484 1040 1483 1026 q 1485 1056 1485 1054 q 1460 1011 1476 1026 q 1430 989 1444 996 q 1391 980 1411 981 q 1324 976 1357 978 q 1260 974 1294 974 q 1194 974 1226 974 q 1066 976 1131 974 q 933 978 1000 978 q 737 969 833 978 q 561 935 641 961 q 426 861 481 909 q 350 731 370 813 q 346 716 348 728 q 339 691 344 704 q 325 667 333 678 q 302 656 317 656 q 241 698 270 656 q 211 802 211 741 q 240 904 211 848 q 332 1006 269 959 q 498 1086 396 1054 q 746 1119 600 1119 q 999 1102 872 1119 q 1237 1085 1126 1085 q 1356 1089 1315 1085 q 1419 1097 1396 1093 q 1450 1106 1441 1102 q 1474 1109 1459 1109 q 1519 1096 1496 1109 q 1543 1041 1543 1083 q 1518 936 1543 1009 q 1435 744 1493 863 q 1559 893 1496 822 q 1681 1017 1622 963 q 1798 1102 1741 1070 q 1906 1133 1856 1133 q 1970 1119 1937 1133 q 2004 1091 1989 1107 q 2027 1053 2017 1076 q 2037 998 2037 1030 q 2014 902 2037 957 q 1928 770 1991 846 q 1822 620 1870 694 q 1738 483 1780 556 q 1674 352 1696 411 q 1765 486 1715 413 q 1869 632 1815 559 q 1984 774 1924 706 q 2107 895 2044 843 q 2235 980 2170 948 q 2365 1011 2300 1011 q 2424 1004 2396 1011 z "},"N":{"ha":1907,"x_min":213,"x_max":2076,"o":"m 2011 996 q 2043 967 2028 985 q 2066 928 2056 952 q 2076 872 2076 904 q 2053 776 2076 831 q 1967 648 2030 720 q 1944 624 1965 648 q 1895 557 1924 600 q 1833 456 1867 515 q 1771 329 1800 396 q 1724 186 1743 261 q 1706 35 1706 111 q 1709 4 1706 19 q 1731 -11 1713 -11 q 1775 3 1757 -11 q 1817 17 1793 17 q 1850 6 1830 17 q 1870 -35 1870 -4 q 1841 -92 1870 -72 q 1772 -111 1811 -111 q 1674 -94 1713 -111 q 1613 -46 1635 -76 q 1581 22 1591 -17 q 1572 104 1572 61 q 1581 196 1572 150 q 1598 281 1589 243 q 1617 346 1607 320 q 1630 380 1626 372 q 1719 565 1661 461 q 1856 769 1776 669 q 1881 808 1874 791 q 1887 839 1887 826 q 1882 857 1887 850 q 1874 869 1878 865 q 1861 878 1867 874 q 1844 880 1856 880 q 1736 836 1802 880 q 1594 725 1670 793 q 1439 575 1519 657 q 1289 414 1359 493 q 1162 269 1219 335 q 1078 170 1106 204 q 1042 128 1067 156 q 988 72 1017 100 q 932 24 959 44 q 891 4 906 4 q 848 15 869 4 q 812 42 828 26 q 788 74 796 57 q 780 100 780 91 q 796 137 780 120 q 813 152 804 144 q 980 309 898 219 q 1134 504 1061 400 q 1270 722 1207 607 q 1381 952 1333 837 q 1444 976 1422 959 q 1476 1009 1467 993 q 1486 1040 1485 1026 q 1487 1056 1487 1054 q 1463 1012 1478 1028 q 1432 990 1448 996 q 1406 981 1417 983 q 1393 980 1394 980 q 1372 979 1391 980 q 1325 977 1354 978 q 1262 975 1296 976 q 1196 974 1228 974 q 1068 976 1133 974 q 935 978 1002 978 q 739 969 835 978 q 564 935 643 961 q 429 861 485 909 q 352 731 372 813 q 348 716 350 728 q 341 691 346 704 q 327 667 335 678 q 304 656 319 656 q 243 697 272 656 q 213 800 213 739 q 242 903 213 846 q 334 1006 270 959 q 501 1086 398 1054 q 750 1119 604 1119 q 1002 1102 876 1119 q 1241 1085 1128 1085 q 1359 1089 1319 1085 q 1422 1097 1400 1093 q 1454 1106 1444 1102 q 1476 1109 1463 1109 q 1521 1096 1498 1109 q 1544 1041 1544 1083 q 1505 900 1544 1011 q 1376 619 1465 789 q 1522 766 1446 694 q 1671 893 1598 837 q 1813 981 1744 948 q 1939 1015 1881 1015 q 2011 996 1980 1015 z "},"O":{"ha":1198,"x_min":165,"x_max":1248,"o":"m 1002 1024 q 1039 1021 1007 1024 q 1110 1001 1070 1019 q 1188 944 1150 983 q 1241 833 1226 906 q 1247 748 1246 796 q 1239 641 1248 700 q 1139 356 1206 491 q 1071 238 1111 298 q 981 123 1031 178 q 864 21 930 69 q 719 -59 798 -26 q 597 -100 659 -83 q 465 -117 535 -117 q 268 -56 333 -117 q 183 96 202 4 q 171 198 178 122 q 184 381 165 274 q 259 617 204 489 q 435 876 315 744 q 559 989 493 939 q 693 1067 617 1031 q 856 1102 769 1102 q 875 1101 857 1102 q 916 1093 893 1100 q 963 1069 939 1085 q 1002 1024 987 1054 m 456 -20 q 471 -22 465 -22 q 487 -22 478 -22 q 643 7 570 -22 q 769 74 715 37 q 887 172 831 117 q 1028 381 976 272 q 1106 589 1080 491 q 1136 761 1131 687 q 1135 863 1141 835 q 1107 897 1131 889 q 1063 906 1083 906 q 1029 902 1044 906 q 1000 894 1013 898 q 972 883 985 889 q 891 826 924 861 q 843 747 861 794 q 839 631 824 700 q 848 602 843 617 q 859 572 854 587 q 869 557 863 565 q 875 543 872 550 q 880 528 878 535 q 872 506 883 513 q 846 498 861 498 q 784 517 811 498 q 739 560 757 535 q 709 613 720 585 q 696 657 698 641 q 690 704 691 681 q 691 743 689 726 q 696 778 693 763 q 749 894 711 848 q 826 965 787 939 q 926 1009 872 994 q 916 1016 926 1013 q 896 1019 906 1019 q 840 1006 874 1019 q 766 970 806 994 q 681 910 726 946 q 596 828 637 874 q 557 781 596 828 q 470 651 519 733 q 379 457 422 569 q 326 220 335 346 q 330 102 320 161 q 369 18 339 52 q 456 -20 400 -17 z "},"P":{"ha":1124,"x_min":193,"x_max":1237,"o":"m 913 1096 q 1074 1041 1002 1080 q 1133 1001 1104 1024 q 1186 947 1163 978 q 1223 877 1209 917 q 1237 787 1237 837 q 1174 564 1237 659 q 1014 406 1111 469 q 800 312 917 343 q 576 281 683 281 q 465 289 520 281 q 361 315 409 296 q 392 290 370 306 q 444 267 413 274 q 421 176 430 222 q 413 81 413 130 q 413 54 413 70 q 416 23 413 37 q 425 -1 419 9 q 443 -11 431 -11 q 486 3 469 -11 q 528 17 504 17 q 561 6 541 17 q 581 -35 581 -4 q 552 -92 581 -72 q 483 -111 522 -111 q 385 -94 424 -111 q 324 -46 346 -76 q 293 22 302 -17 q 283 104 283 61 q 297 228 283 167 q 324 330 311 289 q 255 370 287 346 q 222 422 222 394 q 232 452 222 439 q 257 465 243 465 q 285 462 278 465 q 299 454 293 459 q 317 438 306 448 q 356 415 328 428 q 414 540 380 474 q 494 672 448 606 q 595 802 539 739 q 719 920 652 865 q 748 941 731 931 q 778 955 761 948 q 811 961 794 961 q 830 959 819 961 q 851 949 841 957 q 869 924 861 941 q 876 878 876 907 q 868 840 876 859 q 837 800 859 820 q 709 680 770 746 q 596 545 656 622 q 491 378 537 469 q 516 376 504 376 q 543 376 528 376 q 794 415 689 376 q 965 513 898 454 q 1063 642 1031 572 q 1098 770 1094 711 q 1061 889 1098 844 q 979 956 1024 933 q 895 984 933 978 q 856 991 857 991 q 828 994 841 993 q 802 994 815 994 q 663 974 726 994 q 555 929 600 954 q 482 882 509 904 q 454 857 456 861 q 362 737 383 793 q 341 644 341 681 q 343 612 341 620 q 346 599 344 604 q 350 589 348 594 q 352 567 352 583 q 346 542 352 554 q 324 530 341 530 q 307 533 319 530 q 288 541 306 533 q 249 569 270 548 q 210 622 228 589 q 193 709 193 656 q 230 824 196 765 q 318 932 257 874 q 491 1041 378 991 q 578 1072 530 1057 q 675 1095 619 1085 q 798 1106 731 1106 q 854 1103 826 1106 q 913 1096 881 1100 z "},"Q":{"ha":1200,"x_min":146,"x_max":1239,"o":"m 1156 950 q 1183 911 1170 933 q 1206 862 1194 891 q 1228 794 1219 833 q 1228 629 1239 726 q 1154 404 1217 531 q 1037 217 1107 306 q 887 60 978 139 q 672 -69 796 -19 q 728 -130 704 -107 q 756 -156 752 -152 q 792 -179 774 -169 q 831 -198 809 -189 q 842 -202 833 -198 q 861 -211 850 -206 q 881 -224 872 -217 q 893 -241 891 -231 q 871 -281 896 -261 q 802 -300 846 -300 q 706 -271 752 -300 q 624 -207 659 -243 q 567 -142 589 -172 q 544 -107 544 -111 q 517 -59 528 -80 l 507 -41 q 511 -65 507 -57 q 518 -91 513 -80 q 526 -111 522 -102 q 488 -118 511 -115 q 437 -120 465 -120 q 357 -112 400 -120 q 275 -79 315 -104 q 204 -10 235 -54 q 159 104 172 33 q 148 235 146 170 q 162 362 150 300 q 194 481 174 424 q 237 587 215 537 q 367 807 289 702 q 406 859 367 813 q 511 959 444 906 q 665 1057 578 1013 q 846 1102 752 1102 q 866 1101 848 1102 q 907 1093 883 1100 q 956 1069 931 1085 q 994 1024 980 1054 q 1065 1013 1035 1024 q 1115 988 1094 1002 q 1145 962 1135 974 q 1156 950 1156 950 m 446 202 q 469 468 431 346 q 561 678 507 589 q 707 867 622 781 q 820 960 769 926 q 915 1009 872 994 q 894 1019 913 1017 q 867 1022 876 1022 q 756 984 813 1022 q 654 902 700 946 q 548 783 600 850 q 508 730 543 778 q 433 606 474 681 q 356 434 393 531 q 307 231 319 337 q 302 164 304 194 q 306 104 300 133 q 357 9 317 44 q 480 -26 398 -26 q 489 -25 483 -26 q 498 -24 494 -24 q 475 40 483 7 q 459 104 467 72 q 453 154 456 130 q 446 202 450 178 m 946 289 q 1061 485 1020 398 q 1120 639 1102 572 q 1140 753 1139 706 q 1135 828 1141 800 q 1109 888 1126 872 q 1046 904 1093 904 q 963 886 1013 904 q 852 819 913 869 q 805 776 837 806 q 735 701 772 746 q 660 595 698 656 q 595 465 622 535 q 557 313 569 394 q 563 144 546 231 q 585 70 572 107 q 622 4 598 33 q 808 126 728 46 q 946 289 889 206 z "},"R":{"ha":1065,"x_min":152,"x_max":1439,"o":"m 1391 -28 q 1413 -19 1400 -19 q 1431 -27 1422 -19 q 1439 -54 1439 -35 q 1435 -85 1439 -56 q 1410 -149 1431 -115 q 1346 -212 1389 -183 q 1226 -241 1304 -241 q 1116 -230 1174 -241 q 976 -178 1057 -219 q 780 -61 894 -137 q 502 146 665 15 q 472 170 489 157 q 437 197 457 181 q 393 230 417 213 q 372 83 372 154 q 372 56 372 72 q 375 24 372 39 q 384 -1 378 9 q 402 -11 391 -11 q 445 3 428 -11 q 487 17 463 17 q 520 6 500 17 q 541 -35 541 -4 q 512 -91 541 -70 q 443 -111 483 -111 q 345 -94 383 -111 q 285 -46 307 -76 q 254 22 263 -17 q 244 104 244 61 q 253 195 244 150 q 270 280 261 241 q 289 344 280 319 q 302 378 298 370 q 358 508 324 439 q 440 650 393 578 q 546 792 487 722 q 678 920 606 861 q 707 941 691 931 q 737 955 720 948 q 770 961 754 961 q 789 959 778 961 q 810 949 800 957 q 828 924 820 941 q 835 878 835 907 q 827 840 835 859 q 796 800 819 820 q 669 680 730 746 q 556 545 615 622 q 450 378 496 469 q 475 376 463 376 q 502 376 487 376 q 754 415 650 376 q 924 513 857 454 q 1022 642 991 572 q 1057 770 1054 711 q 1020 889 1057 844 q 939 956 983 933 q 856 984 894 978 q 817 991 819 991 q 789 994 802 993 q 763 994 776 994 q 624 974 687 994 q 516 929 561 954 q 444 882 470 904 q 413 857 417 861 q 321 737 343 793 q 300 644 300 681 q 302 612 300 620 q 306 599 304 604 q 309 589 307 594 q 311 567 311 583 q 306 542 311 554 q 283 530 300 530 q 267 533 278 530 q 247 541 265 533 q 208 569 230 548 q 169 622 187 589 q 152 709 152 656 q 189 824 156 765 q 277 932 217 874 q 450 1041 337 991 q 537 1072 489 1057 q 634 1095 578 1085 q 757 1106 691 1106 q 813 1103 785 1106 q 872 1096 841 1100 q 1033 1041 961 1080 q 1093 1001 1063 1024 q 1145 947 1122 978 q 1182 877 1169 917 q 1196 787 1196 837 q 1126 550 1196 646 q 950 394 1056 454 q 720 306 844 333 q 489 280 596 280 q 444 283 469 280 q 378 300 419 287 q 388 292 378 298 q 416 277 398 285 q 457 262 433 269 q 511 256 481 256 q 603 194 559 224 q 683 137 646 163 q 810 60 737 98 q 962 -7 883 22 q 1119 -56 1041 -37 q 1259 -74 1196 -74 q 1311 -67 1287 -74 q 1353 -51 1335 -59 q 1381 -35 1370 -43 q 1391 -28 1391 -28 z "},"S":{"ha":1033,"x_min":146,"x_max":1130,"o":"m 1026 1104 q 1078 1076 1056 1096 q 1114 1030 1098 1059 q 1130 950 1130 1000 q 1069 755 1130 854 q 911 557 1009 656 q 894 541 907 554 q 864 512 881 528 q 825 479 846 496 q 785 450 804 461 q 801 454 787 450 q 834 466 815 457 q 875 486 854 474 q 915 513 896 498 q 929 385 922 452 q 935 252 935 319 q 918 85 935 167 q 856 -60 900 4 q 735 -163 811 -124 q 543 -202 659 -202 q 404 -181 470 -202 q 289 -117 337 -161 q 288 -130 289 -119 q 282 -155 287 -141 q 267 -180 278 -169 q 235 -191 256 -191 q 187 -166 198 -191 q 176 -120 176 -141 q 184 -54 176 -72 q 204 -9 193 -35 q 165 73 183 26 q 146 176 146 120 q 163 273 146 222 q 222 376 180 324 q 246 403 228 383 q 294 442 265 422 q 363 477 322 461 q 454 493 404 493 q 602 443 528 493 q 675 501 639 474 q 744 554 711 528 q 743 595 743 574 q 743 637 743 617 q 753 806 743 724 q 789 954 763 889 q 833 1031 806 998 q 892 1086 856 1061 q 976 1111 928 1111 q 1026 1104 1002 1111 m 278 315 q 248 254 263 291 q 233 170 233 217 q 252 81 233 124 q 373 232 300 157 q 526 378 446 307 q 481 402 506 393 q 431 411 457 411 q 356 389 394 411 l 357 389 q 330 370 344 381 q 303 347 317 361 q 278 315 289 333 m 769 309 q 761 357 765 330 q 754 417 757 385 q 716 386 733 400 q 683 361 698 372 q 709 306 698 337 q 720 235 720 274 q 716 188 720 213 q 698 137 711 163 q 670 98 687 115 q 634 72 656 83 q 581 61 613 61 q 528 80 543 61 q 511 113 513 98 q 519 126 511 122 q 533 131 526 130 q 565 142 550 131 q 591 168 580 152 q 607 200 602 183 q 613 228 613 217 q 608 261 613 244 q 596 294 604 278 q 536 243 570 274 q 464 171 502 211 q 391 84 426 131 q 328 -15 356 37 q 406 -49 354 -30 q 520 -69 457 -69 q 614 -52 567 -69 q 704 7 661 -35 q 739 59 722 28 q 763 127 752 85 q 774 228 774 169 q 769 309 774 265 m 1020 867 q 1037 906 1030 885 q 1048 942 1043 922 q 1054 980 1054 961 q 1044 1016 1054 1000 q 1011 1031 1035 1031 q 970 1003 991 1031 q 935 927 950 974 q 911 817 920 880 q 902 687 902 754 q 968 769 935 724 q 1020 867 1000 815 z "},"T":{"ha":1165,"x_min":196,"x_max":2059,"o":"m 1722 813 q 1616 819 1674 813 q 1483 841 1557 826 q 1317 880 1409 856 q 1106 941 1224 904 q 1009 969 1059 956 q 912 989 967 980 q 804 998 857 998 q 706 987 754 998 q 622 950 659 976 q 562 879 585 924 q 539 765 539 833 q 546 709 539 739 q 574 655 554 680 q 632 614 594 630 q 731 598 670 598 q 909 631 822 598 q 1065 707 996 665 q 1217 819 1144 756 q 1235 827 1224 822 q 1261 831 1246 831 q 1289 824 1270 831 q 1307 780 1307 817 q 1304 754 1307 769 q 1291 722 1300 739 q 1198 564 1252 652 q 1079 385 1144 476 q 939 208 1013 294 q 784 55 865 122 q 619 -55 704 -13 q 450 -96 535 -96 q 394 -88 435 -96 q 309 -56 354 -80 q 231 6 265 -33 q 196 109 196 46 q 203 158 196 135 q 219 198 209 181 q 241 233 228 219 q 302 263 265 263 q 344 247 328 263 q 359 211 359 231 q 350 180 359 191 q 329 159 341 169 q 307 140 317 150 q 298 113 298 130 q 301 94 298 106 q 317 70 304 81 q 356 51 330 59 q 426 43 381 43 q 527 69 472 43 q 641 140 581 94 q 762 244 700 185 q 884 368 824 302 q 1001 500 944 433 q 1106 628 1057 567 q 1022 569 1067 598 q 931 515 978 539 q 835 476 883 491 q 741 461 787 461 q 581 495 641 461 q 490 578 520 530 q 450 677 459 626 q 441 761 441 728 q 473 906 441 846 q 546 1004 506 965 q 654 1078 594 1048 q 750 1106 698 1098 q 856 1113 802 1113 q 1073 1093 974 1113 q 1268 1048 1172 1072 q 1462 1004 1363 1024 q 1681 983 1561 983 q 1893 1017 1806 983 q 1937 1042 1919 1026 q 1969 1072 1956 1057 q 1994 1107 1983 1089 q 2024 1120 2007 1120 q 2033 1119 2028 1120 q 2044 1108 2039 1117 q 2055 1082 2050 1100 q 2059 1031 2059 1065 q 2047 964 2059 1000 q 1999 894 2035 928 q 1897 838 1963 861 q 1722 813 1831 815 z "},"U":{"ha":1915,"x_min":204,"x_max":2178,"o":"m 2161 963 q 2169 946 2165 956 q 2175 927 2172 937 q 2178 904 2178 917 q 2169 866 2178 885 q 2139 826 2161 846 q 2102 794 2135 824 q 2019 711 2069 763 q 1911 588 1969 659 q 1806 434 1854 517 q 1725 261 1757 352 q 1693 78 1693 170 q 1693 51 1693 67 q 1695 21 1693 35 q 1705 -2 1698 7 q 1722 -11 1711 -11 q 1767 3 1748 -11 q 1809 17 1785 17 q 1841 6 1820 17 q 1861 -37 1861 -6 q 1832 -93 1861 -74 q 1765 -111 1804 -111 q 1667 -94 1706 -111 q 1606 -46 1628 -76 q 1574 22 1583 -17 q 1565 104 1565 61 q 1573 195 1565 150 q 1591 280 1581 241 q 1609 344 1600 319 q 1622 378 1619 370 q 1643 431 1631 404 q 1669 487 1654 457 q 1521 311 1596 398 q 1376 155 1446 224 q 1239 43 1306 85 q 1117 0 1172 0 q 1038 15 1069 0 q 990 52 1007 30 q 965 101 972 74 q 957 150 957 128 q 962 200 957 176 q 974 244 967 224 q 991 287 981 267 q 1020 345 1002 313 q 1057 406 1039 378 q 1102 470 1078 439 q 1254 704 1185 581 q 1372 952 1322 826 q 1435 976 1413 959 q 1467 1009 1457 993 q 1477 1040 1476 1026 q 1478 1056 1478 1054 q 1453 1011 1469 1026 q 1422 989 1437 996 q 1383 980 1404 981 q 1362 979 1381 980 q 1314 977 1343 978 q 1252 975 1285 976 q 1187 974 1219 974 q 1058 976 1124 974 q 926 978 993 978 q 731 969 826 978 q 556 935 635 961 q 420 861 476 909 q 344 731 365 813 q 342 716 344 728 q 333 691 339 704 q 319 667 328 678 q 294 656 309 656 q 234 696 265 656 q 204 800 204 737 q 232 903 204 846 q 325 1006 261 959 q 492 1086 389 1054 q 741 1119 594 1119 q 993 1102 867 1119 q 1231 1085 1119 1085 q 1350 1089 1309 1085 q 1413 1097 1391 1093 q 1444 1106 1435 1102 q 1467 1109 1454 1109 q 1512 1096 1489 1109 q 1535 1041 1535 1083 q 1515 960 1535 1026 q 1451 795 1494 894 q 1343 574 1407 696 q 1189 326 1278 452 q 1127 227 1150 270 q 1104 156 1104 183 q 1115 127 1104 139 q 1148 115 1126 115 q 1207 133 1174 115 q 1270 176 1241 152 q 1339 239 1304 204 q 1566 488 1452 367 q 1776 707 1680 609 q 1938 869 1872 806 q 2020 946 2004 933 q 2050 967 2033 957 q 2080 981 2063 974 q 2113 987 2096 987 q 2161 963 2144 987 z "},"V":{"ha":1741,"x_min":230,"x_max":2704,"o":"m 2652 1165 q 2693 1100 2681 1131 q 2704 1041 2704 1069 q 2695 988 2704 1011 q 2678 946 2687 965 q 2652 909 2667 926 q 2624 890 2641 896 q 2591 883 2607 883 q 2549 900 2565 883 q 2533 937 2533 917 q 2544 968 2533 956 q 2568 989 2556 980 q 2591 1008 2580 998 q 2602 1035 2602 1019 q 2598 1055 2602 1043 q 2581 1079 2594 1067 q 2540 1100 2567 1091 q 2467 1109 2513 1109 q 2316 1057 2402 1109 q 2134 926 2230 1006 q 1944 750 2039 846 q 1768 564 1848 654 q 1628 403 1687 474 q 1548 302 1569 331 q 1438 181 1493 237 q 1332 81 1383 124 q 1233 14 1281 39 q 1143 -11 1185 -11 q 1064 4 1094 -11 q 1016 42 1033 19 q 991 92 998 65 q 983 141 983 119 q 988 190 983 167 q 1000 233 993 213 q 1017 276 1007 256 q 1046 336 1028 304 q 1083 396 1065 369 q 1128 461 1104 430 q 1280 694 1211 572 q 1398 941 1348 817 q 1462 966 1441 948 q 1493 1000 1483 983 q 1503 1031 1502 1017 q 1504 1044 1504 1044 q 1479 1000 1494 1015 q 1448 978 1463 985 q 1409 969 1430 970 q 1393 968 1407 969 q 1356 967 1378 967 q 1306 966 1333 967 q 1250 965 1278 965 q 1107 967 1181 965 q 957 969 1033 969 q 760 960 857 969 q 583 926 663 952 q 447 851 504 900 q 370 720 391 802 q 368 705 370 717 q 359 680 365 693 q 344 656 354 667 q 319 646 333 646 q 258 687 287 646 q 230 791 230 728 q 258 893 230 837 q 350 995 287 948 q 515 1075 413 1043 q 765 1107 617 1107 q 1018 1091 891 1107 q 1257 1074 1144 1074 q 1376 1078 1335 1074 q 1439 1086 1417 1081 q 1470 1094 1461 1091 q 1493 1098 1480 1098 q 1538 1085 1515 1098 q 1561 1030 1561 1072 q 1541 949 1561 1015 q 1477 785 1520 883 q 1369 566 1433 687 q 1215 317 1304 444 q 1153 217 1176 261 q 1130 144 1130 172 q 1140 116 1130 128 q 1172 104 1150 104 q 1247 131 1206 104 q 1336 205 1289 159 q 1431 306 1383 250 q 1521 419 1478 363 q 1602 527 1565 476 q 1663 613 1639 578 q 1831 833 1739 720 q 2025 1039 1922 946 q 2237 1191 2128 1131 q 2457 1250 2346 1250 q 2526 1239 2493 1248 q 2590 1213 2556 1230 q 2652 1165 2624 1196 z "},"W":{"ha":2309,"x_min":239,"x_max":3293,"o":"m 3241 1165 q 3281 1100 3270 1131 q 3293 1041 3293 1069 q 3284 988 3293 1011 q 3267 946 3276 965 q 3241 909 3256 926 q 3181 883 3219 883 q 3140 899 3156 883 q 3124 935 3124 915 q 3134 968 3124 956 q 3157 989 3144 980 q 3181 1008 3170 998 q 3191 1035 3191 1019 q 3187 1055 3191 1043 q 3169 1079 3183 1067 q 3129 1100 3156 1091 q 3056 1109 3102 1109 q 2906 1057 2993 1109 q 2724 926 2819 1006 q 2534 750 2630 846 q 2357 564 2439 654 q 2217 403 2276 474 q 2137 302 2157 331 q 2027 181 2081 237 q 1921 81 1972 124 q 1822 14 1870 39 q 1731 -11 1774 -11 q 1657 3 1687 -11 q 1610 37 1628 17 q 1586 82 1593 57 q 1580 128 1580 107 q 1585 180 1580 154 q 1598 226 1591 206 q 1619 270 1606 248 q 1648 331 1630 298 q 1685 391 1667 363 q 1731 456 1706 424 q 1848 613 1787 533 q 1957 778 1909 693 q 1963 793 1963 789 q 1959 798 1963 794 l 1957 800 q 1944 796 1954 800 q 1916 778 1933 793 q 1869 733 1898 763 q 1798 652 1841 704 q 1621 417 1694 524 q 1506 256 1548 309 q 1312 63 1406 133 q 1143 -7 1219 -7 q 1069 6 1098 -7 q 1021 38 1039 19 q 995 81 1004 57 q 987 130 987 106 q 1010 241 987 181 q 1061 348 1033 300 q 1137 461 1094 406 q 1287 694 1219 572 q 1406 941 1356 817 q 1470 966 1448 948 q 1502 1000 1493 983 q 1512 1030 1511 1017 q 1513 1044 1513 1043 q 1487 1000 1504 1015 q 1456 978 1470 985 q 1417 969 1437 970 q 1400 968 1415 969 q 1363 967 1385 967 q 1313 966 1341 967 q 1257 965 1285 965 q 1116 967 1189 965 q 967 969 1043 969 q 768 960 865 969 q 591 926 670 952 q 455 851 511 900 q 378 720 398 802 q 375 705 378 717 q 367 680 372 693 q 351 656 361 667 q 328 646 341 646 q 268 688 296 646 q 239 791 239 730 q 268 893 239 837 q 359 996 296 948 q 524 1076 422 1044 q 772 1107 626 1107 q 1025 1091 898 1107 q 1265 1074 1152 1074 q 1383 1078 1343 1074 q 1446 1086 1424 1081 q 1478 1094 1469 1091 q 1500 1098 1487 1098 q 1545 1085 1522 1098 q 1569 1030 1569 1072 q 1548 949 1569 1015 q 1484 785 1528 883 q 1376 566 1441 687 q 1222 317 1311 444 q 1160 217 1183 261 q 1137 144 1137 172 q 1147 116 1137 128 q 1180 104 1157 104 q 1257 131 1215 104 q 1346 205 1300 159 q 1440 306 1393 250 q 1530 419 1487 363 q 1608 527 1572 476 q 1670 613 1644 578 q 1783 759 1726 694 q 1887 861 1831 815 q 1991 907 1943 907 q 2050 877 2033 907 q 2067 819 2067 846 q 2061 774 2067 796 q 2041 717 2054 748 q 2007 652 2028 689 q 1956 569 1987 615 q 1881 461 1922 522 q 1804 341 1841 400 q 1742 231 1767 281 q 1717 152 1717 180 q 1728 118 1717 131 q 1763 104 1739 104 q 1826 125 1791 104 q 1901 182 1861 146 q 1982 264 1941 219 q 2063 357 2024 309 q 2252 613 2154 470 q 2420 833 2328 720 q 2616 1039 2513 946 q 2828 1191 2719 1131 q 3046 1250 2937 1250 q 3115 1239 3081 1248 q 3179 1213 3144 1230 q 3241 1165 3213 1196 z "},"X":{"ha":1493,"x_min":220,"x_max":2402,"o":"m 2350 1165 q 2391 1100 2380 1131 q 2402 1041 2402 1069 q 2394 988 2402 1011 q 2376 946 2385 965 q 2350 909 2365 926 q 2322 890 2339 896 q 2289 883 2306 883 q 2247 900 2263 883 q 2231 937 2231 917 q 2243 968 2231 956 q 2266 989 2254 980 q 2289 1008 2278 998 q 2300 1035 2300 1019 q 2296 1055 2300 1043 q 2279 1079 2293 1067 q 2238 1100 2265 1091 q 2165 1109 2211 1109 q 2072 1089 2122 1109 q 1968 1033 2022 1069 q 1856 951 1913 998 q 1741 852 1798 904 q 1583 692 1663 780 q 1431 519 1504 604 q 1298 364 1359 433 q 1196 261 1237 294 q 1231 276 1213 269 q 1266 294 1246 283 q 1302 319 1285 304 q 1344 138 1315 224 q 1431 -15 1374 52 q 1452 -26 1443 -26 q 1480 -14 1470 -26 q 1497 14 1489 -2 q 1516 42 1506 30 q 1548 54 1526 54 q 1590 36 1574 54 q 1606 -7 1606 19 q 1591 -53 1606 -33 q 1554 -85 1576 -72 q 1506 -106 1531 -98 q 1459 -113 1480 -113 q 1341 -68 1391 -113 q 1257 31 1291 -22 q 1193 178 1219 94 q 1185 203 1189 189 q 1178 233 1181 217 q 1055 143 1120 183 q 919 71 989 102 q 781 24 850 41 q 644 7 711 7 q 578 12 609 7 q 515 28 546 17 q 493 35 515 28 q 438 59 470 43 q 368 105 406 76 q 297 175 330 133 q 243 273 265 217 q 220 404 220 330 q 224 450 220 420 q 242 507 228 480 q 284 556 256 535 q 361 578 313 578 q 404 573 378 578 q 454 552 430 569 q 494 504 478 535 q 511 420 511 472 q 509 398 511 413 q 500 369 507 383 q 479 345 493 356 q 441 335 465 335 q 404 356 411 335 q 394 404 396 378 q 387 454 393 430 q 356 483 381 478 q 341 468 348 483 q 333 422 333 452 q 347 353 333 394 q 399 272 361 311 q 503 206 437 233 q 672 178 569 178 q 797 192 737 178 q 909 226 857 206 q 1001 269 961 246 q 1067 309 1041 293 q 1110 343 1089 324 q 1152 381 1131 361 q 1141 495 1144 435 q 1137 619 1137 556 q 1143 769 1137 683 q 1164 930 1148 854 q 1207 1058 1180 1006 q 1281 1111 1235 1111 q 1306 1106 1291 1111 q 1333 1083 1320 1096 q 1354 1055 1344 1072 q 1363 1013 1363 1037 q 1357 976 1363 994 q 1328 841 1341 913 q 1306 698 1317 780 q 1293 528 1294 617 q 1358 612 1335 578 q 1402 670 1381 646 q 1577 886 1487 781 q 1761 1072 1667 991 q 1955 1202 1856 1154 q 2156 1250 2054 1250 q 2224 1239 2191 1248 q 2287 1213 2254 1230 q 2350 1165 2320 1196 z "},"Y":{"ha":1920,"x_min":248,"x_max":2220,"o":"m 2206 959 q 2213 943 2209 950 q 2220 904 2220 924 q 2212 865 2220 885 q 2181 824 2204 844 q 2126 774 2156 802 q 2069 718 2100 750 q 2000 643 2037 685 q 1935 557 1969 606 q 1869 460 1906 517 q 1798 337 1833 404 q 1636 50 1722 193 q 1457 -206 1550 -93 q 1267 -389 1365 -319 q 1067 -459 1169 -459 q 992 -451 1039 -459 q 898 -419 944 -443 q 818 -351 852 -394 q 783 -237 783 -307 q 788 -186 783 -211 q 800 -143 793 -161 q 819 -104 807 -122 q 903 -13 856 -39 q 996 13 950 13 q 1107 -21 1061 13 q 1154 -122 1154 -56 q 1150 -150 1154 -131 q 1139 -187 1146 -169 q 1119 -219 1131 -206 q 1093 -231 1107 -231 q 1070 -209 1070 -231 q 1062 -164 1070 -181 q 1044 -135 1054 -146 q 1024 -120 1033 -124 q 1015 -117 1015 -117 q 978 -111 994 -111 q 928 -126 946 -111 q 898 -157 909 -141 q 880 -202 885 -178 q 891 -256 880 -233 q 916 -292 902 -278 q 942 -312 930 -306 q 957 -319 954 -319 q 1004 -326 978 -326 q 1069 -317 1037 -326 q 1126 -294 1100 -307 q 1183 -261 1156 -280 q 1305 -162 1248 -217 q 1410 -47 1361 -107 q 1500 75 1459 13 q 1574 196 1541 137 q 1707 478 1650 333 q 1561 305 1635 391 q 1417 151 1487 219 q 1281 41 1346 83 q 1161 -2 1217 -2 q 1081 13 1113 -2 q 1032 51 1050 28 q 1007 100 1015 74 q 1000 148 1000 126 q 1005 197 1000 174 q 1017 241 1009 220 q 1033 283 1024 263 q 1063 344 1044 311 q 1100 404 1081 376 q 1146 469 1120 437 q 1296 702 1228 580 q 1415 948 1365 824 q 1480 973 1457 956 q 1511 1007 1502 991 q 1521 1037 1520 1024 q 1522 1052 1522 1050 q 1497 1009 1513 1024 q 1467 988 1481 994 q 1440 980 1452 981 q 1426 978 1428 978 q 1370 975 1422 978 q 1259 972 1319 972 q 1121 974 1193 972 q 976 976 1050 976 q 779 968 876 976 q 601 933 681 959 q 464 858 520 907 q 387 728 407 809 q 384 712 387 724 q 376 687 381 700 q 360 664 370 674 q 337 654 350 654 q 306 665 322 654 q 278 695 291 676 q 256 742 265 715 q 248 798 248 769 q 277 902 248 846 q 369 1005 306 957 q 535 1083 433 1052 q 783 1115 637 1115 q 1041 1099 911 1115 q 1285 1083 1170 1083 q 1398 1087 1359 1083 q 1457 1094 1437 1091 q 1486 1102 1478 1098 q 1509 1106 1494 1106 q 1555 1094 1531 1106 q 1578 1039 1578 1081 q 1557 959 1578 1024 q 1494 795 1537 894 q 1386 574 1452 696 q 1231 324 1320 452 q 1170 224 1193 269 q 1148 152 1148 180 q 1158 123 1148 135 q 1191 111 1169 111 q 1250 131 1217 111 q 1313 174 1283 150 q 1381 237 1346 202 q 1607 485 1493 363 q 1819 705 1722 607 q 1981 867 1915 802 q 2063 944 2048 931 q 2093 965 2076 956 q 2122 979 2106 972 q 2156 985 2139 985 q 2206 959 2187 985 z "},"Z":{"ha":1328,"x_min":244,"x_max":1587,"o":"m 1578 941 q 1498 761 1552 848 q 1370 594 1444 674 q 1207 440 1296 513 q 1022 302 1119 367 q 1053 299 1037 300 q 1083 298 1069 298 q 1119 300 1102 298 q 1156 302 1137 302 q 1205 286 1178 302 q 1231 237 1231 270 q 1217 199 1231 213 q 1180 179 1202 185 q 1134 170 1157 172 q 1094 169 1111 169 q 870 204 978 169 q 643 78 754 135 q 435 -24 531 20 q 633 -94 537 -54 q 822 -169 730 -133 q 1004 -231 915 -206 q 1180 -256 1093 -256 q 1251 -246 1219 -256 q 1306 -225 1283 -237 q 1343 -202 1330 -213 q 1356 -187 1356 -191 q 1378 -172 1365 -172 q 1397 -185 1389 -172 q 1406 -224 1406 -198 q 1399 -276 1406 -243 q 1369 -343 1393 -309 q 1296 -401 1344 -376 q 1165 -426 1248 -426 q 1048 -415 1109 -426 q 905 -373 987 -404 q 712 -287 822 -343 q 450 -141 602 -231 l 450 -139 q 426 -125 450 -135 q 373 -98 402 -115 q 320 -55 344 -81 q 296 9 296 -28 q 304 48 296 31 q 322 77 311 65 q 344 95 333 89 q 361 106 356 102 q 533 184 443 141 q 719 280 624 228 q 681 306 702 291 q 641 337 659 320 q 609 372 622 354 q 596 413 596 391 q 609 445 596 431 q 641 459 622 459 q 678 445 654 459 q 730 413 702 431 q 786 376 757 394 q 841 348 815 357 q 1068 493 959 417 q 1257 642 1176 569 q 1388 784 1339 715 q 1437 913 1437 854 q 1492 935 1472 920 q 1519 966 1511 950 q 1530 993 1528 981 q 1531 1006 1531 1004 q 1507 968 1522 981 q 1479 947 1493 954 q 1453 939 1465 941 q 1435 937 1441 937 q 1414 937 1433 937 q 1366 938 1394 937 q 1303 940 1337 939 q 1237 943 1269 941 q 1042 958 1143 950 q 841 967 941 967 q 685 957 759 967 q 550 924 611 948 q 444 857 489 900 q 380 748 400 815 q 376 733 380 744 q 367 709 372 722 q 352 686 361 696 q 330 676 343 676 q 272 717 300 676 q 244 815 244 757 q 269 908 244 856 q 348 1006 293 961 q 496 1083 404 1052 q 726 1115 589 1115 q 888 1105 806 1115 q 1050 1082 970 1094 q 1206 1060 1130 1070 q 1352 1050 1283 1050 q 1435 1052 1407 1050 q 1477 1056 1463 1054 q 1497 1059 1491 1057 q 1515 1061 1504 1061 q 1561 1049 1535 1061 q 1587 993 1587 1037 q 1578 941 1587 974 z "},"$":{"ha":750,"x_min":-148,"x_max":791,"o":"m 791 969 q 777 874 791 909 q 743 819 763 839 q 698 792 722 798 q 654 785 674 785 q 633 786 643 785 q 624 791 624 787 q 626 796 624 794 q 630 798 628 798 q 682 847 663 820 q 710 900 702 874 q 720 948 719 926 q 722 981 722 970 q 719 1009 722 991 l 574 741 q 572 717 572 730 q 572 689 572 704 q 583 502 572 611 q 594 276 594 393 q 591 196 594 239 q 578 115 587 154 q 557 43 578 85 q 494 -40 537 0 q 386 -108 452 -80 q 230 -137 320 -137 q 170 -130 202 -137 q 111 -122 139 -122 l 91 -159 q 69 -172 85 -172 q 51 -166 57 -172 q 44 -150 44 -159 q 48 -137 44 -144 l 65 -107 q -56 -29 -13 -78 q -119 72 -98 20 q -144 167 -141 124 q -148 224 -148 209 q -138 293 -148 267 q -130 319 -128 319 q -118 346 -130 315 q -76 416 -106 378 q 6 486 -46 454 q 139 519 57 519 q 188 514 163 519 q 241 496 213 509 q 261 484 246 493 q 292 462 276 476 q 319 431 307 448 q 331 393 331 413 l 433 580 q 431 631 431 606 q 430 683 430 657 q 446 889 430 806 q 493 1022 463 972 q 560 1094 522 1072 q 643 1115 598 1115 q 673 1113 659 1115 q 713 1102 687 1111 l 741 1154 q 763 1167 748 1167 q 787 1143 787 1167 q 783 1131 787 1139 l 752 1072 q 779 1032 767 1057 q 791 969 791 1007 m 680 1039 q 628 992 650 1039 q 591 874 606 944 l 680 1039 m 80 7 q 100 1 91 4 q 119 -6 109 -2 l 259 257 q 224 261 243 257 q 206 272 206 265 q 213 285 206 278 q 231 304 220 293 q 248 329 241 315 q 256 359 256 343 q 217 429 256 409 q 135 448 178 448 q 67 432 96 448 q 15 394 37 417 q -22 349 -7 372 q -43 313 -37 326 q -53 295 -43 315 q -63 209 -63 276 q -63 195 -63 204 q -61 178 -63 187 q -59 155 -61 174 q -44 109 -57 135 q -3 56 -31 83 q 80 7 26 28 m 446 341 q 443 409 444 372 q 437 485 441 446 l 170 -13 q 181 -14 176 -13 q 193 -15 187 -15 q 324 14 274 -15 q 402 85 374 43 q 439 179 430 128 q 448 272 448 230 q 447 307 448 291 q 446 341 446 324 z "},"%":{"ha":700,"x_min":54,"x_max":643,"o":"m 600 1107 q 631 1081 620 1098 q 643 1026 643 1063 q 610 869 643 961 q 531 679 578 778 q 429 485 483 580 q 331 319 374 391 q 286 239 315 291 q 226 127 257 187 q 167 7 194 67 q 124 -94 139 -52 q 107 -121 117 -115 q 93 -128 98 -128 q 65 -97 76 -128 q 54 -19 54 -67 q 68 80 54 30 q 99 171 81 130 q 132 242 117 213 q 152 274 148 270 q 232 413 189 337 q 320 569 276 489 q 406 727 365 648 q 481 873 448 806 q 536 994 515 941 q 561 1074 557 1046 q 569 1095 561 1081 q 591 1109 576 1109 q 594 1108 593 1109 q 600 1107 596 1107 m 330 757 q 266 724 298 735 q 206 713 233 713 q 115 809 115 713 q 131 886 115 844 q 172 963 146 928 q 234 1021 198 998 q 309 1044 270 1044 q 319 1044 315 1044 q 328 1043 324 1043 q 341 1040 326 1043 q 373 1024 356 1037 q 406 988 391 1011 q 422 924 422 965 q 421 894 422 913 q 412 854 420 876 q 385 806 404 831 q 330 757 367 781 m 306 950 q 272 927 291 944 q 237 886 254 909 q 209 838 220 863 q 198 794 198 813 q 205 771 198 781 q 224 761 211 761 q 246 769 231 761 q 276 786 261 776 q 302 806 291 796 q 313 822 313 817 q 345 868 328 839 q 363 922 363 896 q 356 944 363 933 q 330 954 350 954 q 318 954 324 954 q 306 950 311 954 m 620 202 q 630 152 630 178 q 626 117 630 135 q 613 76 622 98 q 587 38 606 61 q 543 -6 569 15 q 483 -44 517 -28 q 415 -59 450 -59 q 348 -36 374 -59 q 322 41 322 -13 q 337 117 322 76 q 379 193 352 157 q 441 250 406 228 q 517 272 476 272 q 537 270 531 272 q 549 268 539 270 q 571 257 559 265 q 597 237 583 250 q 620 202 611 224 m 522 52 q 555 99 537 72 q 572 150 572 126 q 557 180 572 170 l 556 180 q 539 181 552 181 q 504 167 526 181 q 460 130 481 152 q 423 79 439 107 q 407 22 407 50 q 413 0 407 9 q 433 -9 419 -9 q 453 -4 441 -9 q 479 11 465 2 q 505 31 493 20 q 522 52 517 41 z "},"&":{"ha":924,"x_min":37,"x_max":872,"o":"m 872 150 q 871 138 872 143 q 865 128 870 133 q 795 79 830 94 q 754 63 761 63 q 697 79 728 63 q 646 109 667 94 q 624 80 639 102 q 579 33 609 57 q 499 -10 548 9 q 376 -30 450 -30 q 208 -6 274 -30 q 105 55 143 19 q 52 135 67 91 q 37 222 37 180 q 361 546 37 430 q 358 581 359 565 q 357 611 357 596 q 378 753 357 687 q 434 866 398 819 q 519 940 470 913 q 626 967 569 967 q 706 952 676 967 q 751 916 735 937 q 772 869 767 894 q 778 822 778 844 q 770 758 778 798 q 733 676 763 719 q 676 606 715 637 q 595 550 637 574 q 519 512 554 526 q 476 496 485 498 q 507 406 485 457 q 567 317 530 354 q 569 364 570 337 q 569 415 569 391 q 576 456 570 439 q 598 472 581 472 q 606 471 602 472 q 619 469 611 470 q 657 444 643 457 q 681 419 672 431 q 696 391 691 404 q 717 291 717 344 q 702 204 717 252 q 758 183 730 191 q 812 170 787 176 q 854 160 837 165 q 872 150 870 156 m 496 148 q 531 198 517 169 q 431 325 467 259 q 380 452 396 391 q 356 441 365 446 q 339 431 346 435 l 339 433 q 263 371 291 406 q 220 306 235 337 q 202 247 206 274 q 198 206 198 220 q 211 144 198 169 q 245 104 224 119 q 294 82 267 89 q 348 76 320 76 q 406 86 378 76 q 453 109 433 96 q 484 134 472 122 q 496 148 496 146 m 698 857 q 694 864 698 857 q 682 879 691 870 q 660 894 674 887 q 628 900 646 900 q 591 893 613 898 q 543 865 569 887 q 519 839 533 856 q 492 794 506 822 q 468 727 478 767 q 457 631 457 687 q 457 608 457 620 q 459 583 457 596 q 548 626 504 602 q 627 679 593 650 q 683 742 661 707 q 706 819 706 776 q 703 844 706 833 q 698 857 700 854 z "},"@":{"ha":1017,"x_min":72,"x_max":950,"o":"m 580 252 q 561 259 569 252 q 548 275 554 265 q 543 302 543 285 q 546 328 543 313 q 559 363 550 343 q 544 336 556 354 q 511 300 531 319 q 462 269 491 281 q 398 256 433 256 q 339 282 359 259 q 319 335 319 306 q 332 410 319 374 q 366 477 346 446 q 407 530 385 507 q 446 567 430 552 q 460 580 446 569 q 498 604 474 591 q 556 627 522 617 q 631 637 591 637 q 656 634 643 637 q 680 625 669 631 q 699 605 691 619 q 707 569 707 591 q 694 515 707 546 q 713 494 713 513 q 697 446 713 470 q 662 397 681 422 q 627 347 643 372 q 611 298 611 322 q 622 285 611 285 q 681 299 643 285 q 758 346 720 313 q 825 438 796 380 q 854 585 854 496 q 819 711 854 667 q 740 777 783 756 q 658 803 696 798 q 613 807 620 807 q 483 781 539 807 q 387 716 428 756 q 319 631 346 676 q 277 546 293 585 q 255 481 261 507 q 248 457 248 456 q 231 324 231 381 q 265 173 231 228 q 339 93 298 119 q 446 54 387 61 q 507 48 476 48 q 668 83 600 48 q 778 161 735 119 q 863 276 828 211 l 880 241 q 779 107 837 157 q 661 32 720 57 q 548 0 602 7 q 461 -7 494 -7 l 433 -7 q 424 -6 428 -7 q 244 47 313 7 q 136 139 174 87 q 85 248 98 191 q 72 356 72 306 q 100 523 72 433 q 190 690 128 613 q 353 818 252 767 q 600 869 454 869 q 748 847 683 869 q 857 789 813 826 q 926 704 902 752 q 950 600 950 656 q 909 456 950 526 q 813 339 867 380 q 711 278 759 298 q 600 250 656 256 l 600 252 q 596 251 598 252 q 593 250 594 250 q 586 251 589 250 q 580 252 583 252 m 559 426 q 594 469 572 444 q 644 506 615 493 q 657 554 657 537 q 650 575 657 570 q 637 580 643 580 q 559 546 606 581 q 457 426 513 511 q 422 364 431 387 q 413 326 413 341 q 420 306 413 309 q 430 304 424 302 q 476 323 452 304 q 519 366 500 343 q 549 408 537 389 q 559 426 561 428 z "},"":{"ha":1043,"x_min":-48,"x_max":1057,"o":"m 872 744 q 801 713 831 722 q 748 704 770 704 l 361 -17 q 462 15 406 -7 q 582 80 519 37 q 715 189 646 122 q 854 354 783 256 q 857 357 854 356 q 869 363 863 363 q 878 343 878 363 q 866 297 878 322 q 848 267 854 272 q 756 151 809 211 q 636 37 704 91 q 486 -58 569 -17 q 307 -117 404 -100 l 283 -159 q 263 -172 278 -172 q 243 -166 248 -172 q 237 -150 237 -159 q 241 -137 237 -144 l 250 -120 q 137 -104 191 -120 q 42 -53 83 -87 q -24 34 0 -19 q -48 157 -48 87 q -14 335 -48 235 q 98 559 20 435 q 235 744 165 665 q 375 881 306 822 q 512 978 444 939 q 641 1043 580 1017 q 666 1054 641 1043 q 731 1077 691 1065 q 818 1099 770 1089 q 909 1109 865 1109 l 935 1154 q 956 1167 941 1167 q 980 1143 980 1167 q 976 1131 980 1139 l 961 1102 q 972 1098 965 1102 q 1015 1072 994 1089 q 1044 1036 1030 1057 q 1057 983 1057 1015 q 1051 940 1057 967 q 1025 881 1044 913 q 969 813 1006 848 q 872 744 933 778 m 965 1019 q 956 1026 961 1022 q 924 1035 946 1033 l 815 828 q 876 859 846 841 q 928 898 906 878 q 964 941 950 919 q 978 983 978 963 q 965 1019 978 1004 m 700 717 q 667 763 674 735 q 659 809 659 791 q 660 815 659 811 q 667 819 661 819 q 686 813 672 819 q 724 807 700 807 q 748 809 739 807 l 867 1028 q 765 994 835 1020 q 604 909 694 969 q 411 748 513 850 q 215 489 309 646 q 116 285 144 369 q 87 144 87 202 q 106 58 87 91 q 150 8 124 26 q 203 -16 176 -9 q 244 -24 230 -22 q 269 -26 250 -26 q 284 -26 276 -26 q 302 -24 293 -26 l 700 717 z "},"":{"ha":1207,"x_min":52,"x_max":1174,"o":"m 1089 1098 q 1131 1072 1111 1089 q 1160 1036 1146 1057 q 1174 983 1174 1015 q 1168 940 1174 967 q 1142 881 1161 913 q 1086 813 1122 848 q 989 744 1050 778 q 917 713 948 722 q 863 704 885 704 q 818 716 835 704 q 791 744 800 728 q 779 780 781 761 q 776 809 776 798 q 776 816 776 813 q 781 819 776 819 q 805 813 791 819 q 839 807 819 807 q 922 825 878 807 q 1005 869 967 843 q 1069 926 1043 894 q 1094 983 1094 957 q 1094 996 1094 987 q 1089 1014 1094 1006 q 1070 1029 1083 1022 q 1031 1035 1057 1035 q 1016 1034 1024 1035 q 998 1031 1007 1033 q 929 1012 983 1028 q 795 954 874 996 q 622 835 717 911 q 433 639 528 759 l 530 639 q 554 615 554 639 q 530 591 554 591 l 396 591 q 380 566 387 578 q 363 539 372 554 l 467 539 q 491 515 491 539 q 467 491 491 491 l 333 491 q 233 286 261 370 q 206 144 206 202 q 228 51 206 85 q 278 0 250 17 q 332 -21 306 -17 q 370 -26 359 -26 q 419 -21 389 -26 q 482 -3 448 -17 q 554 38 517 11 q 622 111 591 65 q 626 117 624 113 q 635 122 631 122 q 644 80 644 122 q 637 39 644 70 q 602 -29 630 7 q 518 -93 574 -65 q 365 -120 461 -120 q 252 -104 306 -120 q 157 -53 198 -87 q 93 33 117 -19 q 69 156 69 85 q 93 306 69 222 q 174 491 117 389 l 76 491 q 52 515 52 491 q 76 539 52 539 l 202 539 q 218 565 209 554 q 233 591 226 576 l 139 591 q 115 615 115 591 q 139 639 115 639 l 267 639 q 519 902 389 807 q 757 1043 648 996 q 843 1076 798 1061 q 927 1099 880 1089 q 1019 1109 974 1109 q 1089 1098 1056 1109 z "},"":{"ha":993,"x_min":-63,"x_max":1144,"o":"m 1030 1119 q 1087 1094 1061 1111 q 1126 1054 1107 1080 q 1144 987 1144 1028 q 1135 927 1144 961 q 1100 850 1126 893 q 1074 817 1087 833 q 1048 786 1063 802 q 1017 757 1033 770 q 943 711 974 724 q 887 698 911 698 q 847 708 865 698 q 817 733 830 719 q 797 764 804 748 q 791 791 791 780 q 798 798 791 798 q 812 796 804 798 q 833 794 820 794 q 906 814 867 794 q 982 863 946 833 q 1043 927 1019 893 q 1067 993 1067 961 q 1056 1029 1067 1007 q 1009 1050 1046 1050 q 957 1039 987 1050 q 903 1012 944 1035 q 803 942 861 989 q 677 819 744 894 q 543 639 609 744 l 654 639 q 678 615 678 639 q 654 591 678 591 l 515 591 q 501 566 507 578 q 487 539 494 554 l 591 539 q 615 515 615 539 q 591 491 615 491 l 465 491 q 396 337 424 413 q 351 194 369 261 q 324 71 333 128 q 309 -24 315 15 q 415 -30 361 -30 q 539 -14 485 -30 q 611 44 593 2 l 613 46 q 617 50 617 50 q 621 43 620 50 q 622 37 622 35 q 612 -19 620 7 q 579 -68 604 -46 q 507 -101 554 -89 q 383 -113 461 -113 q 242 -108 315 -113 q 106 -104 169 -104 q 6 -111 48 -104 q -54 -143 -35 -119 q -61 -146 -57 -146 q -63 -144 -63 -146 l -63 -141 q -53 -95 -63 -119 q -21 -53 -43 -72 q 34 -21 0 -33 q 117 -9 69 -9 q 213 -15 157 -9 q 230 171 217 85 q 257 322 243 257 q 296 459 276 396 q 303 476 300 469 q 309 491 306 483 l 200 491 q 176 515 176 491 q 200 539 176 539 l 328 539 q 340 566 333 554 q 352 591 346 578 l 263 591 q 239 615 239 591 q 263 639 239 639 l 376 639 q 544 869 454 780 q 717 1013 633 959 q 809 1067 761 1043 q 899 1104 850 1087 q 996 1120 948 1120 q 1013 1120 1006 1120 q 1030 1119 1020 1120 z "},"+":{"ha":561,"x_min":15,"x_max":539,"o":"m 537 565 q 538 562 537 563 q 539 557 539 561 l 539 552 q 533 496 539 524 q 508 447 528 469 q 454 413 489 426 q 359 400 419 400 q 337 401 348 400 q 315 402 326 402 q 273 310 291 354 q 256 235 256 267 q 263 206 256 220 q 270 189 270 193 q 269 187 270 187 q 238 199 254 187 q 209 229 222 211 q 188 267 196 246 q 180 306 180 287 q 189 354 180 330 q 215 409 198 378 q 180 411 196 411 q 146 411 163 411 q 66 402 100 411 q 19 367 31 393 q 15 372 15 367 q 23 418 15 394 q 48 460 31 441 q 91 493 65 480 q 154 506 117 506 q 203 502 174 506 q 263 494 231 498 q 305 581 287 537 q 322 661 322 624 q 291 735 322 706 q 289 737 289 735 q 287 741 287 739 q 289 743 287 743 q 322 732 304 743 q 357 706 341 722 q 385 667 374 689 q 396 622 396 644 q 384 556 396 591 q 356 485 372 522 q 467 496 419 485 q 531 559 515 507 l 533 561 q 537 565 533 565 z "},"-":{"ha":656,"x_min":89,"x_max":613,"o":"m 609 565 q 613 557 613 561 l 613 552 q 605 496 611 524 q 580 447 598 469 q 526 413 561 426 q 431 400 491 400 q 321 406 378 400 q 217 411 265 411 q 138 402 170 411 q 93 367 106 393 q 89 372 89 367 q 96 417 89 393 q 120 460 104 441 q 162 493 137 480 q 224 506 187 506 q 331 495 267 506 q 454 485 394 485 q 548 500 507 485 q 604 559 589 515 l 606 561 q 609 565 606 565 z "},"d":{"ha":656,"x_min":-52,"x_max":911,"o":"m 896 969 q 904 954 900 961 q 911 917 911 935 q 904 881 911 900 q 872 844 896 863 q 665 637 756 748 q 588 535 626 589 q 520 422 550 481 q 472 300 491 363 q 452 174 454 237 q 458 149 452 159 q 481 139 465 139 q 542 175 506 139 q 613 254 578 211 q 678 332 648 296 q 719 369 707 369 q 744 343 744 369 q 741 320 744 331 q 733 302 737 309 q 631 150 685 217 q 529 46 585 93 q 413 0 472 0 q 338 32 365 0 q 309 113 311 65 q 314 144 309 119 q 337 193 319 169 q 313 172 324 183 q 295 147 304 163 q 285 111 287 131 q 175 30 241 59 q 56 0 109 0 q -27 35 -2 0 q -52 133 -52 70 q -28 271 -52 194 q 44 426 -4 348 q 184 579 107 530 q 326 628 261 628 q 391 611 363 628 q 433 570 419 594 q 539 739 483 667 q 643 859 594 811 q 752 956 698 917 q 781 972 765 965 q 812 985 796 980 q 846 991 828 991 q 874 986 861 991 q 896 969 887 981 m 372 450 q 375 463 374 457 q 376 474 376 469 q 368 500 376 494 q 354 506 359 506 q 321 496 339 506 q 288 476 304 487 q 262 455 272 465 q 252 443 252 444 q 194 377 222 415 q 145 301 167 339 q 111 230 124 263 q 98 176 98 196 q 115 156 98 156 q 178 176 146 156 q 238 228 209 196 q 291 296 267 259 q 332 366 315 333 q 360 422 350 398 q 372 450 370 446 z "},"/":{"ha":611,"x_min":11,"x_max":600,"o":"m 557 1107 q 589 1081 578 1098 q 600 1026 600 1063 q 568 869 600 961 q 488 679 535 778 q 386 485 441 580 q 289 319 331 391 q 244 239 272 291 q 183 127 215 187 q 124 7 152 67 q 81 -94 96 -52 q 65 -121 74 -115 q 50 -128 56 -128 q 21 -97 31 -128 q 11 -19 11 -67 q 25 80 11 30 q 56 171 39 130 q 90 242 74 213 q 109 274 106 270 q 190 413 146 337 q 277 569 233 489 q 362 727 320 648 q 437 873 404 806 q 493 994 470 941 q 519 1074 515 1046 q 526 1095 519 1081 q 548 1109 533 1109 q 552 1108 550 1109 q 557 1107 554 1107 z "},"!":{"ha":581,"x_min":7,"x_max":567,"o":"m 154 -6 q 123 -52 144 -31 q 74 -72 102 -72 q 50 -67 61 -72 q 28 -52 37 -61 q 13 -31 19 -43 q 7 0 7 -19 q 18 47 7 28 q 43 80 28 67 q 73 98 57 93 q 98 104 89 104 q 146 81 130 104 q 163 35 163 59 q 154 -6 163 19 m 526 1059 q 556 1032 546 1050 q 567 980 567 1015 q 564 932 567 959 q 552 870 561 906 q 487 700 528 778 q 399 542 446 622 q 301 369 352 461 q 207 159 250 278 q 191 132 198 139 q 176 126 183 126 q 149 155 161 126 q 137 231 137 183 q 151 329 137 280 q 181 419 165 378 q 214 490 198 461 q 235 528 230 519 q 333 696 289 622 q 409 830 378 770 q 461 936 441 889 q 487 1026 481 983 q 494 1048 487 1035 q 517 1061 502 1061 q 520 1060 519 1061 q 526 1059 522 1059 z "},",":{"ha":220,"x_min":-72,"x_max":200,"o":"m 194 -19 q 161 -76 187 -46 q 100 -131 135 -106 q 25 -174 65 -156 q -48 -198 -15 -193 q -72 -194 -70 -198 q -65 -180 -72 -189 q -54 -170 -57 -170 q 1 -113 -20 -144 q 35 -57 22 -81 q 54 -18 43 -39 q 79 21 65 4 q 110 50 93 39 q 146 61 128 61 q 185 49 170 61 q 200 11 200 37 q 194 -19 200 -2 z "},".":{"ha":183,"x_min":19,"x_max":165,"o":"m 94 0 l 85 0 q 67 1 78 0 q 44 7 56 2 q 26 24 33 13 q 19 54 19 35 q 44 104 19 87 q 96 120 70 120 q 145 105 126 120 q 165 63 165 89 q 148 23 165 43 q 94 0 131 4 z "},"[":{"ha":404,"x_min":41,"x_max":739,"o":"m 200 -128 q 113 -107 144 -128 q 65 -57 81 -87 q 44 7 48 -28 q 41 74 41 43 q 66 243 41 152 q 130 426 91 333 q 216 607 169 519 q 307 770 263 696 q 388 898 352 844 q 441 974 424 952 q 470 1010 454 987 q 511 1054 487 1033 q 570 1090 535 1074 q 657 1106 606 1106 q 682 1105 669 1106 q 708 1100 696 1104 q 730 1090 720 1096 q 739 1070 739 1083 q 726 1037 739 1039 q 688 1031 713 1035 q 628 1004 663 1026 q 548 907 593 981 q 473 777 517 854 q 383 615 430 700 q 292 441 337 530 q 210 275 246 352 q 152 139 174 198 q 130 52 130 80 q 148 -9 131 11 q 184 -43 165 -30 q 219 -64 204 -56 q 235 -89 235 -72 q 230 -111 235 -98 q 200 -128 224 -124 z "},"]":{"ha":743,"x_min":4,"x_max":704,"o":"m 544 1106 q 631 1085 600 1106 q 680 1034 663 1065 q 700 968 696 1004 q 704 902 704 931 q 679 733 704 824 q 615 550 654 643 q 529 369 576 457 q 437 206 481 280 q 356 79 393 131 q 304 4 320 26 q 272 -34 289 -11 q 231 -78 256 -57 q 169 -113 206 -98 q 80 -128 133 -128 q 31 -122 57 -128 q 4 -94 4 -117 q 10 -66 4 -72 q 28 -57 17 -59 q 56 -54 39 -56 q 94 -41 72 -52 q 142 -5 117 -30 q 196 70 167 20 q 271 201 228 124 q 361 363 315 278 q 453 537 407 448 q 534 703 498 626 q 593 839 570 780 q 615 926 615 898 q 596 986 613 965 q 560 1019 580 1007 q 525 1041 541 1031 q 509 1067 509 1050 q 515 1089 509 1076 q 544 1106 520 1102 z "},"`":{"ha":354,"x_min":30,"x_max":322,"o":"m 319 728 q 315 722 319 728 q 300 713 311 717 q 271 707 289 709 q 228 713 254 706 q 169 740 204 720 q 104 783 135 759 q 51 831 72 807 q 30 872 30 856 q 40 894 30 885 q 67 905 50 902 q 102 906 83 907 q 137 902 120 906 q 191 873 159 896 q 252 822 222 850 q 302 769 281 794 q 322 735 322 744 q 319 728 322 731 z "},"":{"ha":352,"x_min":31,"x_max":324,"o":"m 35 728 q 31 735 31 731 q 52 769 31 744 q 102 822 72 794 q 163 873 131 850 q 217 902 194 896 q 252 906 233 906 q 287 905 270 907 q 314 894 304 902 q 324 872 324 885 q 303 831 324 856 q 250 783 281 807 q 184 740 219 759 q 126 713 150 720 q 82 707 100 706 q 54 713 65 709 q 39 722 43 717 q 35 728 35 728 z "},"":{"ha":481,"x_min":2,"x_max":431,"o":"m 6 865 q 6 872 2 869 q 36 888 9 878 q 99 906 63 898 q 172 917 135 913 q 231 915 209 920 q 255 906 241 911 q 280 898 269 902 q 297 887 289 893 q 315 878 306 881 q 355 832 333 863 q 394 770 376 802 q 421 712 411 739 q 430 678 431 685 q 422 672 426 674 q 402 670 424 672 q 335 700 380 669 q 283 750 311 719 q 235 815 256 781 q 155 809 196 809 q 83 817 113 809 q 42 831 57 822 q 18 846 26 839 q 7 859 9 854 q 6 865 6 865 z "},"":{"ha":317,"x_min":43,"x_max":280,"o":"m 72 757 q 56 768 70 757 q 43 809 43 778 q 51 842 43 822 q 72 879 59 861 q 100 909 85 896 q 130 922 115 922 q 166 900 154 922 q 178 861 178 878 q 165 831 178 848 q 135 796 152 813 q 103 769 119 780 q 80 757 87 757 l 72 757 m 174 676 q 158 686 172 676 q 144 728 144 696 q 153 760 144 741 q 174 797 161 780 q 202 828 187 815 q 231 841 217 841 q 268 819 256 841 q 280 780 280 796 q 267 749 280 767 q 237 715 254 731 q 205 687 220 698 q 181 676 189 676 l 174 676 z "},"":{"ha":228,"x_min":67,"x_max":176,"o":"m 96 783 q 81 794 94 783 q 67 835 67 804 q 83 892 67 861 q 128 922 100 922 q 164 900 152 922 q 176 861 176 878 q 168 834 176 848 q 147 809 159 820 q 123 791 135 798 q 104 783 111 783 l 96 783 m 109 822 l 113 822 q 131 833 119 822 q 144 856 144 844 q 139 872 144 863 q 124 881 133 881 q 104 869 111 881 q 96 844 96 856 q 102 828 96 833 q 109 822 106 824 z "},"":{"ha":444,"x_min":44,"x_max":396,"o":"m 389 800 q 396 785 396 793 q 386 753 396 767 q 360 729 376 739 q 327 714 344 719 q 294 709 309 709 q 246 717 269 709 q 203 733 224 724 q 160 750 181 743 q 117 757 139 757 q 95 756 107 757 q 70 754 83 754 q 44 776 44 754 q 77 830 44 809 q 141 850 109 850 q 208 837 178 850 q 276 809 239 824 q 304 806 291 809 q 331 802 317 802 q 348 804 339 802 q 367 806 357 806 q 389 800 378 806 z "},"'":{"ha":335,"x_min":20,"x_max":304,"o":"m 289 872 q 278 847 285 863 q 256 815 270 831 q 168 744 213 774 q 69 698 122 713 q 63 696 67 696 q 55 694 59 694 q 46 693 50 694 q 22 698 24 693 q 27 708 20 702 q 37 719 33 715 q 41 720 37 719 q 95 778 74 746 q 130 835 117 809 q 137 852 130 833 q 139 854 137 854 l 139 856 q 173 912 150 880 q 226 950 196 944 q 282 937 261 956 q 289 872 304 919 z "},"":{"ha":1957,"x_min":59,"x_max":2220,"o":"m 1796 0 q 1783 -4 1791 -2 q 1750 -6 1776 -6 q 1634 23 1676 -6 q 1574 96 1593 52 q 1555 195 1556 141 q 1563 304 1554 250 q 1309 287 1444 291 q 1210 290 1259 287 q 1115 300 1161 293 q 1167 282 1135 291 q 1243 269 1198 274 q 1028 116 1137 187 q 814 -6 919 44 q 611 -80 709 -56 q 430 -91 513 -104 q 281 -46 352 -80 q 220 -10 252 -31 q 161 42 189 11 q 110 113 133 72 q 72 207 87 154 q 63 293 59 252 q 82 360 67 326 q 143 413 98 394 q 228 424 187 430 q 297 394 263 420 q 350 304 331 369 q 354 263 356 283 q 343 229 352 246 q 311 202 333 211 q 276 200 289 193 q 255 221 263 207 q 243 250 246 235 q 237 274 239 265 q 220 309 233 291 q 187 328 207 328 q 178 309 180 328 q 182 262 176 291 q 206 200 189 233 q 254 136 222 167 q 331 82 285 106 q 444 54 378 59 q 564 69 496 50 q 710 122 631 87 q 876 206 789 157 q 1057 309 963 254 q 932 347 989 322 q 842 411 876 372 q 798 505 807 450 q 813 633 789 559 q 918 804 846 731 q 1081 927 989 876 q 1280 1011 1174 978 q 1487 1064 1385 1044 q 1680 1092 1589 1083 q 1831 1104 1770 1100 q 1898 1098 1869 1106 q 1943 1069 1924 1089 q 1956 1006 1961 1048 l 1956 1007 l 1956 1006 q 1983 1031 1970 1019 q 2011 1054 1996 1043 q 2065 1085 2039 1076 q 2111 1094 2087 1094 q 2152 1069 2135 1093 q 2167 1024 2163 1046 q 2162 980 2170 1004 q 2128 933 2154 956 q 1985 794 2056 869 q 1861 643 1926 730 q 1750 456 1796 556 q 1861 483 1815 472 q 1922 491 1907 494 q 1944 474 1941 487 q 1938 445 1946 461 q 1916 413 1930 430 q 1889 383 1902 396 q 1867 367 1880 374 q 1841 352 1856 359 q 1807 341 1826 344 q 1774 335 1793 337 q 1712 323 1746 330 q 1639 313 1678 317 q 1662 306 1648 309 q 1696 304 1676 304 q 1689 120 1676 207 q 1707 96 1693 100 q 1742 104 1724 93 q 1774 119 1759 115 q 1808 124 1789 124 q 1844 98 1828 124 q 1844 41 1861 72 q 1796 0 1828 9 m 1172 380 q 1378 524 1278 446 q 1567 683 1478 602 q 1727 850 1656 765 q 1844 1019 1798 935 q 1608 994 1728 1020 q 1380 924 1489 969 q 1181 821 1270 880 q 1034 701 1091 763 q 963 578 978 639 q 989 467 948 517 q 1068 408 1020 430 q 1172 380 1115 387 m 1613 487 q 1717 700 1648 581 q 1560 544 1646 626 q 1378 380 1474 463 q 1484 395 1431 385 q 1589 417 1537 406 q 1605 467 1598 448 q 1613 487 1611 485 m 2217 1130 q 2213 1124 2217 1130 q 2198 1115 2209 1119 q 2169 1109 2187 1111 q 2126 1115 2152 1107 q 2068 1142 2102 1122 q 2002 1185 2033 1161 q 1949 1233 1970 1209 q 1928 1274 1928 1257 q 1938 1295 1928 1287 q 1965 1306 1948 1304 q 2000 1308 1981 1309 q 2035 1304 2019 1307 q 2089 1275 2057 1298 q 2150 1224 2120 1252 q 2200 1171 2180 1196 q 2220 1137 2220 1146 q 2217 1130 2220 1133 z "},"":{"ha":1957,"x_min":59,"x_max":2267,"o":"m 1796 0 q 1783 -4 1791 -2 q 1750 -6 1776 -6 q 1634 23 1676 -6 q 1574 96 1593 52 q 1555 195 1556 141 q 1563 304 1554 250 q 1309 287 1444 291 q 1210 290 1259 287 q 1115 300 1161 293 q 1167 282 1135 291 q 1243 269 1198 274 q 1028 116 1137 187 q 814 -6 919 44 q 611 -80 709 -56 q 430 -91 513 -104 q 281 -46 352 -80 q 220 -10 252 -31 q 161 42 189 11 q 110 113 133 72 q 72 207 87 154 q 63 293 59 252 q 82 360 67 326 q 143 413 98 394 q 228 424 187 430 q 297 394 263 420 q 350 304 331 369 q 354 263 356 283 q 343 229 352 246 q 311 202 333 211 q 276 200 289 193 q 255 221 263 207 q 243 250 246 235 q 237 274 239 265 q 220 309 233 291 q 187 328 207 328 q 178 309 180 328 q 182 262 176 291 q 206 200 189 233 q 254 136 222 167 q 331 82 285 106 q 444 54 378 59 q 564 69 496 50 q 710 122 631 87 q 876 206 789 157 q 1057 309 963 254 q 932 347 989 322 q 842 411 876 372 q 798 505 807 450 q 813 633 789 559 q 918 804 846 731 q 1081 927 989 876 q 1280 1011 1174 978 q 1487 1064 1385 1044 q 1680 1092 1589 1083 q 1831 1104 1770 1100 q 1898 1098 1869 1106 q 1943 1069 1924 1089 q 1956 1006 1961 1048 l 1956 1007 l 1956 1006 q 1983 1031 1970 1019 q 2011 1054 1996 1043 q 2065 1085 2039 1076 q 2111 1094 2087 1094 q 2152 1069 2135 1093 q 2167 1024 2163 1046 q 2162 980 2170 1004 q 2128 933 2154 956 q 1985 794 2056 869 q 1861 643 1926 730 q 1750 456 1796 556 q 1861 483 1815 472 q 1922 491 1907 494 q 1944 474 1941 487 q 1938 445 1946 461 q 1916 413 1930 430 q 1889 383 1902 396 q 1867 367 1880 374 q 1841 352 1856 359 q 1807 341 1826 344 q 1774 335 1793 337 q 1712 323 1746 330 q 1639 313 1678 317 q 1662 306 1648 309 q 1696 304 1676 304 q 1689 120 1676 207 q 1707 96 1693 100 q 1742 104 1724 93 q 1774 119 1759 115 q 1808 124 1789 124 q 1844 98 1828 124 q 1844 41 1861 72 q 1796 0 1828 9 m 1172 380 q 1378 524 1278 446 q 1567 683 1478 602 q 1727 850 1656 765 q 1844 1019 1798 935 q 1608 994 1728 1020 q 1380 924 1489 969 q 1181 821 1270 880 q 1034 701 1091 763 q 963 578 978 639 q 989 467 948 517 q 1068 408 1020 430 q 1172 380 1115 387 m 1613 487 q 1717 700 1648 581 q 1560 544 1646 626 q 1378 380 1474 463 q 1484 395 1431 385 q 1589 417 1537 406 q 1605 467 1598 448 q 1613 487 1611 485 m 1978 1130 q 1974 1137 1974 1133 q 1994 1171 1974 1146 q 2044 1224 2015 1196 q 2106 1275 2074 1252 q 2159 1304 2137 1298 q 2194 1308 2176 1307 q 2230 1306 2213 1309 q 2256 1295 2246 1304 q 2267 1274 2267 1287 q 2245 1233 2267 1257 q 2193 1185 2224 1209 q 2127 1142 2161 1161 q 2069 1115 2093 1122 q 2025 1109 2043 1107 q 1996 1115 2007 1111 q 1981 1124 1985 1119 q 1978 1130 1978 1130 z "},"":{"ha":1957,"x_min":59,"x_max":2309,"o":"m 1796 0 q 1783 -4 1791 -2 q 1750 -6 1776 -6 q 1634 23 1676 -6 q 1574 96 1593 52 q 1555 195 1556 141 q 1563 304 1554 250 q 1309 287 1444 291 q 1210 290 1259 287 q 1115 300 1161 293 q 1167 282 1135 291 q 1243 269 1198 274 q 1028 116 1137 187 q 814 -6 919 44 q 611 -80 709 -56 q 430 -91 513 -104 q 281 -46 352 -80 q 220 -10 252 -31 q 161 42 189 11 q 110 113 133 72 q 72 207 87 154 q 63 293 59 252 q 82 360 67 326 q 143 413 98 394 q 228 424 187 430 q 297 394 263 420 q 350 304 331 369 q 354 263 356 283 q 343 229 352 246 q 311 202 333 211 q 276 200 289 193 q 255 221 263 207 q 243 250 246 235 q 237 274 239 265 q 220 309 233 291 q 187 328 207 328 q 178 309 180 328 q 182 262 176 291 q 206 200 189 233 q 254 136 222 167 q 331 82 285 106 q 444 54 378 59 q 564 69 496 50 q 710 122 631 87 q 876 206 789 157 q 1057 309 963 254 q 932 347 989 322 q 842 411 876 372 q 798 505 807 450 q 813 633 789 559 q 918 804 846 731 q 1081 927 989 876 q 1280 1011 1174 978 q 1487 1064 1385 1044 q 1680 1092 1589 1083 q 1831 1104 1770 1100 q 1898 1098 1869 1106 q 1943 1069 1924 1089 q 1956 1006 1961 1048 l 1956 1007 l 1956 1006 q 1983 1031 1970 1019 q 2011 1054 1996 1043 q 2065 1085 2039 1076 q 2111 1094 2087 1094 q 2152 1069 2135 1093 q 2167 1024 2163 1046 q 2162 980 2170 1004 q 2128 933 2154 956 q 1985 794 2056 869 q 1861 643 1926 730 q 1750 456 1796 556 q 1861 483 1815 472 q 1922 491 1907 494 q 1944 474 1941 487 q 1938 445 1946 461 q 1916 413 1930 430 q 1889 383 1902 396 q 1867 367 1880 374 q 1841 352 1856 359 q 1807 341 1826 344 q 1774 335 1793 337 q 1712 323 1746 330 q 1639 313 1678 317 q 1662 306 1648 309 q 1696 304 1676 304 q 1689 120 1676 207 q 1707 96 1693 100 q 1742 104 1724 93 q 1774 119 1759 115 q 1808 124 1789 124 q 1844 98 1828 124 q 1844 41 1861 72 q 1796 0 1828 9 m 1172 380 q 1378 524 1278 446 q 1567 683 1478 602 q 1727 850 1656 765 q 1844 1019 1798 935 q 1608 994 1728 1020 q 1380 924 1489 969 q 1181 821 1270 880 q 1034 701 1091 763 q 963 578 978 639 q 989 467 948 517 q 1068 408 1020 430 q 1172 380 1115 387 m 1613 487 q 1717 700 1648 581 q 1560 544 1646 626 q 1378 380 1474 463 q 1484 395 1431 385 q 1589 417 1537 406 q 1605 467 1598 448 q 1613 487 1611 485 m 1883 1244 q 1883 1252 1880 1248 q 1914 1268 1887 1257 q 1977 1285 1941 1278 q 2050 1296 2013 1293 q 2109 1294 2087 1300 q 2132 1286 2119 1291 q 2157 1278 2146 1281 q 2175 1267 2167 1272 q 2193 1257 2183 1261 q 2232 1212 2211 1243 q 2271 1150 2254 1181 q 2299 1092 2289 1119 q 2307 1057 2309 1065 q 2300 1052 2304 1054 q 2280 1050 2302 1052 q 2213 1080 2257 1048 q 2161 1130 2189 1098 q 2113 1194 2133 1161 q 2032 1189 2074 1189 q 1961 1196 1991 1189 q 1919 1210 1935 1202 q 1895 1226 1904 1219 q 1885 1239 1887 1233 q 1883 1244 1883 1244 z "},"":{"ha":1957,"x_min":59,"x_max":2261,"o":"m 1796 0 q 1783 -4 1791 -2 q 1750 -6 1776 -6 q 1634 23 1676 -6 q 1574 96 1593 52 q 1555 195 1556 141 q 1563 304 1554 250 q 1309 287 1444 291 q 1210 290 1259 287 q 1115 300 1161 293 q 1167 282 1135 291 q 1243 269 1198 274 q 1028 116 1137 187 q 814 -6 919 44 q 611 -80 709 -56 q 430 -91 513 -104 q 281 -46 352 -80 q 220 -10 252 -31 q 161 42 189 11 q 110 113 133 72 q 72 207 87 154 q 63 293 59 252 q 82 360 67 326 q 143 413 98 394 q 228 424 187 430 q 297 394 263 420 q 350 304 331 369 q 354 263 356 283 q 343 229 352 246 q 311 202 333 211 q 276 200 289 193 q 255 221 263 207 q 243 250 246 235 q 237 274 239 265 q 220 309 233 291 q 187 328 207 328 q 178 309 180 328 q 182 262 176 291 q 206 200 189 233 q 254 136 222 167 q 331 82 285 106 q 444 54 378 59 q 564 69 496 50 q 710 122 631 87 q 876 206 789 157 q 1057 309 963 254 q 932 347 989 322 q 842 411 876 372 q 798 505 807 450 q 813 633 789 559 q 918 804 846 731 q 1081 927 989 876 q 1280 1011 1174 978 q 1487 1064 1385 1044 q 1680 1092 1589 1083 q 1831 1104 1770 1100 q 1898 1098 1869 1106 q 1943 1069 1924 1089 q 1956 1006 1961 1048 l 1956 1007 l 1956 1006 q 1983 1031 1970 1019 q 2011 1054 1996 1043 q 2065 1085 2039 1076 q 2111 1094 2087 1094 q 2152 1069 2135 1093 q 2167 1024 2163 1046 q 2162 980 2170 1004 q 2128 933 2154 956 q 1985 794 2056 869 q 1861 643 1926 730 q 1750 456 1796 556 q 1861 483 1815 472 q 1922 491 1907 494 q 1944 474 1941 487 q 1938 445 1946 461 q 1916 413 1930 430 q 1889 383 1902 396 q 1867 367 1880 374 q 1841 352 1856 359 q 1807 341 1826 344 q 1774 335 1793 337 q 1712 323 1746 330 q 1639 313 1678 317 q 1662 306 1648 309 q 1696 304 1676 304 q 1689 120 1676 207 q 1707 96 1693 100 q 1742 104 1724 93 q 1774 119 1759 115 q 1808 124 1789 124 q 1844 98 1828 124 q 1844 41 1861 72 q 1796 0 1828 9 m 1172 380 q 1378 524 1278 446 q 1567 683 1478 602 q 1727 850 1656 765 q 1844 1019 1798 935 q 1608 994 1728 1020 q 1380 924 1489 969 q 1181 821 1270 880 q 1034 701 1091 763 q 963 578 978 639 q 989 467 948 517 q 1068 408 1020 430 q 1172 380 1115 387 m 1613 487 q 1717 700 1648 581 q 1560 544 1646 626 q 1378 380 1474 463 q 1484 395 1431 385 q 1589 417 1537 406 q 1605 467 1598 448 q 1613 487 1611 485 m 2254 1198 q 2261 1183 2261 1191 q 2251 1151 2261 1165 q 2225 1127 2241 1137 q 2192 1112 2209 1117 q 2159 1107 2174 1107 q 2111 1115 2133 1107 q 2068 1131 2089 1122 q 2025 1148 2046 1141 q 1981 1156 2004 1156 q 1960 1154 1972 1156 q 1935 1152 1948 1152 q 1909 1174 1909 1152 q 1942 1228 1909 1207 q 2006 1248 1974 1248 q 2073 1235 2043 1248 q 2141 1207 2104 1222 q 2169 1204 2156 1207 q 2196 1200 2181 1200 q 2213 1202 2204 1200 q 2231 1204 2222 1204 q 2254 1198 2243 1204 z "},"":{"ha":1957,"x_min":59,"x_max":2257,"o":"m 1796 0 q 1783 -4 1791 -2 q 1750 -6 1776 -6 q 1634 23 1676 -6 q 1574 96 1593 52 q 1555 195 1556 141 q 1563 304 1554 250 q 1309 287 1444 291 q 1210 290 1259 287 q 1115 300 1161 293 q 1167 282 1135 291 q 1243 269 1198 274 q 1028 116 1137 187 q 814 -6 919 44 q 611 -80 709 -56 q 430 -91 513 -104 q 281 -46 352 -80 q 220 -10 252 -31 q 161 42 189 11 q 110 113 133 72 q 72 207 87 154 q 63 293 59 252 q 82 360 67 326 q 143 413 98 394 q 228 424 187 430 q 297 394 263 420 q 350 304 331 369 q 354 263 356 283 q 343 229 352 246 q 311 202 333 211 q 276 200 289 193 q 255 221 263 207 q 243 250 246 235 q 237 274 239 265 q 220 309 233 291 q 187 328 207 328 q 178 309 180 328 q 182 262 176 291 q 206 200 189 233 q 254 136 222 167 q 331 82 285 106 q 444 54 378 59 q 564 69 496 50 q 710 122 631 87 q 876 206 789 157 q 1057 309 963 254 q 932 347 989 322 q 842 411 876 372 q 798 505 807 450 q 813 633 789 559 q 918 804 846 731 q 1081 927 989 876 q 1280 1011 1174 978 q 1487 1064 1385 1044 q 1680 1092 1589 1083 q 1831 1104 1770 1100 q 1898 1098 1869 1106 q 1943 1069 1924 1089 q 1956 1006 1961 1048 l 1956 1007 l 1956 1006 q 1983 1031 1970 1019 q 2011 1054 1996 1043 q 2065 1085 2039 1076 q 2111 1094 2087 1094 q 2152 1069 2135 1093 q 2167 1024 2163 1046 q 2162 980 2170 1004 q 2128 933 2154 956 q 1985 794 2056 869 q 1861 643 1926 730 q 1750 456 1796 556 q 1861 483 1815 472 q 1922 491 1907 494 q 1944 474 1941 487 q 1938 445 1946 461 q 1916 413 1930 430 q 1889 383 1902 396 q 1867 367 1880 374 q 1841 352 1856 359 q 1807 341 1826 344 q 1774 335 1793 337 q 1712 323 1746 330 q 1639 313 1678 317 q 1662 306 1648 309 q 1696 304 1676 304 q 1689 120 1676 207 q 1707 96 1693 100 q 1742 104 1724 93 q 1774 119 1759 115 q 1808 124 1789 124 q 1844 98 1828 124 q 1844 41 1861 72 q 1796 0 1828 9 m 1172 380 q 1378 524 1278 446 q 1567 683 1478 602 q 1727 850 1656 765 q 1844 1019 1798 935 q 1608 994 1728 1020 q 1380 924 1489 969 q 1181 821 1270 880 q 1034 701 1091 763 q 963 578 978 639 q 989 467 948 517 q 1068 408 1020 430 q 1172 380 1115 387 m 1613 487 q 1717 700 1648 581 q 1560 544 1646 626 q 1378 380 1474 463 q 1484 395 1431 385 q 1589 417 1537 406 q 1605 467 1598 448 q 1613 487 1611 485 m 2050 1191 q 2034 1201 2048 1191 q 2020 1243 2020 1211 q 2029 1275 2020 1256 q 2050 1312 2037 1294 q 2078 1343 2063 1330 q 2107 1356 2093 1356 q 2144 1333 2131 1356 q 2156 1294 2156 1311 q 2143 1264 2156 1281 q 2113 1230 2130 1246 q 2081 1202 2096 1213 q 2057 1191 2065 1191 l 2050 1191 m 2152 1109 q 2136 1119 2150 1109 q 2122 1161 2122 1130 q 2131 1194 2122 1174 q 2152 1231 2139 1213 q 2180 1261 2165 1248 q 2209 1274 2194 1274 q 2245 1252 2233 1274 q 2257 1213 2257 1230 q 2244 1182 2257 1200 q 2215 1148 2231 1165 q 2182 1120 2198 1131 q 2159 1109 2167 1109 l 2152 1109 z "},"":{"ha":1957,"x_min":59,"x_max":2170,"o":"m 1796 0 q 1783 -4 1791 -2 q 1750 -6 1776 -6 q 1634 23 1676 -6 q 1574 96 1593 52 q 1555 195 1556 141 q 1563 304 1554 250 q 1309 287 1444 291 q 1210 290 1259 287 q 1115 300 1161 293 q 1167 282 1135 291 q 1243 269 1198 274 q 1028 116 1137 187 q 814 -6 919 44 q 611 -80 709 -56 q 430 -91 513 -104 q 281 -46 352 -80 q 220 -10 252 -31 q 161 42 189 11 q 110 113 133 72 q 72 207 87 154 q 63 293 59 252 q 82 360 67 326 q 143 413 98 394 q 228 424 187 430 q 297 394 263 420 q 350 304 331 369 q 354 263 356 283 q 343 229 352 246 q 311 202 333 211 q 276 200 289 193 q 255 221 263 207 q 243 250 246 235 q 237 274 239 265 q 220 309 233 291 q 187 328 207 328 q 178 309 180 328 q 182 262 176 291 q 206 200 189 233 q 254 136 222 167 q 331 82 285 106 q 444 54 378 59 q 564 69 496 50 q 710 122 631 87 q 876 206 789 157 q 1057 309 963 254 q 932 347 989 322 q 842 411 876 372 q 798 505 807 450 q 813 633 789 559 q 918 804 846 731 q 1081 927 989 876 q 1280 1011 1174 978 q 1487 1064 1385 1044 q 1680 1092 1589 1083 q 1831 1104 1770 1100 q 1898 1098 1869 1106 q 1943 1069 1924 1089 q 1956 1006 1961 1048 l 1956 1007 l 1956 1006 q 1983 1031 1970 1019 q 2011 1054 1996 1043 q 2065 1085 2039 1076 q 2111 1094 2087 1094 q 2152 1069 2135 1093 q 2167 1024 2163 1046 q 2162 980 2170 1004 q 2128 933 2154 956 q 1985 794 2056 869 q 1861 643 1926 730 q 1750 456 1796 556 q 1861 483 1815 472 q 1922 491 1907 494 q 1944 474 1941 487 q 1938 445 1946 461 q 1916 413 1930 430 q 1889 383 1902 396 q 1867 367 1880 374 q 1841 352 1856 359 q 1807 341 1826 344 q 1774 335 1793 337 q 1712 323 1746 330 q 1639 313 1678 317 q 1662 306 1648 309 q 1696 304 1676 304 q 1689 120 1676 207 q 1707 96 1693 100 q 1742 104 1724 93 q 1774 119 1759 115 q 1808 124 1789 124 q 1844 98 1828 124 q 1844 41 1861 72 q 1796 0 1828 9 m 1172 380 q 1378 524 1278 446 q 1567 683 1478 602 q 1727 850 1656 765 q 1844 1019 1798 935 q 1608 994 1728 1020 q 1380 924 1489 969 q 1181 821 1270 880 q 1034 701 1091 763 q 963 578 978 639 q 989 467 948 517 q 1068 408 1020 430 q 1172 380 1115 387 m 1613 487 q 1717 700 1648 581 q 1560 544 1646 626 q 1378 380 1474 463 q 1484 395 1431 385 q 1589 417 1537 406 q 1605 467 1598 448 q 1613 487 1611 485 m 2076 1120 q 2060 1131 2074 1120 q 2046 1172 2046 1141 q 2063 1229 2046 1198 q 2107 1259 2080 1259 q 2144 1237 2131 1259 q 2156 1198 2156 1215 q 2147 1171 2156 1185 q 2127 1146 2139 1157 q 2103 1128 2115 1135 q 2083 1120 2091 1120 l 2076 1120 m 2089 1159 l 2093 1159 q 2111 1170 2098 1159 q 2124 1193 2124 1181 q 2119 1209 2124 1200 q 2104 1219 2113 1219 q 2083 1206 2091 1219 q 2076 1181 2076 1193 q 2081 1165 2076 1170 q 2089 1159 2085 1161 z "},"":{"ha":1120,"x_min":102,"x_max":1335,"o":"m 1159 369 q 1183 348 1183 369 q 1178 330 1183 337 q 1069 196 1143 272 q 896 51 996 120 q 673 -67 796 -19 q 417 -115 550 -115 q 291 -103 348 -115 q 192 -68 233 -91 q 126 -12 150 -44 q 102 61 102 20 q 129 157 102 113 q 200 239 156 202 q 299 306 244 276 q 411 356 354 335 q 521 393 469 378 q 613 415 574 407 q 476 475 513 435 q 439 565 439 515 q 451 632 439 598 q 483 700 463 667 q 414 731 448 715 q 353 769 380 746 q 309 819 326 791 q 293 891 293 848 q 317 978 293 944 q 380 1011 341 1011 q 422 993 407 1011 q 437 959 437 974 q 429 933 437 944 q 410 912 420 922 q 392 891 400 902 q 383 865 383 880 q 403 837 383 848 q 450 819 422 826 q 507 808 478 813 q 557 802 537 804 q 594 843 556 802 q 706 937 633 883 q 805 1003 754 972 q 906 1056 856 1033 q 1004 1093 956 1080 q 1093 1106 1052 1106 q 1193 1076 1152 1106 q 1212 1059 1194 1074 q 1230 996 1230 1044 q 1197 904 1230 959 q 1063 776 1165 848 q 904 693 993 726 q 709 659 815 659 q 631 665 670 659 q 587 671 622 667 q 517 689 552 676 q 537 669 524 678 q 568 652 548 659 q 619 641 587 644 q 598 576 598 604 q 617 535 598 552 q 692 498 650 504 q 770 492 733 493 q 833 484 807 491 q 859 446 859 478 q 850 428 857 437 q 829 409 843 419 q 789 393 815 400 q 539 304 648 352 q 446 259 491 283 q 367 207 402 235 q 310 150 331 180 q 289 89 289 120 q 292 68 289 85 q 312 31 294 50 q 369 -6 330 11 q 481 -22 407 -22 q 668 16 570 -22 q 851 107 765 54 q 1006 221 937 161 q 1106 324 1074 281 q 1122 346 1113 337 q 1140 362 1130 356 q 1159 369 1150 369 m 859 900 q 769 826 804 859 q 735 793 748 807 q 933 831 854 804 q 1062 889 1013 857 q 1131 949 1111 920 q 1152 991 1152 978 q 1141 1018 1152 1011 q 1115 1024 1130 1024 q 1009 992 1080 1024 q 859 900 939 959 m 1331 1128 q 1328 1122 1331 1128 q 1313 1113 1324 1117 q 1284 1107 1302 1109 q 1241 1113 1267 1106 q 1182 1140 1217 1120 q 1117 1183 1148 1159 q 1064 1231 1085 1207 q 1043 1272 1043 1256 q 1053 1294 1043 1285 q 1080 1305 1063 1302 q 1115 1306 1096 1307 q 1150 1302 1133 1306 q 1204 1273 1172 1296 q 1265 1222 1235 1250 q 1315 1169 1294 1194 q 1335 1135 1335 1144 q 1331 1128 1335 1131 z "},"":{"ha":1120,"x_min":102,"x_max":1413,"o":"m 1159 369 q 1183 348 1183 369 q 1178 330 1183 337 q 1069 196 1143 272 q 896 51 996 120 q 673 -67 796 -19 q 417 -115 550 -115 q 291 -103 348 -115 q 192 -68 233 -91 q 126 -12 150 -44 q 102 61 102 20 q 129 157 102 113 q 200 239 156 202 q 299 306 244 276 q 411 356 354 335 q 521 393 469 378 q 613 415 574 407 q 476 475 513 435 q 439 565 439 515 q 451 632 439 598 q 483 700 463 667 q 414 731 448 715 q 353 769 380 746 q 309 819 326 791 q 293 891 293 848 q 317 978 293 944 q 380 1011 341 1011 q 422 993 407 1011 q 437 959 437 974 q 429 933 437 944 q 410 912 420 922 q 392 891 400 902 q 383 865 383 880 q 403 837 383 848 q 450 819 422 826 q 507 808 478 813 q 557 802 537 804 q 594 843 556 802 q 706 937 633 883 q 805 1003 754 972 q 906 1056 856 1033 q 1004 1093 956 1080 q 1093 1106 1052 1106 q 1193 1076 1152 1106 q 1212 1059 1194 1074 q 1230 996 1230 1044 q 1197 904 1230 959 q 1063 776 1165 848 q 904 693 993 726 q 709 659 815 659 q 631 665 670 659 q 587 671 622 667 q 517 689 552 676 q 537 669 524 678 q 568 652 548 659 q 619 641 587 644 q 598 576 598 604 q 617 535 598 552 q 692 498 650 504 q 770 492 733 493 q 833 484 807 491 q 859 446 859 478 q 850 428 857 437 q 829 409 843 419 q 789 393 815 400 q 539 304 648 352 q 446 259 491 283 q 367 207 402 235 q 310 150 331 180 q 289 89 289 120 q 292 68 289 85 q 312 31 294 50 q 369 -6 330 11 q 481 -22 407 -22 q 668 16 570 -22 q 851 107 765 54 q 1006 221 937 161 q 1106 324 1074 281 q 1122 346 1113 337 q 1140 362 1130 356 q 1159 369 1150 369 m 859 900 q 769 826 804 859 q 735 793 748 807 q 933 831 854 804 q 1062 889 1013 857 q 1131 949 1111 920 q 1152 991 1152 978 q 1141 1018 1152 1011 q 1115 1024 1130 1024 q 1009 992 1080 1024 q 859 900 939 959 m 1124 1133 q 1120 1141 1120 1137 q 1141 1175 1120 1150 q 1191 1228 1161 1200 q 1252 1279 1220 1256 q 1306 1307 1283 1302 q 1341 1312 1322 1311 q 1376 1310 1359 1313 q 1403 1299 1393 1307 q 1413 1278 1413 1291 q 1392 1237 1413 1261 q 1339 1189 1370 1213 q 1273 1145 1307 1165 q 1215 1119 1239 1126 q 1171 1113 1189 1111 q 1143 1119 1154 1115 q 1128 1128 1131 1122 q 1124 1133 1124 1133 z "},"":{"ha":1120,"x_min":102,"x_max":1406,"o":"m 1159 369 q 1183 348 1183 369 q 1178 330 1183 337 q 1069 196 1143 272 q 896 51 996 120 q 673 -67 796 -19 q 417 -115 550 -115 q 291 -103 348 -115 q 192 -68 233 -91 q 126 -12 150 -44 q 102 61 102 20 q 129 157 102 113 q 200 239 156 202 q 299 306 244 276 q 411 356 354 335 q 521 393 469 378 q 613 415 574 407 q 476 475 513 435 q 439 565 439 515 q 451 632 439 598 q 483 700 463 667 q 414 731 448 715 q 353 769 380 746 q 309 819 326 791 q 293 891 293 848 q 317 978 293 944 q 380 1011 341 1011 q 422 993 407 1011 q 437 959 437 974 q 429 933 437 944 q 410 912 420 922 q 392 891 400 902 q 383 865 383 880 q 403 837 383 848 q 450 819 422 826 q 507 808 478 813 q 557 802 537 804 q 594 843 556 802 q 706 937 633 883 q 805 1003 754 972 q 906 1056 856 1033 q 1004 1093 956 1080 q 1093 1106 1052 1106 q 1193 1076 1152 1106 q 1212 1059 1194 1074 q 1230 996 1230 1044 q 1197 904 1230 959 q 1063 776 1165 848 q 904 693 993 726 q 709 659 815 659 q 631 665 670 659 q 587 671 622 667 q 517 689 552 676 q 537 669 524 678 q 568 652 548 659 q 619 641 587 644 q 598 576 598 604 q 617 535 598 552 q 692 498 650 504 q 770 492 733 493 q 833 484 807 491 q 859 446 859 478 q 850 428 857 437 q 829 409 843 419 q 789 393 815 400 q 539 304 648 352 q 446 259 491 283 q 367 207 402 235 q 310 150 331 180 q 289 89 289 120 q 292 68 289 85 q 312 31 294 50 q 369 -6 330 11 q 481 -22 407 -22 q 668 16 570 -22 q 851 107 765 54 q 1006 221 937 161 q 1106 324 1074 281 q 1122 346 1113 337 q 1140 362 1130 356 q 1159 369 1150 369 m 859 900 q 769 826 804 859 q 735 793 748 807 q 933 831 854 804 q 1062 889 1013 857 q 1131 949 1111 920 q 1152 991 1152 978 q 1141 1018 1152 1011 q 1115 1024 1130 1024 q 1009 992 1080 1024 q 859 900 939 959 m 980 1257 q 980 1265 976 1261 q 1010 1281 983 1270 q 1073 1298 1037 1291 q 1146 1309 1109 1306 q 1206 1307 1183 1313 q 1229 1299 1215 1304 q 1254 1291 1243 1294 q 1271 1280 1263 1285 q 1289 1270 1280 1274 q 1329 1225 1307 1256 q 1368 1163 1350 1194 q 1395 1105 1385 1131 q 1404 1070 1406 1078 q 1396 1065 1400 1067 q 1376 1063 1398 1065 q 1309 1093 1354 1061 q 1257 1143 1285 1111 q 1209 1207 1230 1174 q 1129 1202 1170 1202 q 1057 1209 1087 1202 q 1016 1223 1031 1215 q 992 1239 1000 1231 q 981 1252 983 1246 q 980 1257 980 1257 z "},"":{"ha":1120,"x_min":102,"x_max":1396,"o":"m 1159 369 q 1183 348 1183 369 q 1178 330 1183 337 q 1069 196 1143 272 q 896 51 996 120 q 673 -67 796 -19 q 417 -115 550 -115 q 291 -103 348 -115 q 192 -68 233 -91 q 126 -12 150 -44 q 102 61 102 20 q 129 157 102 113 q 200 239 156 202 q 299 306 244 276 q 411 356 354 335 q 521 393 469 378 q 613 415 574 407 q 476 475 513 435 q 439 565 439 515 q 451 632 439 598 q 483 700 463 667 q 414 731 448 715 q 353 769 380 746 q 309 819 326 791 q 293 891 293 848 q 317 978 293 944 q 380 1011 341 1011 q 422 993 407 1011 q 437 959 437 974 q 429 933 437 944 q 410 912 420 922 q 392 891 400 902 q 383 865 383 880 q 403 837 383 848 q 450 819 422 826 q 507 808 478 813 q 557 802 537 804 q 594 843 556 802 q 706 937 633 883 q 805 1003 754 972 q 906 1056 856 1033 q 1004 1093 956 1080 q 1093 1106 1052 1106 q 1193 1076 1152 1106 q 1212 1059 1194 1074 q 1230 996 1230 1044 q 1197 904 1230 959 q 1063 776 1165 848 q 904 693 993 726 q 709 659 815 659 q 631 665 670 659 q 587 671 622 667 q 517 689 552 676 q 537 669 524 678 q 568 652 548 659 q 619 641 587 644 q 598 576 598 604 q 617 535 598 552 q 692 498 650 504 q 770 492 733 493 q 833 484 807 491 q 859 446 859 478 q 850 428 857 437 q 829 409 843 419 q 789 393 815 400 q 539 304 648 352 q 446 259 491 283 q 367 207 402 235 q 310 150 331 180 q 289 89 289 120 q 292 68 289 85 q 312 31 294 50 q 369 -6 330 11 q 481 -22 407 -22 q 668 16 570 -22 q 851 107 765 54 q 1006 221 937 161 q 1106 324 1074 281 q 1122 346 1113 337 q 1140 362 1130 356 q 1159 369 1150 369 m 859 900 q 769 826 804 859 q 735 793 748 807 q 933 831 854 804 q 1062 889 1013 857 q 1131 949 1111 920 q 1152 991 1152 978 q 1141 1018 1152 1011 q 1115 1024 1130 1024 q 1009 992 1080 1024 q 859 900 939 959 m 1189 1176 q 1173 1186 1187 1176 q 1159 1228 1159 1196 q 1168 1260 1159 1241 q 1189 1297 1176 1280 q 1217 1328 1202 1315 q 1246 1341 1231 1341 q 1282 1319 1270 1341 q 1294 1280 1294 1296 q 1281 1249 1294 1267 q 1252 1215 1269 1231 q 1219 1187 1235 1198 q 1196 1176 1204 1176 l 1189 1176 m 1291 1094 q 1275 1105 1289 1094 q 1261 1146 1261 1115 q 1269 1179 1261 1159 q 1291 1216 1278 1198 q 1319 1246 1304 1233 q 1348 1259 1333 1259 q 1384 1237 1372 1259 q 1396 1198 1396 1215 q 1383 1168 1396 1185 q 1354 1133 1370 1150 q 1321 1106 1337 1117 q 1298 1094 1306 1094 l 1291 1094 z "},"":{"ha":1076,"x_min":172,"x_max":1474,"o":"m 1344 1052 q 1369 998 1369 1033 q 1354 934 1369 967 q 1333 893 1339 902 q 1230 722 1291 819 q 1094 524 1169 626 q 938 324 1020 422 q 770 149 856 226 q 600 25 685 72 q 437 -22 515 -22 q 419 -20 439 -22 q 370 -12 400 -19 q 306 7 341 -6 q 243 44 272 20 q 193 101 213 67 q 172 185 172 135 q 179 233 172 211 q 194 272 185 256 q 217 307 204 293 q 280 337 241 337 q 319 320 304 337 q 335 285 335 304 q 326 254 335 265 q 305 233 317 243 q 283 214 293 224 q 274 187 274 204 q 277 169 274 181 q 292 145 280 157 q 328 125 304 133 q 394 117 352 117 q 528 155 456 117 q 677 257 600 193 q 832 406 754 322 q 985 582 911 491 q 1126 768 1059 674 q 1244 944 1193 861 q 1291 952 1272 944 q 1319 969 1309 959 q 1334 988 1330 980 q 1339 996 1339 996 q 1295 970 1324 974 q 1259 967 1267 967 q 1209 968 1235 967 q 1154 976 1183 969 q 1082 990 1133 980 q 972 1010 1031 1000 q 855 1029 913 1020 q 761 1037 796 1037 q 606 1016 665 1037 q 517 969 548 994 q 465 900 480 937 q 456 870 459 887 q 446 798 446 839 q 455 735 446 769 q 488 669 463 702 q 556 611 513 637 q 669 569 598 585 q 704 557 687 565 q 728 537 717 550 q 739 504 739 524 q 729 467 739 480 q 706 448 719 454 q 672 441 691 441 q 535 476 591 443 q 444 548 480 509 q 380 650 404 594 q 356 728 363 691 q 348 798 348 765 q 363 894 348 852 q 398 970 378 937 q 491 1069 430 1024 q 629 1136 543 1106 q 848 1167 715 1167 q 994 1156 915 1167 q 1169 1122 1074 1146 q 1256 1095 1222 1107 q 1311 1074 1291 1083 q 1344 1052 1333 1063 m 1470 1156 q 1467 1150 1470 1156 q 1452 1141 1463 1144 q 1423 1135 1441 1137 q 1380 1141 1406 1133 q 1321 1168 1356 1148 q 1256 1211 1287 1187 q 1203 1259 1224 1235 q 1181 1300 1181 1283 q 1192 1321 1181 1313 q 1219 1332 1202 1330 q 1254 1334 1235 1335 q 1289 1330 1272 1333 q 1343 1301 1311 1324 q 1404 1250 1374 1278 q 1454 1197 1433 1222 q 1474 1163 1474 1172 q 1470 1156 1474 1159 z "},"":{"ha":1076,"x_min":172,"x_max":1526,"o":"m 1344 1052 q 1369 998 1369 1033 q 1354 934 1369 967 q 1333 893 1339 902 q 1230 722 1291 819 q 1094 524 1169 626 q 938 324 1020 422 q 770 149 856 226 q 600 25 685 72 q 437 -22 515 -22 q 419 -20 439 -22 q 370 -12 400 -19 q 306 7 341 -6 q 243 44 272 20 q 193 101 213 67 q 172 185 172 135 q 179 233 172 211 q 194 272 185 256 q 217 307 204 293 q 280 337 241 337 q 319 320 304 337 q 335 285 335 304 q 326 254 335 265 q 305 233 317 243 q 283 214 293 224 q 274 187 274 204 q 277 169 274 181 q 292 145 280 157 q 328 125 304 133 q 394 117 352 117 q 528 155 456 117 q 677 257 600 193 q 832 406 754 322 q 985 582 911 491 q 1126 768 1059 674 q 1244 944 1193 861 q 1291 952 1272 944 q 1319 969 1309 959 q 1334 988 1330 980 q 1339 996 1339 996 q 1295 970 1324 974 q 1259 967 1267 967 q 1209 968 1235 967 q 1154 976 1183 969 q 1082 990 1133 980 q 972 1010 1031 1000 q 855 1029 913 1020 q 761 1037 796 1037 q 606 1016 665 1037 q 517 969 548 994 q 465 900 480 937 q 456 870 459 887 q 446 798 446 839 q 455 735 446 769 q 488 669 463 702 q 556 611 513 637 q 669 569 598 585 q 704 557 687 565 q 728 537 717 550 q 739 504 739 524 q 729 467 739 480 q 706 448 719 454 q 672 441 691 441 q 535 476 591 443 q 444 548 480 509 q 380 650 404 594 q 356 728 363 691 q 348 798 348 765 q 363 894 348 852 q 398 970 378 937 q 491 1069 430 1024 q 629 1136 543 1106 q 848 1167 715 1167 q 994 1156 915 1167 q 1169 1122 1074 1146 q 1256 1095 1222 1107 q 1311 1074 1291 1083 q 1344 1052 1333 1063 m 1237 1161 q 1233 1169 1233 1165 q 1254 1203 1233 1178 q 1304 1256 1274 1228 q 1365 1306 1333 1283 q 1419 1335 1396 1330 q 1454 1340 1435 1339 q 1489 1338 1472 1341 q 1516 1327 1506 1335 q 1526 1306 1526 1319 q 1505 1265 1526 1289 q 1452 1217 1483 1241 q 1386 1173 1420 1193 q 1328 1146 1352 1154 q 1284 1141 1302 1139 q 1256 1146 1267 1143 q 1241 1156 1244 1150 q 1237 1161 1237 1161 z "},"":{"ha":1076,"x_min":172,"x_max":1493,"o":"m 1344 1052 q 1369 998 1369 1033 q 1354 934 1369 967 q 1333 893 1339 902 q 1230 722 1291 819 q 1094 524 1169 626 q 938 324 1020 422 q 770 149 856 226 q 600 25 685 72 q 437 -22 515 -22 q 419 -20 439 -22 q 370 -12 400 -19 q 306 7 341 -6 q 243 44 272 20 q 193 101 213 67 q 172 185 172 135 q 179 233 172 211 q 194 272 185 256 q 217 307 204 293 q 280 337 241 337 q 319 320 304 337 q 335 285 335 304 q 326 254 335 265 q 305 233 317 243 q 283 214 293 224 q 274 187 274 204 q 277 169 274 181 q 292 145 280 157 q 328 125 304 133 q 394 117 352 117 q 528 155 456 117 q 677 257 600 193 q 832 406 754 322 q 985 582 911 491 q 1126 768 1059 674 q 1244 944 1193 861 q 1291 952 1272 944 q 1319 969 1309 959 q 1334 988 1330 980 q 1339 996 1339 996 q 1295 970 1324 974 q 1259 967 1267 967 q 1209 968 1235 967 q 1154 976 1183 969 q 1082 990 1133 980 q 972 1010 1031 1000 q 855 1029 913 1020 q 761 1037 796 1037 q 606 1016 665 1037 q 517 969 548 994 q 465 900 480 937 q 456 870 459 887 q 446 798 446 839 q 455 735 446 769 q 488 669 463 702 q 556 611 513 637 q 669 569 598 585 q 704 557 687 565 q 728 537 717 550 q 739 504 739 524 q 729 467 739 480 q 706 448 719 454 q 672 441 691 441 q 535 476 591 443 q 444 548 480 509 q 380 650 404 594 q 356 728 363 691 q 348 798 348 765 q 363 894 348 852 q 398 970 378 937 q 491 1069 430 1024 q 629 1136 543 1106 q 848 1167 715 1167 q 994 1156 915 1167 q 1169 1122 1074 1146 q 1256 1095 1222 1107 q 1311 1074 1291 1083 q 1344 1052 1333 1063 m 1067 1274 q 1067 1281 1063 1278 q 1097 1297 1070 1287 q 1160 1315 1124 1307 q 1233 1326 1196 1322 q 1293 1324 1270 1330 q 1316 1316 1302 1320 q 1341 1307 1330 1311 q 1358 1296 1350 1302 q 1376 1287 1367 1291 q 1416 1242 1394 1272 q 1455 1180 1437 1211 q 1482 1121 1472 1148 q 1491 1087 1493 1094 q 1483 1081 1487 1083 q 1463 1080 1485 1081 q 1396 1109 1441 1078 q 1344 1159 1372 1128 q 1296 1224 1317 1191 q 1216 1219 1257 1219 q 1144 1226 1174 1219 q 1103 1240 1119 1231 q 1079 1256 1087 1248 q 1069 1269 1070 1263 q 1067 1274 1067 1274 z "},"":{"ha":1076,"x_min":172,"x_max":1481,"o":"m 1344 1052 q 1369 998 1369 1033 q 1354 934 1369 967 q 1333 893 1339 902 q 1230 722 1291 819 q 1094 524 1169 626 q 938 324 1020 422 q 770 149 856 226 q 600 25 685 72 q 437 -22 515 -22 q 419 -20 439 -22 q 370 -12 400 -19 q 306 7 341 -6 q 243 44 272 20 q 193 101 213 67 q 172 185 172 135 q 179 233 172 211 q 194 272 185 256 q 217 307 204 293 q 280 337 241 337 q 319 320 304 337 q 335 285 335 304 q 326 254 335 265 q 305 233 317 243 q 283 214 293 224 q 274 187 274 204 q 277 169 274 181 q 292 145 280 157 q 328 125 304 133 q 394 117 352 117 q 528 155 456 117 q 677 257 600 193 q 832 406 754 322 q 985 582 911 491 q 1126 768 1059 674 q 1244 944 1193 861 q 1291 952 1272 944 q 1319 969 1309 959 q 1334 988 1330 980 q 1339 996 1339 996 q 1295 970 1324 974 q 1259 967 1267 967 q 1209 968 1235 967 q 1154 976 1183 969 q 1082 990 1133 980 q 972 1010 1031 1000 q 855 1029 913 1020 q 761 1037 796 1037 q 606 1016 665 1037 q 517 969 548 994 q 465 900 480 937 q 456 870 459 887 q 446 798 446 839 q 455 735 446 769 q 488 669 463 702 q 556 611 513 637 q 669 569 598 585 q 704 557 687 565 q 728 537 717 550 q 739 504 739 524 q 729 467 739 480 q 706 448 719 454 q 672 441 691 441 q 535 476 591 443 q 444 548 480 509 q 380 650 404 594 q 356 728 363 691 q 348 798 348 765 q 363 894 348 852 q 398 970 378 937 q 491 1069 430 1024 q 629 1136 543 1106 q 848 1167 715 1167 q 994 1156 915 1167 q 1169 1122 1074 1146 q 1256 1095 1222 1107 q 1311 1074 1291 1083 q 1344 1052 1333 1063 m 1274 1191 q 1258 1201 1272 1191 q 1244 1243 1244 1211 q 1253 1275 1244 1256 q 1274 1312 1261 1294 q 1302 1343 1287 1330 q 1331 1356 1317 1356 q 1368 1333 1356 1356 q 1380 1294 1380 1311 q 1367 1264 1380 1281 q 1337 1230 1354 1246 q 1305 1202 1320 1213 q 1281 1191 1289 1191 l 1274 1191 m 1376 1109 q 1360 1119 1374 1109 q 1346 1161 1346 1130 q 1355 1194 1346 1174 q 1376 1231 1363 1213 q 1404 1261 1389 1248 q 1433 1274 1419 1274 q 1469 1252 1457 1274 q 1481 1213 1481 1230 q 1469 1182 1481 1200 q 1439 1148 1456 1165 q 1406 1120 1422 1131 q 1383 1109 1391 1109 l 1376 1109 z "},"":{"ha":1907,"x_min":213,"x_max":2189,"o":"m 2011 996 q 2043 967 2028 985 q 2066 928 2056 952 q 2076 872 2076 904 q 2053 776 2076 831 q 1967 648 2030 720 q 1944 624 1965 648 q 1895 557 1924 600 q 1833 456 1867 515 q 1771 329 1800 396 q 1724 186 1743 261 q 1706 35 1706 111 q 1709 4 1706 19 q 1731 -11 1713 -11 q 1775 3 1757 -11 q 1817 17 1793 17 q 1850 6 1830 17 q 1870 -35 1870 -4 q 1841 -92 1870 -72 q 1772 -111 1811 -111 q 1674 -94 1713 -111 q 1613 -46 1635 -76 q 1581 22 1591 -17 q 1572 104 1572 61 q 1581 196 1572 150 q 1598 281 1589 243 q 1617 346 1607 320 q 1630 380 1626 372 q 1719 565 1661 461 q 1856 769 1776 669 q 1881 808 1874 791 q 1887 839 1887 826 q 1882 857 1887 850 q 1874 869 1878 865 q 1861 878 1867 874 q 1844 880 1856 880 q 1736 836 1802 880 q 1594 725 1670 793 q 1439 575 1519 657 q 1289 414 1359 493 q 1162 269 1219 335 q 1078 170 1106 204 q 1042 128 1067 156 q 988 72 1017 100 q 932 24 959 44 q 891 4 906 4 q 848 15 869 4 q 812 42 828 26 q 788 74 796 57 q 780 100 780 91 q 796 137 780 120 q 813 152 804 144 q 980 309 898 219 q 1134 504 1061 400 q 1270 722 1207 607 q 1381 952 1333 837 q 1444 976 1422 959 q 1476 1009 1467 993 q 1486 1040 1485 1026 q 1487 1056 1487 1054 q 1463 1012 1478 1028 q 1432 990 1448 996 q 1406 981 1417 983 q 1393 980 1394 980 q 1372 979 1391 980 q 1325 977 1354 978 q 1262 975 1296 976 q 1196 974 1228 974 q 1068 976 1133 974 q 935 978 1002 978 q 739 969 835 978 q 564 935 643 961 q 429 861 485 909 q 352 731 372 813 q 348 716 350 728 q 341 691 346 704 q 327 667 335 678 q 304 656 319 656 q 243 697 272 656 q 213 800 213 739 q 242 903 213 846 q 334 1006 270 959 q 501 1086 398 1054 q 750 1119 604 1119 q 1002 1102 876 1119 q 1241 1085 1128 1085 q 1359 1089 1319 1085 q 1422 1097 1400 1093 q 1454 1106 1444 1102 q 1476 1109 1463 1109 q 1521 1096 1498 1109 q 1544 1041 1544 1083 q 1505 900 1544 1011 q 1376 619 1465 789 q 1522 766 1446 694 q 1671 893 1598 837 q 1813 981 1744 948 q 1939 1015 1881 1015 q 2011 996 1980 1015 m 2181 1202 q 2189 1187 2189 1194 q 2179 1155 2189 1169 q 2153 1131 2169 1141 q 2119 1116 2137 1120 q 2087 1111 2102 1111 q 2039 1119 2061 1111 q 1995 1135 2017 1126 q 1953 1152 1974 1144 q 1909 1159 1931 1159 q 1888 1157 1900 1159 q 1863 1156 1876 1156 q 1837 1178 1837 1156 q 1869 1231 1837 1211 q 1933 1252 1902 1252 q 2001 1239 1970 1252 q 2069 1211 2031 1226 q 2096 1207 2083 1211 q 2124 1204 2109 1204 q 2141 1206 2131 1204 q 2159 1207 2150 1207 q 2181 1202 2170 1207 z "},"":{"ha":1198,"x_min":165,"x_max":1417,"o":"m 1002 1024 q 1039 1021 1007 1024 q 1110 1001 1070 1019 q 1188 944 1150 983 q 1241 833 1226 906 q 1247 748 1246 796 q 1239 641 1248 700 q 1139 356 1206 491 q 1071 238 1111 298 q 981 123 1031 178 q 864 21 930 69 q 719 -59 798 -26 q 597 -100 659 -83 q 465 -117 535 -117 q 268 -56 333 -117 q 183 96 202 4 q 171 198 178 122 q 184 381 165 274 q 259 617 204 489 q 435 876 315 744 q 559 989 493 939 q 693 1067 617 1031 q 856 1102 769 1102 q 875 1101 857 1102 q 916 1093 893 1100 q 963 1069 939 1085 q 1002 1024 987 1054 m 456 -20 q 471 -22 465 -22 q 487 -22 478 -22 q 643 7 570 -22 q 769 74 715 37 q 887 172 831 117 q 1028 381 976 272 q 1106 589 1080 491 q 1136 761 1131 687 q 1135 863 1141 835 q 1107 897 1131 889 q 1063 906 1083 906 q 1029 902 1044 906 q 1000 894 1013 898 q 972 883 985 889 q 891 826 924 861 q 843 747 861 794 q 839 631 824 700 q 848 602 843 617 q 859 572 854 587 q 869 557 863 565 q 875 543 872 550 q 880 528 878 535 q 872 506 883 513 q 846 498 861 498 q 784 517 811 498 q 739 560 757 535 q 709 613 720 585 q 696 657 698 641 q 690 704 691 681 q 691 743 689 726 q 696 778 693 763 q 749 894 711 848 q 826 965 787 939 q 926 1009 872 994 q 916 1016 926 1013 q 896 1019 906 1019 q 840 1006 874 1019 q 766 970 806 994 q 681 910 726 946 q 596 828 637 874 q 557 781 596 828 q 470 651 519 733 q 379 457 422 569 q 326 220 335 346 q 330 102 320 161 q 369 18 339 52 q 456 -20 400 -17 m 1413 1128 q 1409 1122 1413 1128 q 1394 1113 1406 1117 q 1366 1107 1383 1109 q 1322 1113 1348 1106 q 1264 1140 1298 1120 q 1198 1183 1230 1159 q 1145 1231 1167 1207 q 1124 1272 1124 1256 q 1134 1294 1124 1285 q 1161 1305 1144 1302 q 1196 1306 1178 1307 q 1231 1302 1215 1306 q 1285 1273 1254 1296 q 1346 1222 1317 1250 q 1396 1169 1376 1194 q 1417 1135 1417 1144 q 1413 1128 1417 1131 z "},"":{"ha":1198,"x_min":165,"x_max":1496,"o":"m 1002 1024 q 1039 1021 1007 1024 q 1110 1001 1070 1019 q 1188 944 1150 983 q 1241 833 1226 906 q 1247 748 1246 796 q 1239 641 1248 700 q 1139 356 1206 491 q 1071 238 1111 298 q 981 123 1031 178 q 864 21 930 69 q 719 -59 798 -26 q 597 -100 659 -83 q 465 -117 535 -117 q 268 -56 333 -117 q 183 96 202 4 q 171 198 178 122 q 184 381 165 274 q 259 617 204 489 q 435 876 315 744 q 559 989 493 939 q 693 1067 617 1031 q 856 1102 769 1102 q 875 1101 857 1102 q 916 1093 893 1100 q 963 1069 939 1085 q 1002 1024 987 1054 m 456 -20 q 471 -22 465 -22 q 487 -22 478 -22 q 643 7 570 -22 q 769 74 715 37 q 887 172 831 117 q 1028 381 976 272 q 1106 589 1080 491 q 1136 761 1131 687 q 1135 863 1141 835 q 1107 897 1131 889 q 1063 906 1083 906 q 1029 902 1044 906 q 1000 894 1013 898 q 972 883 985 889 q 891 826 924 861 q 843 747 861 794 q 839 631 824 700 q 848 602 843 617 q 859 572 854 587 q 869 557 863 565 q 875 543 872 550 q 880 528 878 535 q 872 506 883 513 q 846 498 861 498 q 784 517 811 498 q 739 560 757 535 q 709 613 720 585 q 696 657 698 641 q 690 704 691 681 q 691 743 689 726 q 696 778 693 763 q 749 894 711 848 q 826 965 787 939 q 926 1009 872 994 q 916 1016 926 1013 q 896 1019 906 1019 q 840 1006 874 1019 q 766 970 806 994 q 681 910 726 946 q 596 828 637 874 q 557 781 596 828 q 470 651 519 733 q 379 457 422 569 q 326 220 335 346 q 330 102 320 161 q 369 18 339 52 q 456 -20 400 -17 m 1207 1130 q 1204 1137 1204 1133 q 1224 1171 1204 1146 q 1274 1224 1244 1196 q 1335 1275 1304 1252 q 1389 1304 1367 1298 q 1424 1308 1406 1307 q 1459 1306 1443 1309 q 1486 1295 1476 1304 q 1496 1274 1496 1287 q 1475 1233 1496 1257 q 1422 1185 1454 1209 q 1356 1142 1391 1161 q 1298 1115 1322 1122 q 1255 1109 1272 1107 q 1226 1115 1237 1111 q 1211 1124 1215 1119 q 1207 1130 1207 1130 z "},"":{"ha":1198,"x_min":165,"x_max":1506,"o":"m 1002 1024 q 1039 1021 1007 1024 q 1110 1001 1070 1019 q 1188 944 1150 983 q 1241 833 1226 906 q 1247 748 1246 796 q 1239 641 1248 700 q 1139 356 1206 491 q 1071 238 1111 298 q 981 123 1031 178 q 864 21 930 69 q 719 -59 798 -26 q 597 -100 659 -83 q 465 -117 535 -117 q 268 -56 333 -117 q 183 96 202 4 q 171 198 178 122 q 184 381 165 274 q 259 617 204 489 q 435 876 315 744 q 559 989 493 939 q 693 1067 617 1031 q 856 1102 769 1102 q 875 1101 857 1102 q 916 1093 893 1100 q 963 1069 939 1085 q 1002 1024 987 1054 m 456 -20 q 471 -22 465 -22 q 487 -22 478 -22 q 643 7 570 -22 q 769 74 715 37 q 887 172 831 117 q 1028 381 976 272 q 1106 589 1080 491 q 1136 761 1131 687 q 1135 863 1141 835 q 1107 897 1131 889 q 1063 906 1083 906 q 1029 902 1044 906 q 1000 894 1013 898 q 972 883 985 889 q 891 826 924 861 q 843 747 861 794 q 839 631 824 700 q 848 602 843 617 q 859 572 854 587 q 869 557 863 565 q 875 543 872 550 q 880 528 878 535 q 872 506 883 513 q 846 498 861 498 q 784 517 811 498 q 739 560 757 535 q 709 613 720 585 q 696 657 698 641 q 690 704 691 681 q 691 743 689 726 q 696 778 693 763 q 749 894 711 848 q 826 965 787 939 q 926 1009 872 994 q 916 1016 926 1013 q 896 1019 906 1019 q 840 1006 874 1019 q 766 970 806 994 q 681 910 726 946 q 596 828 637 874 q 557 781 596 828 q 470 651 519 733 q 379 457 422 569 q 326 220 335 346 q 330 102 320 161 q 369 18 339 52 q 456 -20 400 -17 m 1080 1220 q 1080 1228 1076 1224 q 1110 1244 1083 1233 q 1173 1261 1137 1254 q 1246 1272 1209 1269 q 1306 1270 1283 1276 q 1329 1262 1315 1267 q 1354 1254 1343 1257 q 1371 1243 1363 1248 q 1389 1233 1380 1237 q 1429 1188 1407 1219 q 1468 1126 1450 1157 q 1495 1068 1485 1094 q 1504 1033 1506 1041 q 1496 1028 1500 1030 q 1476 1026 1498 1028 q 1409 1056 1454 1024 q 1357 1106 1385 1074 q 1309 1170 1330 1137 q 1229 1165 1270 1165 q 1157 1172 1187 1165 q 1116 1186 1131 1178 q 1092 1202 1100 1194 q 1081 1215 1083 1209 q 1080 1220 1080 1220 z "},"":{"ha":1198,"x_min":165,"x_max":1500,"o":"m 1002 1024 q 1039 1021 1007 1024 q 1110 1001 1070 1019 q 1188 944 1150 983 q 1241 833 1226 906 q 1247 748 1246 796 q 1239 641 1248 700 q 1139 356 1206 491 q 1071 238 1111 298 q 981 123 1031 178 q 864 21 930 69 q 719 -59 798 -26 q 597 -100 659 -83 q 465 -117 535 -117 q 268 -56 333 -117 q 183 96 202 4 q 171 198 178 122 q 184 381 165 274 q 259 617 204 489 q 435 876 315 744 q 559 989 493 939 q 693 1067 617 1031 q 856 1102 769 1102 q 875 1101 857 1102 q 916 1093 893 1100 q 963 1069 939 1085 q 1002 1024 987 1054 m 456 -20 q 471 -22 465 -22 q 487 -22 478 -22 q 643 7 570 -22 q 769 74 715 37 q 887 172 831 117 q 1028 381 976 272 q 1106 589 1080 491 q 1136 761 1131 687 q 1135 863 1141 835 q 1107 897 1131 889 q 1063 906 1083 906 q 1029 902 1044 906 q 1000 894 1013 898 q 972 883 985 889 q 891 826 924 861 q 843 747 861 794 q 839 631 824 700 q 848 602 843 617 q 859 572 854 587 q 869 557 863 565 q 875 543 872 550 q 880 528 878 535 q 872 506 883 513 q 846 498 861 498 q 784 517 811 498 q 739 560 757 535 q 709 613 720 585 q 696 657 698 641 q 690 704 691 681 q 691 743 689 726 q 696 778 693 763 q 749 894 711 848 q 826 965 787 939 q 926 1009 872 994 q 916 1016 926 1013 q 896 1019 906 1019 q 840 1006 874 1019 q 766 970 806 994 q 681 910 726 946 q 596 828 637 874 q 557 781 596 828 q 470 651 519 733 q 379 457 422 569 q 326 220 335 346 q 330 102 320 161 q 369 18 339 52 q 456 -20 400 -17 m 1493 1194 q 1500 1180 1500 1187 q 1490 1147 1500 1161 q 1464 1123 1480 1133 q 1431 1108 1448 1113 q 1398 1104 1413 1104 q 1350 1111 1372 1104 q 1306 1128 1328 1119 q 1264 1144 1285 1137 q 1220 1152 1243 1152 q 1199 1150 1211 1152 q 1174 1148 1187 1148 q 1148 1170 1148 1148 q 1181 1224 1148 1204 q 1244 1244 1213 1244 q 1312 1231 1281 1244 q 1380 1204 1343 1219 q 1407 1200 1394 1204 q 1435 1196 1420 1196 q 1452 1198 1443 1196 q 1470 1200 1461 1200 q 1493 1194 1481 1200 z "},"":{"ha":1198,"x_min":165,"x_max":1443,"o":"m 1002 1024 q 1039 1021 1007 1024 q 1110 1001 1070 1019 q 1188 944 1150 983 q 1241 833 1226 906 q 1247 748 1246 796 q 1239 641 1248 700 q 1139 356 1206 491 q 1071 238 1111 298 q 981 123 1031 178 q 864 21 930 69 q 719 -59 798 -26 q 597 -100 659 -83 q 465 -117 535 -117 q 268 -56 333 -117 q 183 96 202 4 q 171 198 178 122 q 184 381 165 274 q 259 617 204 489 q 435 876 315 744 q 559 989 493 939 q 693 1067 617 1031 q 856 1102 769 1102 q 875 1101 857 1102 q 916 1093 893 1100 q 963 1069 939 1085 q 1002 1024 987 1054 m 456 -20 q 471 -22 465 -22 q 487 -22 478 -22 q 643 7 570 -22 q 769 74 715 37 q 887 172 831 117 q 1028 381 976 272 q 1106 589 1080 491 q 1136 761 1131 687 q 1135 863 1141 835 q 1107 897 1131 889 q 1063 906 1083 906 q 1029 902 1044 906 q 1000 894 1013 898 q 972 883 985 889 q 891 826 924 861 q 843 747 861 794 q 839 631 824 700 q 848 602 843 617 q 859 572 854 587 q 869 557 863 565 q 875 543 872 550 q 880 528 878 535 q 872 506 883 513 q 846 498 861 498 q 784 517 811 498 q 739 560 757 535 q 709 613 720 585 q 696 657 698 641 q 690 704 691 681 q 691 743 689 726 q 696 778 693 763 q 749 894 711 848 q 826 965 787 939 q 926 1009 872 994 q 916 1016 926 1013 q 896 1019 906 1019 q 840 1006 874 1019 q 766 970 806 994 q 681 910 726 946 q 596 828 637 874 q 557 781 596 828 q 470 651 519 733 q 379 457 422 569 q 326 220 335 346 q 330 102 320 161 q 369 18 339 52 q 456 -20 400 -17 m 1235 1133 q 1219 1144 1233 1133 q 1206 1185 1206 1154 q 1214 1218 1206 1198 q 1235 1255 1222 1237 q 1263 1285 1248 1272 q 1293 1298 1278 1298 q 1329 1276 1317 1298 q 1341 1237 1341 1254 q 1328 1206 1341 1224 q 1298 1172 1315 1189 q 1266 1144 1281 1156 q 1243 1133 1250 1133 l 1235 1133 m 1337 1052 q 1321 1062 1335 1052 q 1307 1104 1307 1072 q 1316 1136 1307 1117 q 1337 1173 1324 1156 q 1365 1204 1350 1191 q 1394 1217 1380 1217 q 1431 1194 1419 1217 q 1443 1156 1443 1172 q 1430 1125 1443 1143 q 1400 1091 1417 1107 q 1368 1063 1383 1074 q 1344 1052 1352 1052 l 1337 1052 z "},"":{"ha":1915,"x_min":204,"x_max":2202,"o":"m 2161 963 q 2169 946 2165 956 q 2175 927 2172 937 q 2178 904 2178 917 q 2169 866 2178 885 q 2139 826 2161 846 q 2102 794 2135 824 q 2019 711 2069 763 q 1911 588 1969 659 q 1806 434 1854 517 q 1725 261 1757 352 q 1693 78 1693 170 q 1693 51 1693 67 q 1695 21 1693 35 q 1705 -2 1698 7 q 1722 -11 1711 -11 q 1767 3 1748 -11 q 1809 17 1785 17 q 1841 6 1820 17 q 1861 -37 1861 -6 q 1832 -93 1861 -74 q 1765 -111 1804 -111 q 1667 -94 1706 -111 q 1606 -46 1628 -76 q 1574 22 1583 -17 q 1565 104 1565 61 q 1573 195 1565 150 q 1591 280 1581 241 q 1609 344 1600 319 q 1622 378 1619 370 q 1643 431 1631 404 q 1669 487 1654 457 q 1521 311 1596 398 q 1376 155 1446 224 q 1239 43 1306 85 q 1117 0 1172 0 q 1038 15 1069 0 q 990 52 1007 30 q 965 101 972 74 q 957 150 957 128 q 962 200 957 176 q 974 244 967 224 q 991 287 981 267 q 1020 345 1002 313 q 1057 406 1039 378 q 1102 470 1078 439 q 1254 704 1185 581 q 1372 952 1322 826 q 1435 976 1413 959 q 1467 1009 1457 993 q 1477 1040 1476 1026 q 1478 1056 1478 1054 q 1453 1011 1469 1026 q 1422 989 1437 996 q 1383 980 1404 981 q 1362 979 1381 980 q 1314 977 1343 978 q 1252 975 1285 976 q 1187 974 1219 974 q 1058 976 1124 974 q 926 978 993 978 q 731 969 826 978 q 556 935 635 961 q 420 861 476 909 q 344 731 365 813 q 342 716 344 728 q 333 691 339 704 q 319 667 328 678 q 294 656 309 656 q 234 696 265 656 q 204 800 204 737 q 232 903 204 846 q 325 1006 261 959 q 492 1086 389 1054 q 741 1119 594 1119 q 993 1102 867 1119 q 1231 1085 1119 1085 q 1350 1089 1309 1085 q 1413 1097 1391 1093 q 1444 1106 1435 1102 q 1467 1109 1454 1109 q 1512 1096 1489 1109 q 1535 1041 1535 1083 q 1515 960 1535 1026 q 1451 795 1494 894 q 1343 574 1407 696 q 1189 326 1278 452 q 1127 227 1150 270 q 1104 156 1104 183 q 1115 127 1104 139 q 1148 115 1126 115 q 1207 133 1174 115 q 1270 176 1241 152 q 1339 239 1304 204 q 1566 488 1452 367 q 1776 707 1680 609 q 1938 869 1872 806 q 2020 946 2004 933 q 2050 967 2033 957 q 2080 981 2063 974 q 2113 987 2096 987 q 2161 963 2144 987 m 2198 1113 q 2194 1107 2198 1113 q 2180 1098 2191 1102 q 2151 1093 2169 1094 q 2107 1098 2133 1091 q 2049 1125 2083 1106 q 1983 1169 2015 1144 q 1931 1217 1952 1193 q 1909 1257 1909 1241 q 1919 1279 1909 1270 q 1946 1290 1930 1287 q 1981 1292 1963 1293 q 2017 1287 2000 1291 q 2070 1258 2039 1281 q 2131 1207 2102 1235 q 2181 1155 2161 1180 q 2202 1120 2202 1130 q 2198 1113 2202 1117 z "},"":{"ha":1915,"x_min":204,"x_max":2256,"o":"m 2161 963 q 2169 946 2165 956 q 2175 927 2172 937 q 2178 904 2178 917 q 2169 866 2178 885 q 2139 826 2161 846 q 2102 794 2135 824 q 2019 711 2069 763 q 1911 588 1969 659 q 1806 434 1854 517 q 1725 261 1757 352 q 1693 78 1693 170 q 1693 51 1693 67 q 1695 21 1693 35 q 1705 -2 1698 7 q 1722 -11 1711 -11 q 1767 3 1748 -11 q 1809 17 1785 17 q 1841 6 1820 17 q 1861 -37 1861 -6 q 1832 -93 1861 -74 q 1765 -111 1804 -111 q 1667 -94 1706 -111 q 1606 -46 1628 -76 q 1574 22 1583 -17 q 1565 104 1565 61 q 1573 195 1565 150 q 1591 280 1581 241 q 1609 344 1600 319 q 1622 378 1619 370 q 1643 431 1631 404 q 1669 487 1654 457 q 1521 311 1596 398 q 1376 155 1446 224 q 1239 43 1306 85 q 1117 0 1172 0 q 1038 15 1069 0 q 990 52 1007 30 q 965 101 972 74 q 957 150 957 128 q 962 200 957 176 q 974 244 967 224 q 991 287 981 267 q 1020 345 1002 313 q 1057 406 1039 378 q 1102 470 1078 439 q 1254 704 1185 581 q 1372 952 1322 826 q 1435 976 1413 959 q 1467 1009 1457 993 q 1477 1040 1476 1026 q 1478 1056 1478 1054 q 1453 1011 1469 1026 q 1422 989 1437 996 q 1383 980 1404 981 q 1362 979 1381 980 q 1314 977 1343 978 q 1252 975 1285 976 q 1187 974 1219 974 q 1058 976 1124 974 q 926 978 993 978 q 731 969 826 978 q 556 935 635 961 q 420 861 476 909 q 344 731 365 813 q 342 716 344 728 q 333 691 339 704 q 319 667 328 678 q 294 656 309 656 q 234 696 265 656 q 204 800 204 737 q 232 903 204 846 q 325 1006 261 959 q 492 1086 389 1054 q 741 1119 594 1119 q 993 1102 867 1119 q 1231 1085 1119 1085 q 1350 1089 1309 1085 q 1413 1097 1391 1093 q 1444 1106 1435 1102 q 1467 1109 1454 1109 q 1512 1096 1489 1109 q 1535 1041 1535 1083 q 1515 960 1535 1026 q 1451 795 1494 894 q 1343 574 1407 696 q 1189 326 1278 452 q 1127 227 1150 270 q 1104 156 1104 183 q 1115 127 1104 139 q 1148 115 1126 115 q 1207 133 1174 115 q 1270 176 1241 152 q 1339 239 1304 204 q 1566 488 1452 367 q 1776 707 1680 609 q 1938 869 1872 806 q 2020 946 2004 933 q 2050 967 2033 957 q 2080 981 2063 974 q 2113 987 2096 987 q 2161 963 2144 987 m 1967 1128 q 1963 1135 1963 1131 q 1983 1169 1963 1144 q 2033 1222 2004 1194 q 2094 1273 2063 1250 q 2148 1302 2126 1296 q 2183 1306 2165 1306 q 2219 1305 2202 1307 q 2245 1294 2235 1302 q 2256 1272 2256 1285 q 2234 1231 2256 1256 q 2181 1183 2213 1207 q 2116 1140 2150 1159 q 2057 1113 2081 1120 q 2014 1107 2031 1106 q 1985 1113 1996 1109 q 1970 1122 1974 1117 q 1967 1128 1967 1128 z "},"":{"ha":1915,"x_min":204,"x_max":2269,"o":"m 2161 963 q 2169 946 2165 956 q 2175 927 2172 937 q 2178 904 2178 917 q 2169 866 2178 885 q 2139 826 2161 846 q 2102 794 2135 824 q 2019 711 2069 763 q 1911 588 1969 659 q 1806 434 1854 517 q 1725 261 1757 352 q 1693 78 1693 170 q 1693 51 1693 67 q 1695 21 1693 35 q 1705 -2 1698 7 q 1722 -11 1711 -11 q 1767 3 1748 -11 q 1809 17 1785 17 q 1841 6 1820 17 q 1861 -37 1861 -6 q 1832 -93 1861 -74 q 1765 -111 1804 -111 q 1667 -94 1706 -111 q 1606 -46 1628 -76 q 1574 22 1583 -17 q 1565 104 1565 61 q 1573 195 1565 150 q 1591 280 1581 241 q 1609 344 1600 319 q 1622 378 1619 370 q 1643 431 1631 404 q 1669 487 1654 457 q 1521 311 1596 398 q 1376 155 1446 224 q 1239 43 1306 85 q 1117 0 1172 0 q 1038 15 1069 0 q 990 52 1007 30 q 965 101 972 74 q 957 150 957 128 q 962 200 957 176 q 974 244 967 224 q 991 287 981 267 q 1020 345 1002 313 q 1057 406 1039 378 q 1102 470 1078 439 q 1254 704 1185 581 q 1372 952 1322 826 q 1435 976 1413 959 q 1467 1009 1457 993 q 1477 1040 1476 1026 q 1478 1056 1478 1054 q 1453 1011 1469 1026 q 1422 989 1437 996 q 1383 980 1404 981 q 1362 979 1381 980 q 1314 977 1343 978 q 1252 975 1285 976 q 1187 974 1219 974 q 1058 976 1124 974 q 926 978 993 978 q 731 969 826 978 q 556 935 635 961 q 420 861 476 909 q 344 731 365 813 q 342 716 344 728 q 333 691 339 704 q 319 667 328 678 q 294 656 309 656 q 234 696 265 656 q 204 800 204 737 q 232 903 204 846 q 325 1006 261 959 q 492 1086 389 1054 q 741 1119 594 1119 q 993 1102 867 1119 q 1231 1085 1119 1085 q 1350 1089 1309 1085 q 1413 1097 1391 1093 q 1444 1106 1435 1102 q 1467 1109 1454 1109 q 1512 1096 1489 1109 q 1535 1041 1535 1083 q 1515 960 1535 1026 q 1451 795 1494 894 q 1343 574 1407 696 q 1189 326 1278 452 q 1127 227 1150 270 q 1104 156 1104 183 q 1115 127 1104 139 q 1148 115 1126 115 q 1207 133 1174 115 q 1270 176 1241 152 q 1339 239 1304 204 q 1566 488 1452 367 q 1776 707 1680 609 q 1938 869 1872 806 q 2020 946 2004 933 q 2050 967 2033 957 q 2080 981 2063 974 q 2113 987 2096 987 q 2161 963 2144 987 m 1843 1243 q 1843 1250 1839 1246 q 1873 1266 1846 1256 q 1936 1283 1900 1276 q 2009 1294 1972 1291 q 2069 1293 2046 1298 q 2092 1284 2078 1289 q 2117 1276 2106 1280 q 2134 1265 2126 1270 q 2152 1256 2143 1259 q 2192 1210 2170 1241 q 2231 1148 2213 1180 q 2258 1090 2248 1117 q 2267 1056 2269 1063 q 2259 1050 2263 1052 q 2239 1048 2261 1050 q 2172 1078 2217 1046 q 2120 1128 2148 1096 q 2072 1193 2093 1159 q 1992 1187 2033 1187 q 1920 1194 1950 1187 q 1879 1208 1894 1200 q 1855 1224 1863 1217 q 1844 1237 1846 1231 q 1843 1243 1843 1243 z "},"":{"ha":1915,"x_min":204,"x_max":2272,"o":"m 2161 963 q 2169 946 2165 956 q 2175 927 2172 937 q 2178 904 2178 917 q 2169 866 2178 885 q 2139 826 2161 846 q 2102 794 2135 824 q 2019 711 2069 763 q 1911 588 1969 659 q 1806 434 1854 517 q 1725 261 1757 352 q 1693 78 1693 170 q 1693 51 1693 67 q 1695 21 1693 35 q 1705 -2 1698 7 q 1722 -11 1711 -11 q 1767 3 1748 -11 q 1809 17 1785 17 q 1841 6 1820 17 q 1861 -37 1861 -6 q 1832 -93 1861 -74 q 1765 -111 1804 -111 q 1667 -94 1706 -111 q 1606 -46 1628 -76 q 1574 22 1583 -17 q 1565 104 1565 61 q 1573 195 1565 150 q 1591 280 1581 241 q 1609 344 1600 319 q 1622 378 1619 370 q 1643 431 1631 404 q 1669 487 1654 457 q 1521 311 1596 398 q 1376 155 1446 224 q 1239 43 1306 85 q 1117 0 1172 0 q 1038 15 1069 0 q 990 52 1007 30 q 965 101 972 74 q 957 150 957 128 q 962 200 957 176 q 974 244 967 224 q 991 287 981 267 q 1020 345 1002 313 q 1057 406 1039 378 q 1102 470 1078 439 q 1254 704 1185 581 q 1372 952 1322 826 q 1435 976 1413 959 q 1467 1009 1457 993 q 1477 1040 1476 1026 q 1478 1056 1478 1054 q 1453 1011 1469 1026 q 1422 989 1437 996 q 1383 980 1404 981 q 1362 979 1381 980 q 1314 977 1343 978 q 1252 975 1285 976 q 1187 974 1219 974 q 1058 976 1124 974 q 926 978 993 978 q 731 969 826 978 q 556 935 635 961 q 420 861 476 909 q 344 731 365 813 q 342 716 344 728 q 333 691 339 704 q 319 667 328 678 q 294 656 309 656 q 234 696 265 656 q 204 800 204 737 q 232 903 204 846 q 325 1006 261 959 q 492 1086 389 1054 q 741 1119 594 1119 q 993 1102 867 1119 q 1231 1085 1119 1085 q 1350 1089 1309 1085 q 1413 1097 1391 1093 q 1444 1106 1435 1102 q 1467 1109 1454 1109 q 1512 1096 1489 1109 q 1535 1041 1535 1083 q 1515 960 1535 1026 q 1451 795 1494 894 q 1343 574 1407 696 q 1189 326 1278 452 q 1127 227 1150 270 q 1104 156 1104 183 q 1115 127 1104 139 q 1148 115 1126 115 q 1207 133 1174 115 q 1270 176 1241 152 q 1339 239 1304 204 q 1566 488 1452 367 q 1776 707 1680 609 q 1938 869 1872 806 q 2020 946 2004 933 q 2050 967 2033 957 q 2080 981 2063 974 q 2113 987 2096 987 q 2161 963 2144 987 m 2065 1141 q 2049 1151 2063 1141 q 2035 1193 2035 1161 q 2044 1225 2035 1206 q 2065 1262 2052 1244 q 2093 1293 2078 1280 q 2122 1306 2107 1306 q 2158 1283 2146 1306 q 2170 1244 2170 1261 q 2157 1214 2170 1231 q 2128 1180 2144 1196 q 2095 1152 2111 1163 q 2072 1141 2080 1141 l 2065 1141 m 2167 1059 q 2151 1069 2165 1059 q 2137 1111 2137 1080 q 2145 1144 2137 1124 q 2167 1181 2154 1163 q 2194 1211 2180 1198 q 2224 1224 2209 1224 q 2260 1202 2248 1224 q 2272 1163 2272 1180 q 2259 1132 2272 1150 q 2230 1098 2246 1115 q 2197 1070 2213 1081 q 2174 1059 2181 1059 l 2167 1059 z "},"":{"ha":1920,"x_min":248,"x_max":2315,"o":"m 2206 959 q 2213 943 2209 950 q 2220 904 2220 924 q 2212 865 2220 885 q 2181 824 2204 844 q 2126 774 2156 802 q 2069 718 2100 750 q 2000 643 2037 685 q 1935 557 1969 606 q 1869 460 1906 517 q 1798 337 1833 404 q 1636 50 1722 193 q 1457 -206 1550 -93 q 1267 -389 1365 -319 q 1067 -459 1169 -459 q 992 -451 1039 -459 q 898 -419 944 -443 q 818 -351 852 -394 q 783 -237 783 -307 q 788 -186 783 -211 q 800 -143 793 -161 q 819 -104 807 -122 q 903 -13 856 -39 q 996 13 950 13 q 1107 -21 1061 13 q 1154 -122 1154 -56 q 1150 -150 1154 -131 q 1139 -187 1146 -169 q 1119 -219 1131 -206 q 1093 -231 1107 -231 q 1070 -209 1070 -231 q 1062 -164 1070 -181 q 1044 -135 1054 -146 q 1024 -120 1033 -124 q 1015 -117 1015 -117 q 978 -111 994 -111 q 928 -126 946 -111 q 898 -157 909 -141 q 880 -202 885 -178 q 891 -256 880 -233 q 916 -292 902 -278 q 942 -312 930 -306 q 957 -319 954 -319 q 1004 -326 978 -326 q 1069 -317 1037 -326 q 1126 -294 1100 -307 q 1183 -261 1156 -280 q 1305 -162 1248 -217 q 1410 -47 1361 -107 q 1500 75 1459 13 q 1574 196 1541 137 q 1707 478 1650 333 q 1561 305 1635 391 q 1417 151 1487 219 q 1281 41 1346 83 q 1161 -2 1217 -2 q 1081 13 1113 -2 q 1032 51 1050 28 q 1007 100 1015 74 q 1000 148 1000 126 q 1005 197 1000 174 q 1017 241 1009 220 q 1033 283 1024 263 q 1063 344 1044 311 q 1100 404 1081 376 q 1146 469 1120 437 q 1296 702 1228 580 q 1415 948 1365 824 q 1480 973 1457 956 q 1511 1007 1502 991 q 1521 1037 1520 1024 q 1522 1052 1522 1050 q 1497 1009 1513 1024 q 1467 988 1481 994 q 1440 980 1452 981 q 1426 978 1428 978 q 1370 975 1422 978 q 1259 972 1319 972 q 1121 974 1193 972 q 976 976 1050 976 q 779 968 876 976 q 601 933 681 959 q 464 858 520 907 q 387 728 407 809 q 384 712 387 724 q 376 687 381 700 q 360 664 370 674 q 337 654 350 654 q 306 665 322 654 q 278 695 291 676 q 256 742 265 715 q 248 798 248 769 q 277 902 248 846 q 369 1005 306 957 q 535 1083 433 1052 q 783 1115 637 1115 q 1041 1099 911 1115 q 1285 1083 1170 1083 q 1398 1087 1359 1083 q 1457 1094 1437 1091 q 1486 1102 1478 1098 q 1509 1106 1494 1106 q 1555 1094 1531 1106 q 1578 1039 1578 1081 q 1557 959 1578 1024 q 1494 795 1537 894 q 1386 574 1452 696 q 1231 324 1320 452 q 1170 224 1193 269 q 1148 152 1148 180 q 1158 123 1148 135 q 1191 111 1169 111 q 1250 131 1217 111 q 1313 174 1283 150 q 1381 237 1346 202 q 1607 485 1493 363 q 1819 705 1722 607 q 1981 867 1915 802 q 2063 944 2048 931 q 2093 965 2076 956 q 2122 979 2106 972 q 2156 985 2139 985 q 2206 959 2187 985 m 2026 1100 q 2022 1107 2022 1104 q 2043 1142 2022 1117 q 2093 1194 2063 1167 q 2154 1245 2122 1222 q 2207 1274 2185 1269 q 2243 1279 2224 1278 q 2278 1277 2261 1280 q 2305 1266 2294 1274 q 2315 1244 2315 1257 q 2294 1204 2315 1228 q 2241 1156 2272 1180 q 2175 1112 2209 1131 q 2117 1085 2141 1093 q 2073 1080 2091 1078 q 2044 1085 2056 1081 q 2030 1094 2033 1089 q 2026 1100 2026 1100 z "},"":{"ha":624,"x_min":-52,"x_max":722,"o":"m 672 365 q 685 343 685 359 q 681 320 685 331 q 670 302 676 309 q 652 271 667 296 q 614 212 637 246 q 560 141 591 178 q 494 72 530 104 q 416 20 457 41 q 331 0 374 0 q 285 17 306 4 q 253 49 267 28 q 239 111 239 70 q 241 141 239 115 q 267 194 243 167 q 257 188 265 194 q 242 169 250 181 q 227 138 233 157 q 220 93 220 119 q 136 26 183 52 q 46 0 89 0 q -28 37 -4 0 q -52 133 -52 74 q -28 271 -52 194 q 44 426 -4 348 q 184 579 107 530 q 326 628 261 628 q 411 597 383 628 q 444 543 439 567 q 465 568 452 554 q 494 594 478 581 q 527 617 509 607 q 561 626 544 626 q 606 609 593 626 q 620 570 620 593 q 580 469 620 524 q 538 409 567 450 q 479 321 509 369 q 425 229 448 274 q 402 159 402 183 q 422 139 402 139 q 466 160 439 139 q 522 212 493 181 q 579 278 552 243 q 624 343 606 313 q 633 356 628 348 q 644 364 637 359 q 659 369 650 369 q 672 365 661 369 m 311 344 q 330 373 319 356 q 350 410 341 391 q 366 448 359 430 q 372 481 372 467 q 350 506 372 506 q 267 464 311 506 q 184 367 222 422 q 120 256 146 311 q 94 176 94 202 q 115 154 94 154 q 164 174 137 154 q 217 224 191 194 q 268 287 243 254 q 311 344 293 320 m 719 728 q 715 722 719 728 q 700 713 711 717 q 671 707 689 709 q 628 713 654 706 q 569 740 604 720 q 504 783 535 759 q 451 831 472 807 q 430 872 430 856 q 440 894 430 885 q 467 905 450 902 q 502 906 483 907 q 537 902 520 906 q 591 873 559 896 q 652 822 622 850 q 702 769 681 794 q 722 735 722 744 q 719 728 722 731 z "},"":{"ha":624,"x_min":-52,"x_max":800,"o":"m 672 365 q 685 343 685 359 q 681 320 685 331 q 670 302 676 309 q 652 271 667 296 q 614 212 637 246 q 560 141 591 178 q 494 72 530 104 q 416 20 457 41 q 331 0 374 0 q 285 17 306 4 q 253 49 267 28 q 239 111 239 70 q 241 141 239 115 q 267 194 243 167 q 257 188 265 194 q 242 169 250 181 q 227 138 233 157 q 220 93 220 119 q 136 26 183 52 q 46 0 89 0 q -28 37 -4 0 q -52 133 -52 74 q -28 271 -52 194 q 44 426 -4 348 q 184 579 107 530 q 326 628 261 628 q 411 597 383 628 q 444 543 439 567 q 465 568 452 554 q 494 594 478 581 q 527 617 509 607 q 561 626 544 626 q 606 609 593 626 q 620 570 620 593 q 580 469 620 524 q 538 409 567 450 q 479 321 509 369 q 425 229 448 274 q 402 159 402 183 q 422 139 402 139 q 466 160 439 139 q 522 212 493 181 q 579 278 552 243 q 624 343 606 313 q 633 356 628 348 q 644 364 637 359 q 659 369 650 369 q 672 365 661 369 m 311 344 q 330 373 319 356 q 350 410 341 391 q 366 448 359 430 q 372 481 372 467 q 350 506 372 506 q 267 464 311 506 q 184 367 222 422 q 120 256 146 311 q 94 176 94 202 q 115 154 94 154 q 164 174 137 154 q 217 224 191 194 q 268 287 243 254 q 311 344 293 320 m 511 728 q 507 735 507 731 q 528 769 507 744 q 578 822 548 794 q 639 873 607 850 q 693 902 670 896 q 728 906 709 906 q 763 905 746 907 q 790 894 780 902 q 800 872 800 885 q 779 831 800 856 q 726 783 757 807 q 660 740 694 759 q 602 713 626 720 q 558 707 576 706 q 530 713 541 709 q 515 722 519 717 q 511 728 511 728 z "},"":{"ha":624,"x_min":-52,"x_max":739,"o":"m 672 365 q 685 343 685 359 q 681 320 685 331 q 670 302 676 309 q 652 271 667 296 q 614 212 637 246 q 560 141 591 178 q 494 72 530 104 q 416 20 457 41 q 331 0 374 0 q 285 17 306 4 q 253 49 267 28 q 239 111 239 70 q 241 141 239 115 q 267 194 243 167 q 257 188 265 194 q 242 169 250 181 q 227 138 233 157 q 220 93 220 119 q 136 26 183 52 q 46 0 89 0 q -28 37 -4 0 q -52 133 -52 74 q -28 271 -52 194 q 44 426 -4 348 q 184 579 107 530 q 326 628 261 628 q 411 597 383 628 q 444 543 439 567 q 465 568 452 554 q 494 594 478 581 q 527 617 509 607 q 561 626 544 626 q 606 609 593 626 q 620 570 620 593 q 580 469 620 524 q 538 409 567 450 q 479 321 509 369 q 425 229 448 274 q 402 159 402 183 q 422 139 402 139 q 466 160 439 139 q 522 212 493 181 q 579 278 552 243 q 624 343 606 313 q 633 356 628 348 q 644 364 637 359 q 659 369 650 369 q 672 365 661 369 m 311 344 q 330 373 319 356 q 350 410 341 391 q 366 448 359 430 q 372 481 372 467 q 350 506 372 506 q 267 464 311 506 q 184 367 222 422 q 120 256 146 311 q 94 176 94 202 q 115 154 94 154 q 164 174 137 154 q 217 224 191 194 q 268 287 243 254 q 311 344 293 320 m 313 865 q 313 872 309 869 q 344 888 317 878 q 406 906 370 898 q 480 917 443 913 q 539 915 517 920 q 562 906 548 911 q 587 898 576 902 q 605 887 596 893 q 622 878 613 881 q 662 832 641 863 q 701 770 683 802 q 729 712 719 739 q 737 678 739 685 q 730 672 733 674 q 709 670 731 672 q 643 700 687 669 q 591 750 619 719 q 543 815 563 781 q 462 809 504 809 q 391 817 420 809 q 349 831 365 822 q 325 846 333 839 q 315 859 317 854 q 313 865 313 865 z "},"":{"ha":624,"x_min":-52,"x_max":791,"o":"m 672 365 q 685 343 685 359 q 681 320 685 331 q 670 302 676 309 q 652 271 667 296 q 614 212 637 246 q 560 141 591 178 q 494 72 530 104 q 416 20 457 41 q 331 0 374 0 q 285 17 306 4 q 253 49 267 28 q 239 111 239 70 q 241 141 239 115 q 267 194 243 167 q 257 188 265 194 q 242 169 250 181 q 227 138 233 157 q 220 93 220 119 q 136 26 183 52 q 46 0 89 0 q -28 37 -4 0 q -52 133 -52 74 q -28 271 -52 194 q 44 426 -4 348 q 184 579 107 530 q 326 628 261 628 q 411 597 383 628 q 444 543 439 567 q 465 568 452 554 q 494 594 478 581 q 527 617 509 607 q 561 626 544 626 q 606 609 593 626 q 620 570 620 593 q 580 469 620 524 q 538 409 567 450 q 479 321 509 369 q 425 229 448 274 q 402 159 402 183 q 422 139 402 139 q 466 160 439 139 q 522 212 493 181 q 579 278 552 243 q 624 343 606 313 q 633 356 628 348 q 644 364 637 359 q 659 369 650 369 q 672 365 661 369 m 311 344 q 330 373 319 356 q 350 410 341 391 q 366 448 359 430 q 372 481 372 467 q 350 506 372 506 q 267 464 311 506 q 184 367 222 422 q 120 256 146 311 q 94 176 94 202 q 115 154 94 154 q 164 174 137 154 q 217 224 191 194 q 268 287 243 254 q 311 344 293 320 m 783 800 q 791 785 791 793 q 781 753 791 767 q 755 729 770 739 q 721 714 739 719 q 689 709 704 709 q 641 717 663 709 q 597 733 619 724 q 555 750 576 743 q 511 757 533 757 q 490 756 502 757 q 465 754 478 754 q 439 776 439 754 q 471 830 439 809 q 535 850 504 850 q 603 837 572 850 q 670 809 633 824 q 698 806 685 809 q 726 802 711 802 q 743 804 733 802 q 761 806 752 806 q 783 800 772 806 z "},"":{"ha":624,"x_min":-52,"x_max":763,"o":"m 672 365 q 685 343 685 359 q 681 320 685 331 q 670 302 676 309 q 652 271 667 296 q 614 212 637 246 q 560 141 591 178 q 494 72 530 104 q 416 20 457 41 q 331 0 374 0 q 285 17 306 4 q 253 49 267 28 q 239 111 239 70 q 241 141 239 115 q 267 194 243 167 q 257 188 265 194 q 242 169 250 181 q 227 138 233 157 q 220 93 220 119 q 136 26 183 52 q 46 0 89 0 q -28 37 -4 0 q -52 133 -52 74 q -28 271 -52 194 q 44 426 -4 348 q 184 579 107 530 q 326 628 261 628 q 411 597 383 628 q 444 543 439 567 q 465 568 452 554 q 494 594 478 581 q 527 617 509 607 q 561 626 544 626 q 606 609 593 626 q 620 570 620 593 q 580 469 620 524 q 538 409 567 450 q 479 321 509 369 q 425 229 448 274 q 402 159 402 183 q 422 139 402 139 q 466 160 439 139 q 522 212 493 181 q 579 278 552 243 q 624 343 606 313 q 633 356 628 348 q 644 364 637 359 q 659 369 650 369 q 672 365 661 369 m 311 344 q 330 373 319 356 q 350 410 341 391 q 366 448 359 430 q 372 481 372 467 q 350 506 372 506 q 267 464 311 506 q 184 367 222 422 q 120 256 146 311 q 94 176 94 202 q 115 154 94 154 q 164 174 137 154 q 217 224 191 194 q 268 287 243 254 q 311 344 293 320 m 556 757 q 540 768 554 757 q 526 809 526 778 q 534 842 526 822 q 556 879 543 861 q 583 909 569 896 q 613 922 598 922 q 649 900 637 922 q 661 861 661 878 q 648 831 661 848 q 619 796 635 813 q 586 769 602 780 q 563 757 570 757 l 556 757 m 657 676 q 642 686 656 676 q 628 728 628 696 q 636 760 628 741 q 657 797 644 780 q 685 828 670 815 q 715 841 700 841 q 751 819 739 841 q 763 780 763 796 q 750 749 763 767 q 720 715 737 731 q 688 687 704 698 q 665 676 672 676 l 657 676 z "},"":{"ha":624,"x_min":-52,"x_max":707,"o":"m 672 365 q 685 343 685 359 q 681 320 685 331 q 670 302 676 309 q 652 271 667 296 q 614 212 637 246 q 560 141 591 178 q 494 72 530 104 q 416 20 457 41 q 331 0 374 0 q 285 17 306 4 q 253 49 267 28 q 239 111 239 70 q 241 141 239 115 q 267 194 243 167 q 257 188 265 194 q 242 169 250 181 q 227 138 233 157 q 220 93 220 119 q 136 26 183 52 q 46 0 89 0 q -28 37 -4 0 q -52 133 -52 74 q -28 271 -52 194 q 44 426 -4 348 q 184 579 107 530 q 326 628 261 628 q 411 597 383 628 q 444 543 439 567 q 465 568 452 554 q 494 594 478 581 q 527 617 509 607 q 561 626 544 626 q 606 609 593 626 q 620 570 620 593 q 580 469 620 524 q 538 409 567 450 q 479 321 509 369 q 425 229 448 274 q 402 159 402 183 q 422 139 402 139 q 466 160 439 139 q 522 212 493 181 q 579 278 552 243 q 624 343 606 313 q 633 356 628 348 q 644 364 637 359 q 659 369 650 369 q 672 365 661 369 m 311 344 q 330 373 319 356 q 350 410 341 391 q 366 448 359 430 q 372 481 372 467 q 350 506 372 506 q 267 464 311 506 q 184 367 222 422 q 120 256 146 311 q 94 176 94 202 q 115 154 94 154 q 164 174 137 154 q 217 224 191 194 q 268 287 243 254 q 311 344 293 320 m 628 707 q 612 718 626 707 q 598 759 598 728 q 615 816 598 785 q 659 846 631 846 q 695 824 683 846 q 707 785 707 802 q 699 758 707 772 q 679 733 691 744 q 655 715 667 722 q 635 707 643 707 l 628 707 m 641 746 l 644 746 q 663 757 650 746 q 676 780 676 769 q 670 796 676 787 q 656 806 665 806 q 635 793 643 806 q 628 769 628 780 q 633 752 628 757 q 641 746 637 748 z "},"":{"ha":544,"x_min":-39,"x_max":665,"o":"m 594 365 q 605 337 609 357 q 593 302 600 317 q 474 144 541 213 q 409 88 444 115 q 332 40 374 61 q 243 8 291 19 q 141 2 194 -2 q 8 51 46 9 q -33 152 -30 93 q -24 269 -39 213 q 11 367 -9 324 q 51 435 31 409 q 74 467 70 461 q 220 599 143 561 q 357 626 298 637 q 388 616 369 624 q 425 587 407 607 q 452 530 443 567 q 448 433 461 493 q 441 403 444 419 q 430 370 437 387 q 386 301 415 335 q 304 244 357 267 q 217 230 259 224 q 150 248 174 235 q 156 196 148 220 q 175 156 161 176 q 220 126 189 135 q 297 119 263 113 q 357 141 331 126 q 413 180 387 156 q 485 258 448 211 q 544 343 522 306 q 557 359 550 352 q 574 368 565 365 q 594 365 583 370 m 170 320 q 266 354 230 331 q 315 385 302 376 q 349 419 337 404 q 369 448 361 435 q 378 474 376 463 q 378 491 380 483 q 370 511 378 506 q 357 519 363 517 q 354 520 356 520 q 321 519 341 524 q 280 498 302 515 q 302 504 291 502 q 320 506 311 506 q 337 504 330 507 q 307 488 322 498 q 281 469 293 478 q 256 443 267 457 q 224 407 239 428 q 196 369 211 391 q 170 320 181 346 m 661 728 q 657 722 661 728 q 643 713 654 717 q 614 707 631 709 q 570 713 596 706 q 512 740 546 720 q 446 783 478 759 q 394 831 415 807 q 372 872 372 856 q 382 894 372 885 q 409 905 393 902 q 444 906 426 907 q 480 902 463 906 q 533 873 502 896 q 594 822 565 850 q 644 769 624 794 q 665 735 665 744 q 661 728 665 731 z "},"":{"ha":544,"x_min":-39,"x_max":694,"o":"m 594 365 q 605 337 609 357 q 593 302 600 317 q 474 144 541 213 q 409 88 444 115 q 332 40 374 61 q 243 8 291 19 q 141 2 194 -2 q 8 51 46 9 q -33 152 -30 93 q -24 269 -39 213 q 11 367 -9 324 q 51 435 31 409 q 74 467 70 461 q 220 599 143 561 q 357 626 298 637 q 388 616 369 624 q 425 587 407 607 q 452 530 443 567 q 448 433 461 493 q 441 403 444 419 q 430 370 437 387 q 386 301 415 335 q 304 244 357 267 q 217 230 259 224 q 150 248 174 235 q 156 196 148 220 q 175 156 161 176 q 220 126 189 135 q 297 119 263 113 q 357 141 331 126 q 413 180 387 156 q 485 258 448 211 q 544 343 522 306 q 557 359 550 352 q 574 368 565 365 q 594 365 583 370 m 170 320 q 266 354 230 331 q 315 385 302 376 q 349 419 337 404 q 369 448 361 435 q 378 474 376 463 q 378 491 380 483 q 370 511 378 506 q 357 519 363 517 q 354 520 356 520 q 321 519 341 524 q 280 498 302 515 q 302 504 291 502 q 320 506 311 506 q 337 504 330 507 q 307 488 322 498 q 281 469 293 478 q 256 443 267 457 q 224 407 239 428 q 196 369 211 391 q 170 320 181 346 m 406 728 q 402 735 402 731 q 422 769 402 744 q 472 822 443 794 q 533 873 502 850 q 587 902 565 896 q 622 906 604 906 q 657 905 641 907 q 684 894 674 902 q 694 872 694 885 q 673 831 694 856 q 620 783 652 807 q 555 740 589 759 q 496 713 520 720 q 453 707 470 706 q 424 713 435 709 q 409 722 413 717 q 406 728 406 728 z "},"":{"ha":544,"x_min":-39,"x_max":741,"o":"m 594 365 q 605 337 609 357 q 593 302 600 317 q 474 144 541 213 q 409 88 444 115 q 332 40 374 61 q 243 8 291 19 q 141 2 194 -2 q 8 51 46 9 q -33 152 -30 93 q -24 269 -39 213 q 11 367 -9 324 q 51 435 31 409 q 74 467 70 461 q 220 599 143 561 q 357 626 298 637 q 388 616 369 624 q 425 587 407 607 q 452 530 443 567 q 448 433 461 493 q 441 403 444 419 q 430 370 437 387 q 386 301 415 335 q 304 244 357 267 q 217 230 259 224 q 150 248 174 235 q 156 196 148 220 q 175 156 161 176 q 220 126 189 135 q 297 119 263 113 q 357 141 331 126 q 413 180 387 156 q 485 258 448 211 q 544 343 522 306 q 557 359 550 352 q 574 368 565 365 q 594 365 583 370 m 170 320 q 266 354 230 331 q 315 385 302 376 q 349 419 337 404 q 369 448 361 435 q 378 474 376 463 q 378 491 380 483 q 370 511 378 506 q 357 519 363 517 q 354 520 356 520 q 321 519 341 524 q 280 498 302 515 q 302 504 291 502 q 320 506 311 506 q 337 504 330 507 q 307 488 322 498 q 281 469 293 478 q 256 443 267 457 q 224 407 239 428 q 196 369 211 391 q 170 320 181 346 m 315 865 q 315 872 311 869 q 345 888 319 878 q 408 906 372 898 q 481 917 444 913 q 541 915 519 920 q 564 906 550 911 q 589 898 578 902 q 606 887 598 893 q 624 878 615 881 q 664 832 643 863 q 703 770 685 802 q 731 712 720 739 q 739 678 741 685 q 731 672 735 674 q 711 670 733 672 q 644 700 689 669 q 593 750 620 719 q 544 815 565 781 q 464 809 506 809 q 393 817 422 809 q 351 831 367 822 q 327 846 335 839 q 317 859 319 854 q 315 865 315 865 z "},"":{"ha":544,"x_min":-39,"x_max":646,"o":"m 594 365 q 605 337 609 357 q 593 302 600 317 q 474 144 541 213 q 409 88 444 115 q 332 40 374 61 q 243 8 291 19 q 141 2 194 -2 q 8 51 46 9 q -33 152 -30 93 q -24 269 -39 213 q 11 367 -9 324 q 51 435 31 409 q 74 467 70 461 q 220 599 143 561 q 357 626 298 637 q 388 616 369 624 q 425 587 407 607 q 452 530 443 567 q 448 433 461 493 q 441 403 444 419 q 430 370 437 387 q 386 301 415 335 q 304 244 357 267 q 217 230 259 224 q 150 248 174 235 q 156 196 148 220 q 175 156 161 176 q 220 126 189 135 q 297 119 263 113 q 357 141 331 126 q 413 180 387 156 q 485 258 448 211 q 544 343 522 306 q 557 359 550 352 q 574 368 565 365 q 594 365 583 370 m 170 320 q 266 354 230 331 q 315 385 302 376 q 349 419 337 404 q 369 448 361 435 q 378 474 376 463 q 378 491 380 483 q 370 511 378 506 q 357 519 363 517 q 354 520 356 520 q 321 519 341 524 q 280 498 302 515 q 302 504 291 502 q 320 506 311 506 q 337 504 330 507 q 307 488 322 498 q 281 469 293 478 q 256 443 267 457 q 224 407 239 428 q 196 369 211 391 q 170 320 181 346 m 439 713 q 423 723 437 713 q 409 765 409 733 q 418 797 409 778 q 439 834 426 817 q 467 865 452 852 q 496 878 481 878 q 532 856 520 878 q 544 817 544 833 q 531 786 544 804 q 502 752 519 769 q 469 724 485 735 q 446 713 454 713 l 439 713 m 541 631 q 525 642 539 631 q 511 683 511 652 q 519 716 511 696 q 541 753 528 735 q 569 783 554 770 q 598 796 583 796 q 634 774 622 796 q 646 735 646 752 q 633 705 646 722 q 604 670 620 687 q 571 643 587 654 q 548 631 556 631 l 541 631 z "},"":{"ha":339,"x_min":-80,"x_max":481,"o":"m -74 156 q -80 111 -80 130 q -66 49 -80 70 q -33 17 -52 28 q 13 0 -13 4 q 99 20 56 0 q 183 72 143 41 q 259 141 224 104 q 322 212 294 178 q 368 271 350 246 q 389 302 385 296 q 397 321 393 311 q 402 341 402 331 q 395 359 402 350 q 376 369 389 369 q 360 364 367 369 q 350 356 354 359 q 341 343 344 348 q 292 278 324 313 q 223 212 259 243 q 155 160 187 181 q 106 139 122 139 q 85 159 85 139 q 108 229 85 183 q 161 321 131 274 q 219 410 191 369 q 261 469 248 452 q 293 522 281 496 q 304 570 304 548 q 290 609 304 593 q 244 626 276 626 q 196 610 219 626 q 156 576 174 594 q 115 526 135 554 q 33 400 70 463 q -30 281 2 346 q -74 156 -61 215 m 478 728 q 474 722 478 728 q 459 713 470 717 q 431 707 448 709 q 387 713 413 706 q 329 740 363 720 q 263 783 294 759 q 210 831 231 807 q 189 872 189 856 q 199 894 189 885 q 226 905 209 902 q 261 906 243 907 q 296 902 280 906 q 350 873 319 896 q 411 822 381 850 q 461 769 441 794 q 481 735 481 744 q 478 728 481 731 z "},"":{"ha":339,"x_min":-80,"x_max":569,"o":"m -74 156 q -80 111 -80 130 q -66 49 -80 70 q -33 17 -52 28 q 13 0 -13 4 q 99 20 56 0 q 183 72 143 41 q 259 141 224 104 q 322 212 294 178 q 368 271 350 246 q 389 302 385 296 q 397 321 393 311 q 402 341 402 331 q 395 359 402 350 q 376 369 389 369 q 360 364 367 369 q 350 356 354 359 q 341 343 344 348 q 292 278 324 313 q 223 212 259 243 q 155 160 187 181 q 106 139 122 139 q 85 159 85 139 q 108 229 85 183 q 161 321 131 274 q 219 410 191 369 q 261 469 248 452 q 293 522 281 496 q 304 570 304 548 q 290 609 304 593 q 244 626 276 626 q 196 610 219 626 q 156 576 174 594 q 115 526 135 554 q 33 400 70 463 q -30 281 2 346 q -74 156 -61 215 m 280 728 q 276 735 276 731 q 296 769 276 744 q 346 822 317 794 q 407 873 376 850 q 461 902 439 896 q 496 906 478 906 q 531 905 515 907 q 558 894 548 902 q 569 872 569 885 q 547 831 569 856 q 494 783 526 807 q 429 740 463 759 q 370 713 394 720 q 327 707 344 706 q 298 713 309 709 q 283 722 287 717 q 280 728 280 728 z "},"":{"ha":339,"x_min":-80,"x_max":541,"o":"m -74 156 q -80 111 -80 130 q -66 49 -80 70 q -33 17 -52 28 q 13 0 -13 4 q 99 20 56 0 q 183 72 143 41 q 259 141 224 104 q 322 212 294 178 q 368 271 350 246 q 389 302 385 296 q 397 321 393 311 q 402 341 402 331 q 395 359 402 350 q 376 369 389 369 q 360 364 367 369 q 350 356 354 359 q 341 343 344 348 q 292 278 324 313 q 223 212 259 243 q 155 160 187 181 q 106 139 122 139 q 85 159 85 139 q 108 229 85 183 q 161 321 131 274 q 219 410 191 369 q 261 469 248 452 q 293 522 281 496 q 304 570 304 548 q 290 609 304 593 q 244 626 276 626 q 196 610 219 626 q 156 576 174 594 q 115 526 135 554 q 33 400 70 463 q -30 281 2 346 q -74 156 -61 215 m 115 865 q 115 872 111 869 q 145 888 119 878 q 208 906 172 898 q 281 917 244 913 q 341 915 319 920 q 364 906 350 911 q 389 898 378 902 q 406 887 398 893 q 424 878 415 881 q 464 832 443 863 q 503 770 485 802 q 531 712 520 739 q 539 678 541 685 q 531 672 535 674 q 511 670 533 672 q 444 700 489 669 q 393 750 420 719 q 344 815 365 781 q 264 809 306 809 q 193 817 222 809 q 151 831 167 822 q 127 846 135 839 q 117 859 119 854 q 115 865 115 865 z "},"":{"ha":339,"x_min":-80,"x_max":517,"o":"m -74 156 q -80 111 -80 130 q -66 49 -80 70 q -33 17 -52 28 q 13 0 -13 4 q 99 20 56 0 q 183 72 143 41 q 259 141 224 104 q 322 212 294 178 q 368 271 350 246 q 389 302 385 296 q 397 321 393 311 q 402 341 402 331 q 395 359 402 350 q 376 369 389 369 q 360 364 367 369 q 350 356 354 359 q 341 343 344 348 q 292 278 324 313 q 223 212 259 243 q 155 160 187 181 q 106 139 122 139 q 85 159 85 139 q 108 229 85 183 q 161 321 131 274 q 219 410 191 369 q 261 469 248 452 q 293 522 281 496 q 304 570 304 548 q 290 609 304 593 q 244 626 276 626 q 196 610 219 626 q 156 576 174 594 q 115 526 135 554 q 33 400 70 463 q -30 281 2 346 q -74 156 -61 215 m 309 757 q 294 768 307 757 q 280 809 280 778 q 288 842 280 822 q 309 879 296 861 q 337 909 322 896 q 367 922 352 922 q 403 900 391 922 q 415 861 415 878 q 402 831 415 848 q 372 796 389 813 q 340 769 356 780 q 317 757 324 757 l 309 757 m 411 676 q 395 686 409 676 q 381 728 381 696 q 390 760 381 741 q 411 797 398 780 q 439 828 424 815 q 469 841 454 841 q 505 819 493 841 q 517 780 517 796 q 504 749 517 767 q 474 715 491 731 q 442 687 457 698 q 419 676 426 676 l 411 676 z "},"":{"ha":672,"x_min":-50,"x_max":781,"o":"m 722 365 q 734 336 739 356 q 720 302 730 317 q 704 273 719 298 q 665 214 689 248 q 609 140 641 180 q 541 68 578 100 q 463 16 504 35 q 381 0 422 -4 q 326 22 348 4 q 294 69 306 37 q 293 156 281 100 q 326 256 302 200 q 376 359 350 311 q 444 474 407 417 q 461 504 456 485 q 469 478 469 494 q 467 461 469 470 q 477 500 478 487 q 472 520 476 513 q 456 530 465 528 q 391 494 437 531 q 290 391 344 456 q 182 242 235 326 q 98 67 130 157 q 115 50 104 56 q 120 45 117 48 q 122 37 124 43 q 96 11 120 20 q 7 6 44 -7 q -39 55 -28 17 q -47 139 -50 93 q -33 230 -44 185 q -13 300 -22 274 q 24 391 4 348 q 61 465 44 433 q 100 531 81 500 q 128 569 113 550 q 161 601 143 587 q 200 622 180 615 q 246 626 220 630 q 291 579 293 620 q 252 489 289 537 q 215 431 235 463 q 179 369 198 406 q 139 291 159 331 q 170 344 154 317 q 207 400 187 370 q 326 539 265 483 q 381 583 352 563 q 440 615 409 604 q 501 626 470 626 q 561 609 531 626 q 604 546 600 587 q 595 462 607 506 q 562 381 583 419 q 530 324 541 343 q 483 243 504 280 q 456 182 467 211 q 457 144 446 154 q 500 149 472 131 q 560 198 528 167 q 622 269 593 230 q 672 343 652 309 q 685 359 678 352 q 702 368 693 365 q 722 365 711 370 m 774 800 q 781 785 781 793 q 771 753 781 767 q 745 729 761 739 q 712 714 730 719 q 680 709 694 709 q 631 717 654 709 q 588 733 609 724 q 545 750 567 743 q 502 757 524 757 q 481 756 493 757 q 456 754 469 754 q 430 776 430 754 q 462 830 430 809 q 526 850 494 850 q 594 837 563 850 q 661 809 624 824 q 689 806 676 809 q 717 802 702 802 q 733 804 724 802 q 752 806 743 806 q 774 800 763 806 z "},"":{"ha":570,"x_min":-37,"x_max":691,"o":"m 419 461 q 498 425 478 461 q 519 348 519 389 q 518 335 519 341 q 517 324 517 330 q 511 287 515 307 q 485 200 506 252 q 417 100 459 144 q 321 32 380 63 q 178 2 263 2 q 75 17 117 2 q 8 55 33 31 q -27 108 -17 78 q -37 172 -37 139 q -37 187 -37 180 q -35 202 -37 194 q 22 390 -22 309 q 121 524 67 470 q 232 604 176 578 q 330 630 289 630 q 392 617 369 630 q 429 585 415 604 q 447 547 443 567 q 452 517 452 528 q 443 482 450 504 q 409 461 435 461 q 388 469 394 461 q 377 484 381 476 q 369 500 372 493 q 356 507 365 507 q 324 497 341 507 q 293 476 307 487 q 257 444 274 461 q 198 369 224 407 q 158 294 176 335 q 141 211 141 254 q 151 159 141 180 q 177 128 161 139 q 211 113 193 117 q 244 109 230 109 q 311 128 281 109 q 362 169 341 146 q 394 211 383 191 q 406 235 406 231 q 420 285 419 267 q 422 309 422 296 q 421 316 422 313 q 420 322 420 319 q 443 285 435 315 q 442 297 443 287 q 438 319 441 307 q 429 339 435 330 q 409 348 422 348 q 391 344 398 348 q 383 311 383 339 q 381 292 383 304 q 373 269 380 280 q 355 249 367 257 q 322 241 343 241 q 280 263 291 241 q 269 311 269 285 q 276 356 269 330 q 302 405 283 381 q 348 444 320 428 q 419 461 376 461 m 687 728 q 683 722 687 728 q 669 713 680 717 q 640 707 657 709 q 596 713 622 706 q 538 740 572 720 q 472 783 504 759 q 419 831 441 807 q 398 872 398 856 q 408 894 398 885 q 435 905 419 902 q 470 906 452 907 q 506 902 489 906 q 559 873 528 896 q 620 822 591 850 q 670 769 650 794 q 691 735 691 744 q 687 728 691 731 z "},"":{"ha":570,"x_min":-37,"x_max":739,"o":"m 419 461 q 498 425 478 461 q 519 348 519 389 q 518 335 519 341 q 517 324 517 330 q 511 287 515 307 q 485 200 506 252 q 417 100 459 144 q 321 32 380 63 q 178 2 263 2 q 75 17 117 2 q 8 55 33 31 q -27 108 -17 78 q -37 172 -37 139 q -37 187 -37 180 q -35 202 -37 194 q 22 390 -22 309 q 121 524 67 470 q 232 604 176 578 q 330 630 289 630 q 392 617 369 630 q 429 585 415 604 q 447 547 443 567 q 452 517 452 528 q 443 482 450 504 q 409 461 435 461 q 388 469 394 461 q 377 484 381 476 q 369 500 372 493 q 356 507 365 507 q 324 497 341 507 q 293 476 307 487 q 257 444 274 461 q 198 369 224 407 q 158 294 176 335 q 141 211 141 254 q 151 159 141 180 q 177 128 161 139 q 211 113 193 117 q 244 109 230 109 q 311 128 281 109 q 362 169 341 146 q 394 211 383 191 q 406 235 406 231 q 420 285 419 267 q 422 309 422 296 q 421 316 422 313 q 420 322 420 319 q 443 285 435 315 q 442 297 443 287 q 438 319 441 307 q 429 339 435 330 q 409 348 422 348 q 391 344 398 348 q 383 311 383 339 q 381 292 383 304 q 373 269 380 280 q 355 249 367 257 q 322 241 343 241 q 280 263 291 241 q 269 311 269 285 q 276 356 269 330 q 302 405 283 381 q 348 444 320 428 q 419 461 376 461 m 450 728 q 446 735 446 731 q 467 769 446 744 q 517 822 487 794 q 578 873 546 850 q 631 902 609 896 q 667 906 648 906 q 702 905 685 907 q 729 894 719 902 q 739 872 739 885 q 718 831 739 856 q 665 783 696 807 q 599 740 633 759 q 541 713 565 720 q 497 707 515 706 q 469 713 480 709 q 454 722 457 717 q 450 728 450 728 z "},"":{"ha":570,"x_min":-37,"x_max":737,"o":"m 419 461 q 498 425 478 461 q 519 348 519 389 q 518 335 519 341 q 517 324 517 330 q 511 287 515 307 q 485 200 506 252 q 417 100 459 144 q 321 32 380 63 q 178 2 263 2 q 75 17 117 2 q 8 55 33 31 q -27 108 -17 78 q -37 172 -37 139 q -37 187 -37 180 q -35 202 -37 194 q 22 390 -22 309 q 121 524 67 470 q 232 604 176 578 q 330 630 289 630 q 392 617 369 630 q 429 585 415 604 q 447 547 443 567 q 452 517 452 528 q 443 482 450 504 q 409 461 435 461 q 388 469 394 461 q 377 484 381 476 q 369 500 372 493 q 356 507 365 507 q 324 497 341 507 q 293 476 307 487 q 257 444 274 461 q 198 369 224 407 q 158 294 176 335 q 141 211 141 254 q 151 159 141 180 q 177 128 161 139 q 211 113 193 117 q 244 109 230 109 q 311 128 281 109 q 362 169 341 146 q 394 211 383 191 q 406 235 406 231 q 420 285 419 267 q 422 309 422 296 q 421 316 422 313 q 420 322 420 319 q 443 285 435 315 q 442 297 443 287 q 438 319 441 307 q 429 339 435 330 q 409 348 422 348 q 391 344 398 348 q 383 311 383 339 q 381 292 383 304 q 373 269 380 280 q 355 249 367 257 q 322 241 343 241 q 280 263 291 241 q 269 311 269 285 q 276 356 269 330 q 302 405 283 381 q 348 444 320 428 q 419 461 376 461 m 311 865 q 311 872 307 869 q 342 888 315 878 q 405 906 369 898 q 478 917 441 913 q 537 915 515 920 q 560 906 546 911 q 585 898 574 902 q 603 887 594 893 q 620 878 611 881 q 660 832 639 863 q 699 770 681 802 q 727 712 717 739 q 735 678 737 685 q 728 672 731 674 q 707 670 730 672 q 641 700 685 669 q 589 750 617 719 q 541 815 561 781 q 460 809 502 809 q 389 817 419 809 q 347 831 363 822 q 323 846 331 839 q 313 859 315 854 q 311 865 311 865 z "}}}
